<?xml version="1.0" standalone="no"?><!DOCTYPE svg PUBLIC "-//W3C//DTD SVG 1.1//EN" "http://www.w3.org/Graphics/SVG/1.1/DTD/svg11.dtd"><svg t="1519695344299" class="icon" style="" viewBox="0 0 1024 1024" version="1.1" xmlns="http://www.w3.org/2000/svg" p-id="785" xmlns:xlink="http://www.w3.org/1999/xlink" width="200" height="200"><defs><style type="text/css"></style></defs><path d="M900.88964693 781.60598187c-60.872256-45.74697173-95.80547413-115.6155904-95.80547413-191.72228374L805.0841728 430.1868064c0-133.7840512-90.1426336-246.90331947-212.92955413-281.7077376L592.15461973 110.7919296c0-44.03109227-35.81953707-79.84844587-79.84844586-79.84844587-44.03327467 0-79.84844587 35.81735467-79.84844587 79.84844587l0 37.6882304c-122.76618133 34.85681067-212.92955413 147.9236864-212.92955413 281.7077376L219.5281728 589.88478933c0 76.10669333-34.90811307 145.9229184-95.8109312 191.72228374-9.17318933 6.86133653-12.89092907 18.81791893-9.27906773 29.68297493 3.64024107 10.86287253 13.80235413 18.19465707 25.24155306 18.19465707l242.1944736 0c-1.743168 8.73330453-2.7048032 17.6226976-2.7048032 26.61578453 0 73.3505888 59.73161067 133.08219947 133.0811072 133.08219947s133.08219947-59.73161067 133.08219947-133.08219947c0-8.9406944-0.88304533-17.88248-2.6513184-26.61578453l242.19774827 0c11.43701547 0 21.57511467-7.33178453 25.21426453-18.19465707 3.64024107-10.865056-0.1058784-22.8216384-9.25505387-29.68297493L900.88964693 781.60707307 900.88964693 781.60598187zM485.6882048 110.7919296c0-14.68539947 11.92820267-26.61578453 26.61578453-26.61578453 14.683216 0 26.6168768 11.93147733 26.6168768 26.61578453l0 27.8382944c-8.78678933-0.80663787-17.6237888-1.22250987-26.6168768-1.22250987-8.9952704 0-17.83445333 0.41477973-26.61578453 1.22250987L485.6882048 110.7919296 485.6882048 110.7919296zM592.15243627 856.0470048c0 44.03109227-35.81953707 79.84844587-79.84844587 79.84844587-44.03327467 0-79.84735467-35.81735467-79.84735467-79.84844587 0-9.09678293 1.5827136-18.09096213 4.57131307-26.61578453l150.54880747 0C590.58937067 837.95604267 592.15243627 846.95022187 592.15243627 856.0470048zM205.79786027 776.19965013c13.56767573-16.42965867 25.3976416-34.41256 35.06420053-53.28505493 21.18325653-41.4310752 31.89440747-86.19021547 31.89440747-133.02871467L272.75646827 430.1868064c0-132.06817067 107.477168-239.54642987 239.54642986-239.54642987 132.0408832 0 239.54642987 107.4782592 239.54642987 239.54642987L751.84932907 589.88478933c0 46.83849813 10.7591776 91.5976384 31.91733013 133.02871467 9.67092587 18.97728213 21.47032853 36.85757867 35.03909547 53.28505493L205.74874133 776.19855893 205.79786027 776.19965013 205.79786027 776.19965013z" p-id="786"></path></svg>