<?xml version="1.0" standalone="no"?><!DOCTYPE svg PUBLIC "-//W3C//DTD SVG 1.1//EN" "http://www.w3.org/Graphics/SVG/1.1/DTD/svg11.dtd"><svg t="1519796949257" class="icon" style="" viewBox="0 0 1024 1024" version="1.1" xmlns="http://www.w3.org/2000/svg" p-id="726" xmlns:xlink="http://www.w3.org/1999/xlink" width="200" height="200"><defs><style type="text/css"></style></defs><path d="M512 997.45223111c-267.67815111 0-485.45223111-217.77408-485.45223111-485.45223111s217.77408-485.45223111 485.45223111-485.45223111c267.67815111 0 485.45223111 217.77408 485.45223111 485.45223111s-217.77408 485.45223111-485.45223111 485.45223111zM512 123.63889778c-214.13319111 0-388.36110222 174.22904889-388.36110222 388.36110222s174.22904889 388.36110222 388.36110222 388.36110222 388.36110222-174.22904889 388.36110222-388.36110222-174.22904889-388.36110222-388.36110222-388.36110222z" p-id="727"></path><path d="M554.33102222 612.58524445l-90.68202667 0c-0.24234667-13.01048889-0.34019555-20.97152-0.34019555-23.78752 0-29.36945778 4.85489778-53.59388445 14.56355555-72.52650667 9.70865778-18.98154667 29.17603555-40.29212445 58.30314667-63.98293333s46.55445333-39.22488889 52.28316445-46.55445334c8.78705778-11.55413333 13.15612445-24.37006222 13.15612444-38.39886222 0-19.36952889-7.76760889-36.02090667-23.25276444-49.90407111-15.53408-13.83537778-36.45781333-20.82588445-62.76892445-20.82588445-25.34058667 0-46.55445333 7.23285333-63.64273777 21.69969778-17.08828445 14.51463111-28.83584 36.40888889-35.24380445 66.06961778l-91.7504-11.35957334c2.62144-42.47665778 20.68024889-78.49756445 54.27313778-108.11050666 33.49617778-29.61294222 77.57482667-44.46776889 132.09144889-44.46776889 57.38040889 0 103.01326222 15.00046222 136.94634666 44.95246222 33.83637333 30.00092445 50.82680889 64.90453333 50.82680889 104.71196445 0 22.03989333-6.26232889 42.91356445-18.73806222 62.57436444-12.42794667 19.6608-39.03032889 46.40881778-79.80828445 80.34190222-21.16608 17.47626667-34.22435555 31.60291555-39.27267555 42.28323556-5.14616889 10.72810667-7.47633778 29.80636445-6.94158222 57.28369778z" p-id="728"></path><path d="M463.45443555 706.18112l97.08999112 0 0 97.08999111-97.08999112 0 0-97.08999111z" p-id="729"></path></svg>