<?xml version="1.0" standalone="no"?><!DOCTYPE svg PUBLIC "-//W3C//DTD SVG 1.1//EN" "http://www.w3.org/Graphics/SVG/1.1/DTD/svg11.dtd"><svg t="1529635368528" class="icon" style="" viewBox="0 0 1263 1024" version="1.1" xmlns="http://www.w3.org/2000/svg" p-id="4211" xmlns:xlink="http://www.w3.org/1999/xlink" width="246.6796875" height="200"><defs><style type="text/css"></style></defs><path d="M609.607 91.482c138.817 0 277.639-0.005 416.455 0 57.674 0.005 99.871 41.973 99.884 99.513 0.035 213.362 0.032 426.723 0.005 640.089-0.008 58.009-41.96 100.044-100.089 100.054-277.639 0.058-555.277 0.053-832.92 0.005-50.933-0.008-89.893-32.044-98.92-81.277-1.156-6.312-1.282-12.879-1.282-19.326-0.063-212.915-0.076-425.835-0.036-638.751 0.008-58.567 41.885-100.303 100.447-100.308 138.818-0.005 277.639 0 416.455 0v0zM608.897 155.933c-138.603 0-277.209-0.008-415.818 0.008-22.486 0.005-35.706 12.965-35.709 35.032-0.019 213.598-0.019 427.196 0.032 640.799 0 3.536 0.142 7.196 1.027 10.594 4.099 15.773 16.633 24.219 35.541 24.219 276.763 0.005 553.527 0.005 830.29 0 24.447 0 37.232-12.728 37.232-37.044 0.005-211.813 0.005-423.625 0-635.442 0-25.83-12.322-38.17-38.12-38.17-138.158 0.005-276.312 0.005-414.472 0.005v0zM616.692 564.968c-38.947-0.585-70.495-3.067-100.215-15.607-9.165-3.866-18.129-8.74-26.242-14.491-73.866-52.375-147.504-105.071-221.258-157.603-11.678-8.317-17.161-19.433-14.63-33.495 2.321-12.915 10.397-21.566 23.166-25.111 11.117-3.085 20.905 0.12 30.157 6.75 53.111 38.072 106.353 75.969 159.549 113.925 15.795 11.272 32.135 21.865 47.242 33.992 17.665 14.18 37.46 21.91 59.651 24.652 33.095 4.085 65.919 3.638 98.018-6.335 6.879-2.138 13.643-5.648 19.536-9.83 73.478-52.156 146.804-104.518 220.107-156.916 11.357-8.116 23.308-10.125 35.822-3.724 21.959 11.237 23.522 40.589 2.969 55.388-31.312 22.545-62.809 44.835-94.219 67.241-40.674 29.014-81.621 57.647-121.897 87.202-23.153 16.987-48.897 26.452-76.88 30.286-15.883 2.174-31.959 2.906-40.875 3.678v0z" fill="" p-id="4212"></path></svg>