<?xml version="1.0" standalone="no"?><!DOCTYPE svg PUBLIC "-//W3C//DTD SVG 1.1//EN" "http://www.w3.org/Graphics/SVG/1.1/DTD/svg11.dtd"><svg t="1561530389126" class="icon" viewBox="0 0 1024 1024" version="1.1" xmlns="http://www.w3.org/2000/svg" p-id="5480" xmlns:xlink="http://www.w3.org/1999/xlink" width="200" height="200"><defs><style type="text/css"></style></defs><path d="M358.4 608h403.2a102.4 102.4 0 0 1 102.4 102.4v73.6a176 176 0 0 1-176 176h-256A176 176 0 0 1 256 784v-73.6a102.4 102.4 0 0 1 102.4-102.4z" fill="#CAE705" p-id="5481"></path><path d="M416 512h192V224a96 96 0 1 0-192 0v288z m96-448a160 160 0 0 1 160 160v352H352V224a160 160 0 0 1 160-160z" fill="#2B82D8" p-id="5482"></path><path d="M256 576a64 64 0 0 0-64 64v96a160 160 0 0 0 160 160h320a160 160 0 0 0 160-160v-96a64 64 0 0 0-64-64H256z m0-64h512a128 128 0 0 1 128 128v96a224 224 0 0 1-224 224H352a224 224 0 0 1-224-224v-96a128 128 0 0 1 128-128z" fill="#2B82D8" p-id="5483"></path><path d="M512 688m-48 0a48 48 0 1 0 96 0 48 48 0 1 0-96 0Z" fill="#2B82D8" p-id="5484"></path><path d="M512 640a32 32 0 0 1 32 32v96a32 32 0 0 1-64 0V672a32 32 0 0 1 32-32z" fill="#2B82D8" p-id="5485"></path></svg>