<?xml version="1.0" standalone="no"?><!DOCTYPE svg PUBLIC "-//W3C//DTD SVG 1.1//EN" "http://www.w3.org/Graphics/SVG/1.1/DTD/svg11.dtd"><svg t="1529635359539" class="icon" style="" viewBox="0 0 1024 1024" version="1.1" xmlns="http://www.w3.org/2000/svg" p-id="4098" xmlns:xlink="http://www.w3.org/1999/xlink" width="200" height="200"><defs><style type="text/css"></style></defs><path d="M756.190023 62.768579 264.110725 62.768579c-36.988426 0-66.988694 29.740348-66.988694 67.209728l0 759.949138c0 37.118386 30.175253 67.210751 66.988694 67.210751l492.079298 0c36.988426 0 66.989717-29.740348 66.989717-67.210751L823.17974 129.978307C823.17974 92.859921 793.00244 62.768579 756.190023 62.768579zM508.994038 901.239072c-30.853705 0-55.899124-25.046443-55.899124-55.900148 0-30.849612 25.045419-55.895031 55.899124-55.895031 30.850635 0 55.896054 25.045419 55.896054 55.895031C564.890093 876.193653 539.890722 901.239072 508.994038 901.239072zM733.740732 711.446471c0 11.989055-10.196223 22.097274-22.793122 22.097274L309.353139 733.543745c-12.596899 0-22.793122-9.890254-22.793122-22.097274L286.560016 174.303838c0-11.989055 10.197246-22.097274 22.793122-22.097274l401.636427 0c12.555967 0 22.751167 9.891278 22.751167 22.097274L733.740732 711.446471z" p-id="4099"></path></svg>