<?xml version="1.0" standalone="no"?><!DOCTYPE svg PUBLIC "-//W3C//DTD SVG 1.1//EN" "http://www.w3.org/Graphics/SVG/1.1/DTD/svg11.dtd"><svg class="icon" width="200px" height="200.00px" viewBox="0 0 1024 1024" version="1.1" xmlns="http://www.w3.org/2000/svg"><path  d="M512 0l434.424242 185.468121v281.010424a547.933091 547.933091 0 0 1-32.954181 187.671273 596.898909 596.898909 0 0 1-89.894788 164.398546 590.320485 590.320485 0 0 1-138.488243 129.923878A524.443152 524.443152 0 0 1 512 1024a524.31903 524.31903 0 0 1-173.08703-75.527758 589.637818 589.637818 0 0 1-138.488243-129.923878 596.712727 596.712727 0 0 1-89.894788-164.398546A547.529697 547.529697 0 0 1 77.575758 466.478545V185.468121L512 0z m0 510.882909V101.065697L173.614545 246.566788v264.316121H512V926.254545a396.474182 396.474182 0 0 0 125.052121-59.42303 482.986667 482.986667 0 0 0 100.538182-96.069818 520.595394 520.595394 0 0 0 112.795152-259.878788H512z" /></svg>