<?xml version="1.0" standalone="no"?><!DOCTYPE svg PUBLIC "-//W3C//DTD SVG 1.1//EN" "http://www.w3.org/Graphics/SVG/1.1/DTD/svg11.dtd"><svg t="1552282409970" class="icon" style="" viewBox="0 0 1024 1024" version="1.1" xmlns="http://www.w3.org/2000/svg" p-id="11890" xmlns:xlink="http://www.w3.org/1999/xlink" width="200" height="200"><defs><style type="text/css"></style></defs><path d="M497.606687 369.743042l120.792087 0 0 51.77827-120.792087 0 0-51.77827Z" p-id="11891"></path><path d="M813.103244 190.663434c-7.134491 0.223081-14.232143 0.334621-21.10569 0.334621l-0.036839 0c-181.77295 0-261.809821-83.306334-262.47804-84.013439l-18.170848-19.878746-18.161638 19.878746c-0.817622 0.854461-85.314061 90.440825-283.658432 83.678818l-25.527396-0.854461 0 377.589754c0 56.591903 10.961656 128.10054 73.868381 199.647039l3.678786 4.070712c47.152926 51.925626 122.098849 103.741759 240.882186 149.648298l8.882298 3.418866 8.881274-3.418866C805.560454 810.406321 838.556962 666.218384 838.556962 567.398728l0-377.589754L813.103244 190.663434zM414.191882 660.236136 373.950366 660.236136 373.950366 487.680105c-8.620331 15.344476-18.244526 30.189579-28.758997 44.568055-0.966001-7.653307-2.899026-18.688641-5.759167-33.06814-1.932002-9.567913-3.382027-17.260106-4.310166-23.01825 26.828019-45.054125 47.932686-97.779977 63.278185-158.178579l41.690518 11.499915c-6.725168 24.951275-15.346523 49.864688-25.897833 74.7781L414.192905 660.236136zM675.918815 619.977223c-4.793166 8.621355-8.620331 14.84408-11.481496 18.689664-39.350217-23.000853-68.110237-51.275827-86.280062-84.84641l0 106.416681-43.175335 0L534.981922 555.266409c-22.034852 37.380352-52.235688 66.623373-90.582041 87.710644-9.587356-14.379499-17.761526-25.377994-24.449855-33.070186 37.379329-20.138666 67.105351-45.51666 89.170902-76.209706l-80.549547 0 0-37.397748 106.410542 0 0-37.380352-79.062684 0L455.919239 332.361667l204.207915 0 0 126.557394-81.969896 0 0 37.380352 106.419751 0 0 37.397748-82.007759 0c19.172665 27.811416 47.487547 50.813293 84.868923 69.019956C685.505148 606.563726 681.677982 612.32187 675.918815 619.977223z" p-id="11892"></path></svg>