<?xml version="1.0" standalone="no"?><!DOCTYPE svg PUBLIC "-//W3C//DTD SVG 1.1//EN" "http://www.w3.org/Graphics/SVG/1.1/DTD/svg11.dtd"><svg t="1540966735571" class="icon" style="" viewBox="0 0 1024 1024" version="1.1" xmlns="http://www.w3.org/2000/svg" p-id="2484" xmlns:xlink="http://www.w3.org/1999/xlink" width="200" height="200"><defs><style type="text/css"></style></defs><path d="M785.92 140.8h-667.648c-22.622208 0-40.96 18.337792-40.96 40.96v786.432c0 22.622208 18.337792 40.96 40.96 40.96h667.648c22.622208 0 40.96-18.337792 40.96-40.96v-786.432c0-22.622208-18.337792-40.96-40.96-40.96z m-19.456 814.08h-628.736v-759.808h628.736v759.808z" p-id="2485"></path><path d="M910.848 26.112H235.52v54.272h655.872V888.832h60.416V67.072c0-22.622208-18.337792-40.96-40.96-40.96z" p-id="2486"></path><path d="M405.504 817.152h67.944448v-124.928h128.407552v-55.296h-128.407552v-88.064h112.023552v-55.296h-96.335872l77.512704-125.384704-47.03232-29.075456-84.287488 136.337408-81.635328-132.05504-47.034368 29.077504L381.523968 493.568H294.912v55.296h110.592v88.064h-126.976v55.296h126.976z" p-id="2487"></path></svg>