<?xml version="1.0" standalone="no"?><!DOCTYPE svg PUBLIC "-//W3C//DTD SVG 1.1//EN" "http://www.w3.org/Graphics/SVG/1.1/DTD/svg11.dtd"><svg t="1552282463125" class="icon" style="" viewBox="0 0 1024 1024" version="1.1" xmlns="http://www.w3.org/2000/svg" p-id="12224" xmlns:xlink="http://www.w3.org/1999/xlink" width="200" height="200"><defs><style type="text/css"></style></defs><path d="M283.872 179.136c20.672 0 37.376-16.736 37.376-37.376V37.408a37.376 37.376 0 1 0-74.72 0V141.76c0 20.64 16.736 37.376 37.344 37.376z m457.984 0c20.64 0 37.344-16.736 37.344-37.376V37.408a37.376 37.376 0 1 0-74.752 0V141.76c0 20.64 16.704 37.376 37.408 37.376z m-229.056 0c20.704 0 37.376-16.736 37.376-37.376V37.408a37.344 37.344 0 1 0-74.72 0V141.76c0 20.64 16.704 37.376 37.344 37.376zM278.048 533.472h481.984V458.88H278.048v74.592zM805.696 41.696v54.4a74.976 74.976 0 0 1-63.84 114.304 75.072 75.072 0 0 1-75.136-75.008c0-14.432 4.16-27.872 11.264-39.296v-54.4h-101.248v54.4c7.072 11.424 11.2 24.832 11.2 39.296a75.04 75.04 0 1 1-138.944-39.296v-54.4h-101.216v54.4a74.976 74.976 0 0 1-63.872 114.304 74.976 74.976 0 0 1-63.872-114.304v-54.4H150.4v742.848l17.824 17.856 61.952 61.92v-121.44c-11.392-8.896-18.496-21.408-19.008-38.624V267.616h601.728v695.616H469.312c-10.688 0-19.456-3.072-26.688-8.352h-121.856L389.824 1024h483.872V41.696h-68zM278.048 659.168h481.984v-74.72H278.048v74.72z m481.984-325.984H278.048v74.624h481.984v-74.624zM394.944 824.768a70.848 70.848 0 0 0 90.528-85.92l-40.192 40.192-39.328-10.56-10.528-39.36 40.16-40.16a71.136 71.136 0 0 0-68.672 18.304 70.72 70.72 0 0 0-18.24 69.088l-108.416 108.32a70.944 70.944 0 1 0-87.456 86.88l40.192-40.256 39.392 10.624 10.56 39.296-40.288 40.224a71.104 71.104 0 0 0 68.768-18.336 70.784 70.784 0 0 0 17.216-72.096l106.304-106.24z" p-id="12225"></path></svg>