<?xml version="1.0" standalone="no"?><!DOCTYPE svg PUBLIC "-//W3C//DTD SVG 1.1//EN" "http://www.w3.org/Graphics/SVG/1.1/DTD/svg11.dtd"><svg class="icon" width="200px" height="200.00px" viewBox="0 0 1024 1024" version="1.1" xmlns="http://www.w3.org/2000/svg"><path  d="M792.705 186.049c-105.68-0.316-191.426-20.25-255.393-79.734-11.021-9.334-26.104-31.114-57.481-0.106-62.807 54.211-149.924 80.156-255.762 79.945-40.606-0.106-81.211-0.052-81.211 53.156v372.516c0 161.209 261.668 322.049 365.555 322.049s365.555-197.912 365.555-322.049v-372.621c0-53.156-43.348-53.051-81.263-53.156zM640.83 546.489c13.658 0 24.785 10.81 24.785 24.152 0 13.394-11.127 24.205-24.785 24.205h-107.367v104.625c0 13.342-11.075 24.152-24.786 24.152-0.095 0.002-0.206 0.003-0.318 0.003-13.403 0-24.29-10.778-24.466-24.138v-104.694h-107.315c-0.095 0.002-0.205 0.003-0.318 0.003-13.422 0-24.32-10.807-24.467-24.194 0-13.356 11.075-24.166 24.786-24.166h107.261v-64.388h-107.209c-0.095 0.002-0.206 0.003-0.318 0.003-13.403 0-24.29-10.778-24.466-24.138 0-13.411 11.075-24.222 24.786-24.222h87.908l-93.076-90.703c-5.748-5.643-2.373-17.93 7.435-27.633 9.914-9.703 22.57-12.972 28.318-7.277l101.408 98.877 101.461-98.877c5.801-5.59 18.457-2.268 28.213 7.277 9.914 9.651 13.184 21.99 7.435 27.58l-92.917 90.914h87.961c13.711 0 24.785 10.81 24.785 24.152 0 13.395-11.074 24.205-24.785 24.205h-107.262v64.388l107.262-0.105z" /></svg>