<?xml version="1.0" standalone="no"?><!DOCTYPE svg PUBLIC "-//W3C//DTD SVG 1.1//EN" "http://www.w3.org/Graphics/SVG/1.1/DTD/svg11.dtd"><svg t="1540967265678" class="icon" style="" viewBox="0 0 1024 1024" version="1.1" xmlns="http://www.w3.org/2000/svg" p-id="5319" xmlns:xlink="http://www.w3.org/1999/xlink" width="200" height="200"><defs><style type="text/css"></style></defs><path d="M962.818 416.363c-13.15-54.619-90.435-148.821-127.592-191.77l0.041-6.823c0.54-71.268 1.037-138.587-41.962-181.939-23.29-23.472-55.604-34.365-96.039-34.365h-12.028L512.184 97.81 340.475 1h-10.86c-42.097 0-75.218 22.803-98.375 46.23-40.661 40.885-40.124 103.851-39.63 170.541l0.045 8.617C156.83 272.704 65.59 398.905 54.235 465.056c-10.411 60.902-1.346 220.896-0.358 236.245 0 127.009 147.922 321.695 275.738 321.695h367.651c127.858 0 275.737-194.687 275.694-320.081 0.808-21.809 7.045-215.239-10.142-286.552z m-81.727 284.938c0 85.898-115.113 229.78-183.824 229.78H329.615c-68.71 0-183.826-143.882-183.916-232.474-2.693-46.136-8.168-175.163-0.809-218.023 6.463-37.968 79.439-146.127 129.253-210.843l9.515-12.386-0.135-40.302c-0.313-42.815-0.673-91.374 12.925-105.105 4.802-4.848 14.048-6.914 23.114-7.675l195.133 97.567L708.262 92.962c9.199 1.077 15.84 3.636 19.837 7.584 16.022 16.157 15.616 69.474 15.258 116.507l-0.133 42.099 11.578 13.104c52.016 58.658 112.195 138.677 118.66 165.65 12.072 50.083 9.648 205.948 7.629 263.395z" p-id="5320"></path><path d="M706.78 594.084H568.956v-45.955h91.868c25.402 0 45.956-20.557 45.956-45.958s-20.554-45.956-45.956-45.956h-90.253l63.368-63.369c18-17.952 17.953-47.034 0-64.986-17.905-17.952-47.031-17.952-64.983 0l-45.954 45.956-45.958-45.956c-17.952-17.952-47.08-17.952-64.986 0-17.952 17.952-17.997 47.034 0 64.986l63.369 63.369h-90.341c-25.402 0-45.956 20.555-45.956 45.956s20.554 45.958 45.956 45.958h91.958v45.955H339.129c-25.402 0-45.957 20.555-45.957 45.956 0 25.402 20.555 45.956 45.957 45.956h137.915v91.868c0 25.402 20.554 45.957 45.958 45.957 25.398 0 45.954-20.555 45.954-45.957v-91.868H706.78c25.402 0 45.957-20.554 45.957-45.956 0-25.401-20.554-45.956-45.957-45.956z" p-id="5321"></path></svg>