<?xml version="1.0" standalone="no"?><!DOCTYPE svg PUBLIC "-//W3C//DTD SVG 1.1//EN" "http://www.w3.org/Graphics/SVG/1.1/DTD/svg11.dtd"><svg t="1552270447910" class="icon" style="" viewBox="0 0 1024 1024" version="1.1" xmlns="http://www.w3.org/2000/svg" p-id="2947" xmlns:xlink="http://www.w3.org/1999/xlink" width="200" height="200"><defs><style type="text/css"></style></defs><path d="M170.666667 56.888889h682.666666c62.577778 0 113.777778 51.2 113.777778 113.777778v682.666666c0 62.577778-51.2 113.777778-113.777778 113.777778H170.666667c-62.577778 0-113.777778-51.2-113.777778-113.777778V170.666667c0-62.577778 51.2-113.777778 113.777778-113.777778z m0 56.888889c-34.133333 0-56.888889 22.755556-56.888889 56.888889v682.666666c0 34.133333 22.755556 56.888889 56.888889 56.888889h682.666666c34.133333 0 56.888889-22.755556 56.888889-56.888889V170.666667c0-34.133333-22.755556-56.888889-56.888889-56.888889H170.666667z m324.266666 352.711111c0 28.444444-11.377778 51.2-28.444444 73.955555-17.066667 17.066667-45.511111 28.444444-73.955556 34.133334v51.2h-39.822222v-51.2c-56.888889-5.688889-91.022222-39.822222-102.4-96.711111l62.577778-17.066667c5.688889 34.133333 28.444444 56.888889 62.577778 56.888889 17.066667 0 28.444444-5.688889 34.133333-11.377778 5.688889-5.688889 11.377778-17.066667 11.377778-28.444444s-5.688889-22.755556-11.377778-28.444445c-5.688889-5.688889-22.755556-11.377778-51.2-22.755555-22.755556-5.688889-39.822222-17.066667-56.888889-22.755556-11.377778-5.688889-22.755556-17.066667-34.133333-34.133333-5.688889-11.377778-11.377778-28.444444-11.377778-51.2s5.688889-45.511111 22.755556-68.266667c17.066667-17.066667 39.822222-34.133333 68.266666-34.133333v-39.822222h39.822222v39.822222c45.511111 5.688889 79.644444 34.133333 91.022223 79.644444l-56.888889 22.755556c-11.377778-34.133333-28.444444-51.2-51.2-51.2-11.377778 0-22.755556 5.688889-28.444445 11.377778-5.688889 5.688889-11.377778 17.066667-11.377777 28.444444s5.688889 17.066667 11.377777 22.755556c5.688889 5.688889 22.755556 11.377778 45.511111 22.755555s45.511111 17.066667 56.888889 28.444445c11.377778 5.688889 22.755556 17.066667 34.133334 34.133333 11.377778 17.066667 17.066667 34.133333 17.066666 51.2zM597.333333 227.555556h170.666667c17.066667 0 28.444444 11.377778 28.444444 28.444444s-11.377778 28.444444-28.444444 28.444444h-170.666667c-17.066667 0-28.444444-11.377778-28.444444-28.444444s11.377778-28.444444 28.444444-28.444444z m0 170.666666h170.666667c17.066667 0 28.444444 11.377778 28.444444 28.444445s-11.377778 28.444444-28.444444 28.444444h-170.666667c-17.066667 0-28.444444-11.377778-28.444444-28.444444s11.377778-28.444444 28.444444-28.444445z m0 170.666667h170.666667c17.066667 0 28.444444 11.377778 28.444444 28.444444s-11.377778 28.444444-28.444444 28.444445h-170.666667c-17.066667 0-28.444444-11.377778-28.444444-28.444445s11.377778-28.444444 28.444444-28.444444z m-341.333333 170.666667h512c17.066667 0 28.444444 11.377778 28.444444 28.444444s-11.377778 28.444444-28.444444 28.444444h-512c-17.066667 0-28.444444-11.377778-28.444444-28.444444s11.377778-28.444444 28.444444-28.444444z" fill="#999999" p-id="2948"></path></svg>