<?xml version="1.0" standalone="no"?><!DOCTYPE svg PUBLIC "-//W3C//DTD SVG 1.1//EN" "http://www.w3.org/Graphics/SVG/1.1/DTD/svg11.dtd"><svg t="1552281889779" class="icon" style="" viewBox="0 0 1024 1024" version="1.1" xmlns="http://www.w3.org/2000/svg" p-id="3966" xmlns:xlink="http://www.w3.org/1999/xlink" width="200" height="200"><defs><style type="text/css"></style></defs><path d="M808.714 194.212c-18.534 48.415-33.874 81.879-45.998 100.413 7.291 0 21.79-0.778 43.561-2.375 6.451 0 11.305-0.41 14.5-1.25a2503.27 2503.27 0 0 0-14.5-37.478c-3.195-7.27-1.188-12.534 6.042-15.75 7.27-2.416 12.493-0.409 15.749 6.042 1.597 4.854 3.195 10.056 4.854 15.75 8.888 23.388 15.34 42.332 19.353 56.832 1.598 8.888-0.84 14.56-7.27 16.936-7.291 0.82-12.083-2.785-14.5-10.833-0.82 0-2.007-3.257-3.666-9.708-12.902 0.82-28.59 2.028-47.186 3.605h-30.249c-9.646 0-15.688-2.008-18.125-6.042-1.597-4.854 0-11.305 4.854-19.354 16.118-24.985 32.625-60.498 49.623-106.455 3.195-8.11 8.458-10.895 15.688-8.458 7.27 4.035 9.687 10.076 7.27 18.125zM341.28 81.019h24.596a111.718 111.718 0 0 1 31.826-51.63 110.612 110.612 0 0 1 150.139 0.02 112.312 112.312 0 0 1 28.037 40.51 255.037 255.037 0 0 1 352.584 8.478 255.037 255.037 0 0 1-3.359 364.708v468.5C925.082 973.395 874.496 1024 812.667 1024H132.915a112.067 112.067 0 0 1-79.421-33.014 112.108 112.108 0 0 1-33.014-79.421V249.63c0.02-61.83 50.606-112.415 112.435-112.415h132.567c3.85-12.513 10.732-23.757 19.804-32.83l0.082-0.081-0.082 0.082 0.082-0.082a78.991 78.991 0 0 1 55.91-23.286z m197.243 31.232l-0.553-6.697a65.27 65.27 0 0 0-20.87-42.742 65.188 65.188 0 0 0-44.318-17.326 65.372 65.372 0 0 0-65.209 60.068l-1.72 20.971h-64.594a33.616 33.616 0 0 0-23.838 9.851l-0.082 0.082a33.608 33.608 0 0 0-9.851 23.839v72.315c0 9.257 3.809 17.715 9.933 23.839h-0.082a33.792 33.792 0 0 0 23.92 9.932h150.774a254.362 254.362 0 0 1 46.49-154.132z m-41.083 199.598h-156.16a79.053 79.053 0 0 1-55.91-23.265h-0.083a79.032 79.032 0 0 1-23.265-55.993v-49.889H132.915a67.113 67.113 0 0 0-66.928 66.929v661.934c0 18.39 7.536 35.123 19.68 47.268 12.145 12.144 28.878 19.68 47.269 19.68h679.751a67.113 67.113 0 0 0 66.929-66.928v-433.5a253.993 253.993 0 0 1-131.87 36.803c-36.148 0-70.575-7.578-101.786-21.197H225.444c-32.4 0-32.481-45.486 0-45.486h350.33a255.898 255.898 0 0 1-78.335-136.356zM225.444 775.27h494.674c32.42 0 32.481 45.486 0 45.486H225.444c-32.4 0-32.481-45.486 0-45.486z m0-163.532h494.674c32.42 0 32.481 45.486 0 45.486H225.444c-32.4 0-32.481-45.486 0-45.486z m522.28-562.934a209.633 209.633 0 0 0-148.561 61.727 209.633 209.633 0 0 0 0 297.144 209.633 209.633 0 0 0 148.562 61.727c115.814 0 210.288-94.475 210.288-210.289 0-57.897-23.633-110.47-61.726-148.562a209.572 209.572 0 0 0-148.562-61.747z m38.012 71.577c-1.66 7.27-2.847 12.534-3.666 15.75h82.288c14.5 0 22.2 7.27 22.979 21.79v90.747c0 17.756-0.778 33.444-2.437 47.186a506.88 506.88 0 0 1-3.625 39.916c-4.035 44.4-30.25 62.505-78.623 54.456-8.11-1.598-12.124-6.86-12.124-15.75 1.659-8.048 6.451-11.673 14.561-10.895 32.277 6.452 49.603-3.194 51.979-29.02 4.075-15.34 6.45-43.56 7.27-84.725v-79.852c0-7.23-3.605-10.895-10.895-10.895H774.82a628.838 628.838 0 0 1-25.436 52.04c-6.452 8.867-13.271 12.123-20.542 9.707-6.451-4.854-6.86-11.715-1.188-20.603 12.084-17.715 24.167-46.367 36.291-85.914 2.437-8.048 7.23-11.243 14.5-9.646 6.471 2.437 8.888 7.66 7.29 15.708z m-107.684 56.894c0.778 12.083 1.188 31.846 1.188 59.249-0.82 41.984-4.444 72.642-10.896 91.996-7.23 22.548-20.132 42.332-38.707 59.269-7.23 5.673-13.68 5.673-19.353 0-4.035-5.632-2.438-11.674 4.853-18.125 30.659-29.061 44.75-73.81 42.332-134.328v-56.873c-0.778-8.049 2.007-12.493 8.48-13.271 7.25 0.778 11.284 4.792 12.103 12.083z m19.374 147.6c8.049 7.27 16.916 17.346 26.583 30.248l7.27 7.27c4.035 6.452 3.625 12.084-1.228 16.938-5.632 4.853-10.834 4.444-15.688-1.188a264.704 264.704 0 0 0-25.395-26.645c-3.257-3.195-5.264-6.041-6.103-8.458-5.632-5.632-6.452-11.305-2.376-16.937 4.792-4.854 10.465-5.263 16.937-1.229z m6.021-205.681c11.305-0.82 16.937 7.639 16.937 25.395V297.02c-0.84 8.868-4.854 14.152-12.083 15.75-7.27-0.82-10.875-5.632-10.875-14.5V153.068c0-7.23-3.256-10.896-9.708-10.896h-35.102c-9.646 0.84-14.5 4.854-14.5 12.145v139.12c-0.778 8.889-4.854 14.09-12.083 15.75-7.27-0.84-10.896-5.673-10.896-14.562V143.401c-1.597-16.917 7.64-25.027 27.812-24.207h60.498z" p-id="3967"></path></svg>