<?xml version="1.0" standalone="no"?><!DOCTYPE svg PUBLIC "-//W3C//DTD SVG 1.1//EN" "http://www.w3.org/Graphics/SVG/1.1/DTD/svg11.dtd"><svg t="1552287905624" class="icon" style="" viewBox="0 0 1024 1024" version="1.1" xmlns="http://www.w3.org/2000/svg" p-id="2687" xmlns:xlink="http://www.w3.org/1999/xlink" width="200" height="200"><defs><style type="text/css"></style></defs><path d="M819.658544 327.861166 542.141996 177.022763c-9.402137-5.107321-19.72218-7.67275-30.042223-7.67275-10.340509 0-20.682042 2.564405-30.063713 7.67275L204.476533 327.965543c-20.911262 11.341303-33.982976 33.607422-33.982976 57.875129l0 292.607244c0 24.267706 13.071713 46.534849 34.004465 57.896618l277.538037 150.857846c9.381671 5.108345 19.72218 7.67275 30.042223 7.67275 10.340509 0 20.640086-2.564405 30.063713-7.67275l277.538037-150.921291c20.912285-11.382235 33.983999-33.626865 33.983999-57.894571L853.664032 385.756761C853.664032 361.510544 840.591295 339.244424 819.658544 327.861166zM490.729046 681.722496c0 11.738345-9.610892 21.347191-21.348214 21.347191L341.285408 703.069687c-11.737322 0-21.348214-9.609869-21.348214-21.347191L319.937195 553.629119c0-11.738345 9.610892-21.349237 21.348214-21.349237l128.095423 0c11.738345 0 21.348214 9.611915 21.348214 21.349237L490.729046 681.722496zM682.870134 681.722496c0 11.738345-9.610892 21.347191-21.348214 21.347191L533.426497 703.069687c-11.737322 0-21.348214-9.609869-21.348214-21.347191L512.078283 553.629119c0-11.738345 9.611915-21.349237 21.348214-21.349237l128.095423 0c11.738345 0 21.348214 9.611915 21.348214 21.349237L682.870134 681.722496zM682.870134 489.582431c0 11.737322-9.610892 21.348214-21.348214 21.348214L533.426497 510.930645c-11.737322 0-21.348214-9.611915-21.348214-21.348214L512.078283 361.490078c0-11.737322 9.611915-21.348214 21.348214-21.348214l128.095423 0c11.738345 0 21.348214 9.610892 21.348214 21.348214L682.870134 489.582431z" p-id="2688"></path></svg>