<?xml version="1.0" standalone="no"?><!DOCTYPE svg PUBLIC "-//W3C//DTD SVG 1.1//EN" "http://www.w3.org/Graphics/SVG/1.1/DTD/svg11.dtd"><svg t="1552270323422" class="icon" style="" viewBox="0 0 1024 1024" version="1.1" xmlns="http://www.w3.org/2000/svg" p-id="2172" xmlns:xlink="http://www.w3.org/1999/xlink" width="200" height="200"><defs><style type="text/css"></style></defs><path d="M896 584.533333c-38.4 0-72.533333-34.133333-72.533333-72.533333s34.133333-72.533333 72.533333-72.533333c38.4 0 72.533333 34.133333 72.533333 72.533333S934.4 584.533333 896 584.533333zM896 247.466667 366.933333 247.466667c-38.4 0-72.533333-34.133333-72.533333-72.533333s34.133333-72.533333 72.533333-72.533333L896 102.4c38.4 0 72.533333 34.133333 72.533333 72.533333S934.4 247.466667 896 247.466667zM128 247.466667c-38.4 0-72.533333-34.133333-72.533333-72.533333S89.6 102.4 128 102.4c38.4 0 72.533333 34.133333 72.533333 72.533333S166.4 247.466667 128 247.466667zM128 439.466667l529.066667 0c38.4 0 72.533333 34.133333 72.533333 72.533333s-34.133333 72.533333-72.533333 72.533333L128 584.533333c-38.4 0-72.533333-34.133333-72.533333-72.533333S89.6 439.466667 128 439.466667zM128 776.533333c38.4 0 72.533333 34.133333 72.533333 72.533333 0 38.4-34.133333 72.533333-72.533333 72.533333-38.4 0-72.533333-34.133333-72.533333-72.533333C55.466667 806.4 89.6 776.533333 128 776.533333zM366.933333 776.533333 896 776.533333c38.4 0 72.533333 34.133333 72.533333 72.533333 0 38.4-34.133333 72.533333-72.533333 72.533333L366.933333 921.6c-38.4 0-72.533333-34.133333-72.533333-72.533333C294.4 806.4 328.533333 776.533333 366.933333 776.533333z" p-id="2173"></path></svg>