<?xml version="1.0" standalone="no"?><!DOCTYPE svg PUBLIC "-//W3C//DTD SVG 1.1//EN" "http://www.w3.org/Graphics/SVG/1.1/DTD/svg11.dtd"><svg t="1540975524803" class="icon" style="" viewBox="0 0 1024 1024" version="1.1" xmlns="http://www.w3.org/2000/svg" p-id="3677" xmlns:xlink="http://www.w3.org/1999/xlink" width="200" height="200"><defs><style type="text/css"></style></defs><path d="M851.51288889 685.28355555c-20.36622222 0-36.97777778 16.95288889-36.97777778 37.888 0 20.82133333 16.61155555 37.77422222 36.97777778 37.77422223s36.97777778-16.95288889 36.97777778-37.77422223c-0.11377778-21.04888889-16.61155555-37.888-36.97777778-37.888z m8.07822222-341.4471111H743.424v89.088H829.44c29.01333333 0 36.864 7.39555555 46.19377778 15.92888888l43.80444444 41.64266667 40.61866667-0.11377778c-12.74311111-32.768-29.12711111-74.752-40.84622222-104.33422222-11.60533333-26.624-25.14488889-42.21155555-59.61955556-42.21155555z m-451.69777778 341.4471111c-20.36622222 0-36.97777778 16.95288889-36.97777778 37.888 0 20.82133333 16.61155555 37.77422222 36.97777778 37.77422223s36.864-16.95288889 36.864-37.77422223c0-21.04888889-16.49777778-37.888-36.864-37.888z m-234.72355555-0.11377777c-20.36622222 0-36.864 16.83911111-36.864 37.77422222 0 20.70755555 16.49777778 37.66044445 36.864 37.77422222 20.36622222-0.11377778 36.864-16.95288889 36.864-37.77422222 0-20.93511111-16.61155555-37.77422222-36.864-37.77422222z m800.88177777 45.96622222h-14.7911111c0.22755555-2.61688889 0.45511111-5.34755555 0.4551111-7.96444445 0-35.84-16.83911111-67.69777778-42.66666666-87.83644444h106.83733333c0 56.20622222 4.66488889 95.80088889-49.83466667 95.80088889z m-122.53866666 67.47022222c-40.73244445 0-73.728-33.90577778-73.728-75.54844444 0-41.75644445 32.99555555-75.54844445 73.728-75.54844445 40.61866667 0 73.84177778 33.792 73.84177778 75.54844445-0.11377778 41.64266667-33.22311111 75.54844445-73.84177778 75.54844444z m-107.74755556-67.47022222H515.75466667c0.22755555-2.61688889 0.34133333-5.34755555 0.34133333-7.96444445 0-35.84-16.61155555-67.584-42.32533333-87.83644444h312.09244444c-25.94133333 20.13866667-42.55288889 51.99644445-42.55288889 87.83644444 0 2.61688889 0.22755555 5.34755555 0.45511111 7.96444445z m-335.872 67.47022222c-40.73244445 0-73.84177778-33.90577778-73.84177778-75.54844444 0-41.75644445 33.10933333-75.54844445 73.84177778-75.54844445 40.61866667 0 73.728 33.792 73.728 75.54844445 0 41.64266667-33.10933333 75.54844445-73.728 75.54844444z m-107.97511111-67.47022222h-16.15644444c0.22755555-2.61688889 0.34133333-5.34755555 0.34133333-7.96444445 0-35.84-16.72533333-67.69777778-42.55288889-87.83644444h100.352c-25.6 20.25244445-42.32533333 51.99644445-42.32533333 87.83644444 0 2.73066667 0.22755555 5.34755555 0.34133333 7.96444445z m-125.49688889 67.35644445h-0.11377778c-40.73244445 0-73.728-33.90577778-73.728-75.54844445 0-41.75644445 33.10933333-75.54844445 73.728-75.54844445h0.11377778c40.73244445 0 73.728 33.792 73.728 75.54844445 0 41.64266667-32.99555555 75.54844445-73.728 75.54844445z m-108.88533333-66.44622223h-14.79111111c-56.66133333 0-49.83466667-39.59466667-49.83466667-95.80088889h106.95111111c-25.82755555 20.13866667-42.66666667 51.99644445-42.66666666 87.83644445 0 2.50311111 0.22755555 5.34755555 0.34133333 7.96444444zM0 599.49511111V244.39466667c0-10.58133333 8.53333333-19.11466667 19.11466667-19.11466667h614.96888888c10.58133333 0 19.11466667 8.53333333 19.11466667 19.11466667v355.10044444H0z m698.70933333-264.76088889c0-25.48622222 13.65333333-36.75022222 38.79822222-36.75022222h122.19733334c61.78133333 0 86.47111111 37.09155555 100.69333333 70.31466667 21.95911111 55.52355555 61.09866667 155.98933333 61.09866667 155.98933333v75.20711111l-322.67377778-0.56888889-0.11377778-264.192z" p-id="3678"></path></svg>