<?xml version="1.0" standalone="no"?><!DOCTYPE svg PUBLIC "-//W3C//DTD SVG 1.1//EN" "http://www.w3.org/Graphics/SVG/1.1/DTD/svg11.dtd"><svg class="icon" width="200px" height="127.20px" viewBox="0 0 1610 1024" version="1.1" xmlns="http://www.w3.org/2000/svg"><path  d="M1114.67857108 813.33928595m-120.53571405 0a3.29589844 3.29589844 0 1 0 241.07142892 0 3.29589844 3.29589844 0 1 0-241.07142892 0Z"  /><path  d="M391.46428595 813.33928595m-120.53571405 0a3.29589844 3.29589844 0 1 0 241.07142893 0 3.29589844 3.29589844 0 1 0-241.07142893 0Z"  /><path  d="M1385.85379453 90.125L722.96763358 90.125C706.30357108 90.125 692.80357107 103.625 692.80357108 120.2890625L692.80357108 632.53571405l-60.26785703 0L632.53571405 180.58705391C632.53571405 163.62165155 619.09598201 150.39285703 602.55245548 150.39285703L361.1796875 150.39285703c-16.27232108 0-39.20424142 9.64285702-50.53459845 21.54575857L95.85044607 460.92299142C91.54129453 476.71316952 90.125 503.71316952 90.125 520.40736643l0 262.64732107C90.125 799.74888357 103.53459845 813.33928595 120.04799142 813.33928595L210.66071405 813.33928595c0-99.86383905 80.93973202-180.80357108 180.80357107-180.80357107s180.80357108 80.93973202 180.80357109 180.80357107l361.60714296 0c0-99.86383905 80.93973202-180.80357108 180.80357108-180.80357107s180.80357108 80.93973202 180.80357107 180.80357107l90.13058049 0C1402.48772345 813.33928595 1416.01785703 799.95982107 1416.01785703 783.4765625l0-60.65959845L1416.01785703 120.2890625C1416.01785703 103.59486641 1402.51785703 90.125 1385.85379453 90.125zM545.62946405 421.53794607c0 16.66406251-13.56026798 30.19419608-30.10379453 30.19419608L229.73549142 451.73214298c-16.63392892 0-22.44977655-11.14955392-13.22879452-24.61941953l108.45200857-158.35379453C334.30022345 255.13839297 355.21316952 244.10937499 371.90736643 244.10937499l143.6484375 2e-8c16.60379452 0 30.07366095 13.62053595 30.07366095 30.19419607L545.62946405 421.53794607z"  /></svg>