<?xml version="1.0" standalone="no"?><!DOCTYPE svg PUBLIC "-//W3C//DTD SVG 1.1//EN" "http://www.w3.org/Graphics/SVG/1.1/DTD/svg11.dtd"><svg t="1540966331281" class="icon" style="" viewBox="0 0 1024 1024" version="1.1" xmlns="http://www.w3.org/2000/svg" p-id="5085" xmlns:xlink="http://www.w3.org/1999/xlink" width="200" height="200"><defs><style type="text/css"></style></defs><path d="M512 65C265.129 65 65 265.129 65 512s200.129 447 447 447 447-200.129 447-447S758.871 65 512 65z m124.255 357.766h127.884c10.044 0 17.612 4.851 17.612 15.09 0 10.242-8.736 15.092-18.78 15.092H636.255c-10.047 0-18.2-4.85-18.2-15.092 0-10.24 8.153-15.09 18.2-15.09z m145.158 84.238c0 10.242-7.568 15.091-17.612 15.091H663.372c-10.046 0-18.2-4.849-18.2-15.091 0-10.24 8.153-15.089 18.2-15.089h101.012c10.045 0 17.029 4.849 17.029 15.089z m-92.172 176.722c0 22.444-19.183 36.179-42.764 36.179l-155.526 0.001H294.88c-23.58 0-42.764-13.734-42.764-36.18v-9.754c0-20.568 15.934-38.799 36.277-45.738l87.067-36.873s23.601-6.892 30.059-13.775c4.301-4.58 5.627-19.69 0.178-29.608-5.449-9.919-49.564-64.479-49.564-110.247 0-73.806 51.054-133.638 114.031-133.638 62.977 0 114.03 59.832 114.03 133.639 0 47.783-49.506 100.386-53.576 113.331-4.07 12.948-4.399 23.079 0.198 27.374 7.156 6.684 25.567 13.478 25.567 13.478l96.582 35.766c20.342 6.939 36.275 25.724 36.276 46.292v9.753z m74.854-96.497h-67.131c-10.046 0-18.2-4.851-18.2-15.092s8.153-15.09 18.2-15.09l67.715-0.001c10.045 0 17.6 4.85 17.6 15.09s-8.14 15.093-18.184 15.093z" p-id="5086"></path></svg>