<?xml version="1.0" standalone="no"?><!DOCTYPE svg PUBLIC "-//W3C//DTD SVG 1.1//EN" "http://www.w3.org/Graphics/SVG/1.1/DTD/svg11.dtd"><svg class="icon" width="200px" height="200.00px" viewBox="0 0 1024 1024" version="1.1" xmlns="http://www.w3.org/2000/svg"><path  d="M501.31957 740.738477l0.701385 0.700284a254.503639 254.503639 0 0 1 40.346701-140.285798 43.467148 43.467148 0 0 1 5.615484-27.708559 274.129204 274.129204 0 0 0 47.015914-94.692473A127.639948 127.639948 0 0 0 640.605591 393.524301c2.808843-49.451492-9.469247-51.554546-9.469247-51.554546 18.244817-55.761755 23.855897-264.790985-109.82455-239.538925C499.211011 58.594822 358.859148 24.223656 293.249376 141.012508a245.397746 245.397746 0 0 0-19.301849 202.713462c0 4.559553-8.770065-4.911897-11.575604 24.900817a151.067527 151.067527 0 0 0 24.553978 89.431536 55.776069 55.776069 0 0 0 22.813179 16.83544 238.116335 238.116335 0 0 0 48.418683 99.954512 55.403905 55.403905 0 0 1-29.119036 58.922942C202.023088 657.616103 85.883871 727.761204 85.883871 804.568912v58.919639C85.883871 945.904034 278.162443 963.44086 451.140267 963.44086a1080.833101 1080.833101 0 0 0 155.434391-12.274787A263.68991 263.68991 0 0 1 501.31957 740.738477z m427.51009-32.533471h-31.837591a10.136499 10.136499 0 0 1-9.743415-7.143776 169.972989 169.972989 0 0 0-9.095983-22.402477 10.409566 10.409566 0 0 1 1.951105-12.01163l22.735002-22.727295a10.592344 10.592344 0 0 0 0-14.611269l-40.276232-40.257514a10.597849 10.597849 0 0 0-14.615673 0l-22.736103 22.727295a10.424981 10.424981 0 0 1-12.019338 1.946701 135.03477 135.03477 0 0 0-22.410185-9.089376 10.439295 10.439295 0 0 1-7.145978-9.741213v-32.141489a10.747596 10.747596 0 0 0-10.720069-10.389746h-57.166727a10.256516 10.256516 0 0 0-10.390847 10.389746v31.821076a10.129892 10.129892 0 0 1-7.14708 9.73901 170.624826 170.624826 0 0 0-22.412387 9.089377 10.418374 10.418374 0 0 1-12.017135-1.947802l-22.737205-22.726194a10.601153 10.601153 0 0 0-14.617875 0l-39.950314 40.90825a10.591243 10.591243 0 0 0 0 14.610167l22.737204 22.726194a10.41397 10.41397 0 0 1 1.948904 12.012731A134.78923 134.78923 0 0 0 602.067957 701.384946a10.439295 10.439295 0 0 1-9.743415 7.141574h-32.48172a9.806176 9.806176 0 0 0-10.395252 10.064929v57.145807a10.259819 10.259819 0 0 0 10.395252 10.388645h31.832086a10.140903 10.140903 0 0 1 9.744516 7.144877 170.308817 170.308817 0 0 0 9.092679 22.401377 10.410667 10.410667 0 0 1-1.948903 12.012731l-22.736103 22.727295a10.585738 10.585738 0 0 0 0 14.607965l40.277333 40.258615a10.594546 10.594546 0 0 0 14.614572 0l22.737204-22.725092a10.422778 10.422778 0 0 1 12.018237-1.947802 135.123957 135.123957 0 0 0 22.411286 9.089376 10.440396 10.440396 0 0 1 7.14708 9.740112v31.821075a10.258718 10.258718 0 0 0 10.39415 10.389746h57.164525a10.257617 10.257617 0 0 0 10.39415-10.389746v-31.490753a10.129892 10.129892 0 0 1 7.14708-9.73901 170.075389 170.075389 0 0 0 22.411286-9.091579 10.422778 10.422778 0 0 1 12.018237 1.950004l22.736103 22.725093a10.600052 10.600052 0 0 0 14.615673 0l40.277333-40.258615a10.589041 10.589041 0 0 0 0-14.610168L879.454142 828.008602a10.410667 10.410667 0 0 1-1.948903-12.013832 134.887226 134.887226 0 0 0 9.092679-22.400275 10.447002 10.447002 0 0 1 9.746719-7.143777h31.829883c6.496344-0.330323 11.042684-4.871157 11.042684-10.714563v-57.145807a10.256516 10.256516 0 0 0-10.391948-10.385342zM744.332387 838.718761a91.55551 91.55551 0 1 1 91.59625-91.55661c0 50.325746-41.249583 91.556611-91.59625 91.55661z" /></svg>