<?xml version="1.0" standalone="no"?><!DOCTYPE svg PUBLIC "-//W3C//DTD SVG 1.1//EN" "http://www.w3.org/Graphics/SVG/1.1/DTD/svg11.dtd"><svg t="1540968228432" class="icon" style="" viewBox="0 0 1024 1024" version="1.1" xmlns="http://www.w3.org/2000/svg" p-id="8233" xmlns:xlink="http://www.w3.org/1999/xlink" width="200" height="200"><defs><style type="text/css"></style></defs><path d="M468 517.6s-0.8 0 0 0c-10.4-4.8-24-2.4-30.4 6.4l-63.2 83.2c-6.4 8-2.4 18.4 8 23.2 10.4 4.8 24 2.4 30.4-6.4l63.2-83.2c5.6-8 2.4-18.4-8-23.2z"  p-id="8234"></path><path d="M1001.6 383.2H592.8c-12 0-22.4 8-22.4 16.8v49.6H420.8c-8 0-15.2 3.2-19.2 8l-110.4 144c-2.4 2.4-3.2 5.6-3.2 8.8v131.2c0 36 38.4 65.6 85.6 65.6H408c12 32 42.4 55.2 78.4 55.2s66.4-23.2 78.4-55.2H770.4c12 32 42.4 55.2 78.4 55.2 36 0 66.4-23.2 78.4-55.2h12c47.2 0 85.6-29.6 85.6-65.6V644v-0.8-242.4c-0.8-9.6-10.4-17.6-23.2-17.6z m-463.2 424c-10.4 18.4-29.6 31.2-52 31.2s-42.4-12.8-52-31.2c-4.8-8.8-7.2-18.4-7.2-28v-5.6c3.2-30.4 28.8-53.6 59.2-53.6s56 24 59.2 53.6v5.6c0 10.4-2.4 20-7.2 28z m362.4 0c-10.4 18.4-29.6 31.2-52 31.2s-42.4-12.8-52-31.2c-4.8-8.8-7.2-18.4-7.2-28v-5.6c3.2-30.4 28.8-53.6 59.2-53.6 31.2 0 56 24 59.2 53.6v5.6c0 10.4-2.4 20-7.2 28z m79.2-65.6c0 17.6-18.4 32-40.8 32h-7.2c-3.2-43.2-39.2-77.6-83.2-77.6s-80 34.4-83.2 77.6H569.6c-3.2-43.2-39.2-77.6-83.2-77.6s-80 34.4-83.2 77.6h-29.6c-22.4 0-40.8-14.4-40.8-32V615.2l101.6-130.4h134.4l2.4 133.6v24c0 1.6 0 3.2 0.8 4 1.6 8.8 10.4 15.2 21.6 15.2h385.6v80z m0-116.8H615.2V417.6h364v207.2zM283.2 664.8v5.6c0 8 1.6 16 4.8 23.2V664h-4.8z"  p-id="8235"></path><path d="M288 664.8v-17.6c-2.4 5.6-4 11.2-4.8 17.6h4.8z" p-id="8236"></path><path d="M857.6 277.6h-408c-12 0-22.4 8-22.4 16.8V344H277.6c-8 0-15.2 3.2-19.2 8l-64 82.4-47.2 60.8c-2.4 3.2-3.2 6.4-3.2 8.8v131.2c0 36 38.4 65.6 85.6 65.6H264c4.8 13.6 19.2 25.6 29.6 34.4V696c-3.2-7.2-10.4-15.2-10.4-23.2v-5.6c0.8-6.4 8-12 10.4-17.6v-39.2c-16 14.4-32.8 34.4-34.4 56.8h-29.6c-22.4 0-40.8-14.4-40.8-32V508.8l57.6-74.4 41.6-53.6 2.4-3.2h134.4l0.8 75.2h45.6V312h364v82.4h44V294.4c0.8-8.8-8.8-16.8-21.6-16.8z"  p-id="8237"></path><path d="M324 412c-10.4-4.8-24-2.4-30.4 6.4l-5.6 8-7.2 8.8-50.4 67.2c-6.4 8-2.4 18.4 8 23.2 10.4 4.8 24 2.4 30.4-6.4l19.2-25.6 44-58.4s0-0.8 0.8-0.8c4.8-8 1.6-17.6-8.8-22.4z"  p-id="8238"></path><path d="M714.4 161.6H305.6c-12 0-22.4 8-22.4 16.8v49.6H133.6c-8 0-15.2 3.2-19.2 8l-64 82.4-47.2 60.8c-2.4 3.2-3.2 6.4-3.2 8.8V520c0 36 38.4 65.6 85.6 65.6H120c4.8 13.6 19.2 25.6 29.6 34.4v-39.2c-3.2-7.2-10.4-15.2-10.4-23.2V552c0.8-6.4 8-12 10.4-17.6v-39.2c-16 14.4-32.8 34.4-34.4 56.8h-29.6c-22.4 0-40.8-14.4-40.8-32V392.8l57.6-74.4 41.6-53.6 2.4-3.2h134.4l0.8 83.2H328V196h364v82.4H736V178.4c0-9.6-9.6-16.8-21.6-16.8z"  p-id="8239"></path><path d="M180 296c-10.4-4.8-24-2.4-30.4 6.4l-5.6 8-7.2 8.8-50.4 67.2c-6.4 8-2.4 18.4 8 23.2 10.4 4.8 24 2.4 30.4-6.4l19.2-25.6 44-58.4s0-0.8 0.8-0.8c4.8-8 1.6-17.6-8.8-22.4z"  p-id="8240"></path></svg>