<?xml version="1.0" standalone="no"?><!DOCTYPE svg PUBLIC "-//W3C//DTD SVG 1.1//EN" "http://www.w3.org/Graphics/SVG/1.1/DTD/svg11.dtd"><svg class="icon" width="200px" height="200.00px" viewBox="0 0 1024 1024" version="1.1" xmlns="http://www.w3.org/2000/svg"><path  d="M657.066667 102.4H597.333333c0-17.066667-4.266667-29.866667-17.066666-42.666667-8.533333-12.8-25.6-17.066667-38.4-17.066666h-59.733334c-17.066667 0-29.866667 4.266667-42.666666 17.066666-12.8 12.8-17.066667 25.6-17.066667 42.666667H366.933333v115.2h290.133334V102.4z m-119.466667 51.2c-8.533333 8.533333-17.066667 12.8-25.6 12.8-8.533333 0-21.333333-4.266667-25.6-12.8-8.533333-8.533333-8.533333-17.066667-8.533333-25.6 0-8.533333 4.266667-21.333333 8.533333-25.6 8.533333-8.533333 17.066667-8.533333 25.6-8.533333 8.533333 0 17.066667 4.266667 25.6 8.533333 8.533333 8.533333 12.8 17.066667 12.8 25.6-4.266667 12.8-8.533333 21.333333-12.8 25.6zM712.533333 162.133333v115.2H307.2V162.133333H149.333333V981.333333h725.333334V162.133333h-162.133334z m-443.733333 256h251.733333v34.133334H268.8v-34.133334z m0 98.133334h187.733333v34.133333H268.8v-34.133333z m93.866667 128H268.8v-34.133334h93.866667v34.133334z m132.266666 157.866666l-123.733333 21.333334 25.6-115.2 273.066667-256 98.133333 93.866666-273.066667 256zM392.533333 802.133333l76.8-21.333333-51.2-46.933333-25.6 68.266666z" /></svg>