<?xml version="1.0" standalone="no"?><!DOCTYPE svg PUBLIC "-//W3C//DTD SVG 1.1//EN" "http://www.w3.org/Graphics/SVG/1.1/DTD/svg11.dtd"><svg t="1540966828011" class="icon" style="" viewBox="0 0 1024 1024" version="1.1" xmlns="http://www.w3.org/2000/svg" p-id="3172" xmlns:xlink="http://www.w3.org/1999/xlink" width="200" height="200"><defs><style type="text/css"></style></defs><path d="M1014.592 579.52c-15.552-22.656-50.432-41.536-121.216 5.44 6.592-33.088-16.832-53.44-44.288-53.44-24.448 0-52.928 7.04-75.712 33.024-32.576-48.192-66.048-42.496-131.264 2.944-24.832 17.28-46.72 32.064-63.04 42.432l-11.392 7.04c6.464 1.408 12.928 2.752 20.032 2.752 91.584 0 163.776 0 163.776 89.28 0 68.544-70.848 88.256-108.288 89.088H473.536c-69.824 0-138.24-81.728-138.24-81.728s80.768 37.184 138.24 37.184h169.216c0.192 0 69.056-3.072 69.056-44.48 0-38.016-18.56-44.672-124.096-44.672-68.8 0-138.496-45.696-138.496-45.696s-69.696-30.72-91.072-45.76c-50.624-35.584-91.136-69.248-179.52-30.144-56 24.832-178.368 62.272-178.368 62.272v211.776l159.936 17.28c51.136 0 59.904-16.256 101.056 7.552 39.744 22.848 162.24 94.528 192.832 111.168 94.016 51.136 134.336 5.312 179.84-24.192 38.72-25.152 313.28-229.312 342.144-252.224 44.928-35.776 59.008-66.944 38.528-96.896zM356.352 345.024a44.8 44.8 0 0 0-44.608 45.056c0 24.832 19.968 45.056 44.608 45.056h111.168v90.112A44.8 44.8 0 0 0 512 570.368a44.928 44.928 0 0 0 44.544-45.12V435.136h111.168a44.8 44.8 0 0 0 44.608-45.056 44.928 44.928 0 0 0-44.608-45.056H556.544v-45.056h111.168a44.8 44.8 0 0 0 44.608-45.056 44.928 44.928 0 0 0-44.608-45.056H611.84l83.648-84.608a45.568 45.568 0 0 0 0-63.744 44.16 44.16 0 0 0-62.976 0L512 183.424 391.552 61.504a44.16 44.16 0 0 0-62.976 0 45.568 45.568 0 0 0 0 63.744L412.16 209.856h-55.808a44.8 44.8 0 0 0-44.608 45.056c0 24.832 19.968 45.056 44.608 45.056h111.168v45.12H356.352z"  p-id="3173"></path></svg>