<?xml version="1.0" standalone="no"?><!DOCTYPE svg PUBLIC "-//W3C//DTD SVG 1.1//EN" "http://www.w3.org/Graphics/SVG/1.1/DTD/svg11.dtd"><svg t="1540966145695" class="icon" style="" viewBox="0 0 1327 1024" version="1.1" xmlns="http://www.w3.org/2000/svg" p-id="2695" xmlns:xlink="http://www.w3.org/1999/xlink" width="259.1796875" height="200"><defs><style type="text/css"></style></defs><path d="M18.556285 494.412783l185.404794-221.284494a74.478038 74.478038 0 0 1 57.123011-26.87026h149.651542V77.133452a76.248314 76.248314 0 0 1 75.394788-77.133452h559.185915a76.216702 76.216702 0 0 1 75.363176 77.133452v99.894143a44.256899 44.256899 0 0 1-20.674294 40.147329 41.727933 41.727933 0 0 1-44.414959 0 44.256899 44.256899 0 0 1-20.674294-40.147329V98.313539a15.205406 15.205406 0 0 0-14.446716-11.064224H510.534939a15.300242 15.300242 0 0 0-15.078958 15.489914V825.391161h155.562999a156.922318 156.922318 0 0 1 306.447411-8.219139h85.352591a15.300242 15.300242 0 0 0 15.078957-15.489914v-18.01888a43.371761 43.371761 0 0 1 86.680298 0v43.624657a76.501211 76.501211 0 0 1-75.394789 77.449573h-111.811893a156.258464 156.258464 0 0 1-301.484316 7.903017H410.640796a156.068792 156.068792 0 0 1-299.018575 0h-36.03776a76.216702 76.216702 0 0 1-75.363177-77.133452V544.043733a79.030176 79.030176 0 0 1 18.335001-49.63095z m756.982641 441.936745a78.081814 78.081814 0 0 0 86.711909-18.01888 83.266194 83.266194 0 0 0 16.975682-89.146039 79.251461 79.251461 0 0 0-73.719349-49.947071 80.800452 80.800452 0 0 0-79.283072 81.559142 81.906875 81.906875 0 0 0 49.31483 75.552848z m-514.296775 6.638535a78.271487 78.271487 0 0 0 56.395933-24.025174 82.665564 82.665564 0 0 0 23.487769-57.850089 79.630806 79.630806 0 1 0-79.883702 81.875263zM85.320978 825.391161h21.401372a156.859094 156.859094 0 0 1 303.886834-17.386639V333.507344H265.446556l-180.188802 214.645958v277.237859z m855.074895-123.603196l-77.41796-59.430692-25.732226-19.915605-12.897725-9.799742-38.819622-29.715346 77.449573-59.114572 77.41796-59.430692v79.030176H1287.875752a78.208262 78.208262 0 0 1-77.2599 79.030176h-270.219979v79.346297z m231.400356-198.207682v-79.030176H824.347962a78.461159 78.461159 0 0 1 77.228289-79.346297h270.219978v-79.030176l77.449573 59.430692 77.417961 59.430693-77.417961 59.114572z m-832.25098-34.773277v78.714055a12.455156 12.455156 0 0 1-12.202259 12.644828H193.276199a12.455156 12.455156 0 0 1-12.202259-12.644828l60.948072-78.714055a28.166355 28.166355 0 0 1 12.202259-12.328708h73.118719a12.170647 12.170647 0 0 1 12.202259 12.328708z" p-id="2696"></path></svg>