<?xml version="1.0" standalone="no"?><!DOCTYPE svg PUBLIC "-//W3C//DTD SVG 1.1//EN" "http://www.w3.org/Graphics/SVG/1.1/DTD/svg11.dtd"><svg t="1540965060296" class="icon" style="" viewBox="0 0 1024 1024" version="1.1" xmlns="http://www.w3.org/2000/svg" p-id="1543" xmlns:xlink="http://www.w3.org/1999/xlink" width="200" height="200"><defs><style type="text/css"></style></defs><path d="M741.818711 369.502565c-4.699022-6.980995-16.866133-5.872754-25.289989-5.872754h-34.369786c-13.960966 0-34.367739 3.299139-34.367738 17.184381v154.657382c0 20.86726 14.498202 34.368762 34.367738 34.368762h103.106286c13.964036 0 34.368762-20.481474 34.368762-34.368762v-51.553143c0-4.947685-14.432711-13.062504-17.184381-17.183357l-60.630892-97.232509z m43.446511 165.969009H682.158936V397.99755h34.369786l51.552119 85.919858 17.184381 17.185404v34.368762z m159.117974-33.880645l-100.952226-202.233957c-14.081717-21.026896-32.825616-38.8314-58.165748-38.8314h-171.84381l-2.684132-44.949748c0-41.542138-33.964556-75.348082-75.716472-75.348082H139.247926c-41.751916 0-75.718519 33.805944-75.718519 75.348082v327.807954c0 41.544185 26.985608 78.008678 68.736501 78.008678v103.104239c0 41.543162 44.168965 68.736501 85.920881 68.736501h34.368762c0 35.164894 41.718147 68.701708 88.62241 68.701708 46.870494 0 83.21833-34.609239 83.21833-68.701708h206.210526c0 33.556257 39.015595 68.737524 85.921905 68.737524 46.836725 0 85.920882-35.181267 85.920881-68.737524h85.920882c41.751916 0 68.735477-40.442084 68.735477-81.975013V543.383778a74.78117 74.78117 0 0 0-12.722766-41.792849z m-794.932907 68.249407c-32.555463 0-34.367739-4.730745-34.367739-34.368762V226.157833c0-35.368532 0.38681-34.369785 34.367739-34.369785h378.052288c29.701462 0 34.367739 1.862417 34.367739 34.369785v309.313741c0 31.070646-6.092765 34.368762-34.367739 34.368762H149.450289z m189.026144 240.576218c-27.89021 0-51.55212-23.820522-51.55212-51.55212 0-27.730575 23.661909-51.55212 51.55212-51.55212 27.857465 0 51.55212 23.821545 51.55212 51.55212 0 27.731598-23.712051 51.55212-51.55212 51.55212z m377.347231 0.352017c-27.873838 0.514723-50.847062-24.172539-50.847062-51.904137 0-27.730575 23.660886-51.55212 51.553143-51.55212 27.856441 0 55.244208 26.447349 54.773487 54.171784-0.472767 27.6395-30.106692 48.815799-55.479568 49.284473z m190.80465-99.510388c0 13.884218-4.295839 30.422893-18.258852 30.422893H802.449603c0-29.259394-29.03222-68.736501-85.920881-68.7365-59.810201 0-85.921905 38.403658-85.921905 68.7365H424.396291c0-26.03598-39.050388-68.736501-85.920881-68.7365-46.920636 0-85.919858 36.97103-85.919859 68.7365h-34.368762c-22.520923 0-34.367739-12.96222-34.367738-34.368762V604.209098h360.866884c41.751916 0 51.55212-10.012028 51.55212-51.554166V312.077691h171.842786c34.19787 0 23.947412 1.610684 34.368762 17.184381l99.93199 200.185299c2.753717 4.120854 3.172249 18.258852 3.172249 23.208584l1.074472 158.602228z" p-id="1544"></path></svg>