<?xml version="1.0" standalone="no"?><!DOCTYPE svg PUBLIC "-//W3C//DTD SVG 1.1//EN" "http://www.w3.org/Graphics/SVG/1.1/DTD/svg11.dtd"><svg class="icon" width="200px" height="200.00px" viewBox="0 0 1024 1024" version="1.1" xmlns="http://www.w3.org/2000/svg"><path  d="M488.106667 262.826667h-75.093334v307.2h75.093334c54.613333 0 92.16-13.653333 119.466666-37.546667 23.893333-23.893333 37.546667-64.853333 37.546667-116.053333 0-54.613333-13.653333-92.16-37.546667-116.053334-23.893333-27.306667-64.853333-37.546667-119.466666-37.546666z"  /><path  d="M754.346667 102.4h-484.693334c-54.613333 0-98.986667 44.373333-98.986666 98.986667v624.64c0 54.613333 44.373333 98.986667 98.986666 98.986666h484.693334c37.546667 0 71.68-34.133333 85.333333-68.266666H273.066667c-20.48 0-37.546667-17.066667-37.546667-37.546667v-34.133333c0-20.48 20.48-37.546667 40.96-37.546667h443.733333c75.093333 0 133.12-61.44 133.12-136.533333v-413.013334c0-51.2-44.373333-95.573333-98.986666-95.573333z m-92.16 471.04c-37.546667 37.546667-88.746667 58.026667-160.426667 58.026667h-157.013333V204.8h157.013333c71.68 0 122.88 20.48 160.426667 58.026667 34.133333 37.546667 51.2 88.746667 51.2 157.013333 0 64.853333-17.066667 116.053333-51.2 153.6z"  /></svg>