<?xml version="1.0" standalone="no"?><!DOCTYPE svg PUBLIC "-//W3C//DTD SVG 1.1//EN" "http://www.w3.org/Graphics/SVG/1.1/DTD/svg11.dtd"><svg class="icon" width="200px" height="200.00px" viewBox="0 0 1024 1024" version="1.1" xmlns="http://www.w3.org/2000/svg"><path  d="M855.383 62.3h-622.7c-56.3 3.5-101.2 47.6-104.7 103v51.3c-27.7 11.2-46.4 37.1-47.9 66.6 1.6 29.4 20.2 55.3 47.9 66.4v103c-27.7 11.2-46.3 37-47.9 66.4 1.6 29.4 20.2 55.3 47.9 66.5v103c-27.7 11.2-46.3 37-47.9 66.4 1.6 29.4 20.2 55.3 47.9 66.5v50.9c0 52.1 52 85.3 104.9 85.3h622.5c23.5 1.7 46.6-6.7 63.3-23.1 16.7-16.4 25.3-39.1 23.7-62.2v-707c0-52.1-34-103-87-103z m-56.2 617.5c6.3 0 11.4 5.4 11.4 12s-5.1 12-11.4 12h-61.3v36h61.3c6.3 0 11.4 5.4 11.4 12s-5.1 12-11.4 12h-61.3v40.4c0 6.6-5.1 12-11.4 12-6.3 0-11.4-5.4-11.4-12v-40.4h-52.9c-6.3 0-11.4-5.4-11.4-12s5.1-12 11.4-12h52.8v-36h-52.9c-6.3 0-11.4-5.4-11.4-12s5.1-12 11.4-12h48.6l-60.1-61.3c-2.1-1.8-3.4-4.5-3.4-7.4s1.2-5.6 3.4-7.4c4.5-4.6 11.6-4.6 16.1 0l60.4 63.3 60.5-64c4.5-4.7 11.7-4.7 16.1 0 2.1 2 3.3 4.9 3.3 7.9s-1.2 5.9-3.3 7.9l-60.4 61.3h55.7v-0.3z m-480.2-468.2h447.8c16.5 0 29.9 13.4 29.9 29.9s-13.4 29.9-29.9 29.9h-447.8c-16.5 0-29.9-13.4-29.9-29.9 0-16.6 13.4-29.9 29.9-29.9z m0 268.7h447.8c16.5 0 29.9 13.4 29.9 29.9s-13.4 29.9-29.9 29.9h-447.8c-16.5 0-29.9-13.4-29.9-29.9 0-16.6 13.4-29.9 29.9-29.9z m0 268.6h179.1c16.5 0 29.9 13.4 29.9 29.9s-13.4 29.9-29.9 29.9h-179.1c-16.5 0-29.9-13.4-29.9-29.9s13.4-29.9 29.9-29.9z"  /></svg>