<?xml version="1.0" standalone="no"?><!DOCTYPE svg PUBLIC "-//W3C//DTD SVG 1.1//EN" "http://www.w3.org/Graphics/SVG/1.1/DTD/svg11.dtd"><svg t="1540968539755" class="icon" style="" viewBox="0 0 1024 1024" version="1.1" xmlns="http://www.w3.org/2000/svg" p-id="9985" xmlns:xlink="http://www.w3.org/1999/xlink" width="200" height="200"><defs><style type="text/css"></style></defs><path d="M102.4 1024c-60.235294 0-102.4-48.188235-102.4-102.4V108.423529C0 48.188235 48.188235 0 102.4 0h813.176471c60.235294 0 102.4 48.188235 102.4 102.4v271.058824c0 18.070588-12.047059 30.117647-30.117647 30.117647s-24.094118-6.023529-24.094118-24.094118V108.423529c0-24.094118-18.070588-48.188235-42.164706-48.188235H102.4c-24.094118 0-42.164706 24.094118-42.164706 48.188235v807.152942c0 24.094118 18.070588 48.188235 42.164706 48.188235h271.058824c18.070588 0 30.117647 12.047059 30.117647 30.117647s-12.047059 30.117647-30.117647 30.117647H102.4z m873.411765-30.117647c-6.023529 0-12.047059 0-18.070589-6.023529l-180.705882-180.705883-12.047059 6.02353c-36.141176 24.094118-72.282353 36.141176-114.447059 36.141176-54.211765 0-108.423529-24.094118-144.564705-60.235294-36.141176-42.164706-60.235294-90.352941-60.235295-144.564706 0-54.211765 24.094118-102.4 60.235295-138.541176 36.141176-36.141176 90.352941-60.235294 144.564705-60.235295 114.447059 0 204.8 90.352941 204.8 204.8 0 42.164706-12.047059 78.305882-36.141176 114.447059l-6.023529 12.047059 180.705882 180.705882c6.023529 6.023529 6.023529 12.047059 6.023529 18.070589 0 6.023529 0 12.047059-6.023529 18.070588-6.023529-6.023529-12.047059 0-18.070588 0z m-331.294118-499.952941c-36.141176 0-78.305882 18.070588-102.4 48.188235-30.117647 30.117647-42.164706 66.258824-42.164706 108.423529 6.023529 72.282353 66.258824 132.517647 138.541177 132.517648h6.023529c42.164706 0 78.305882-18.070588 102.4-42.164706 30.117647-30.117647 42.164706-66.258824 42.164706-108.42353-6.023529-72.282353-66.258824-132.517647-138.541177-138.541176h-6.023529zM204.8 584.282353c-12.047059 0-24.094118-12.047059-24.094118-30.117647 0-12.047059 12.047059-30.117647 30.117647-30.117647H301.176471c12.047059 0 30.117647 12.047059 30.117647 30.117647 0 12.047059-12.047059 30.117647-30.117647 30.117647H204.8z m0-174.682353c-12.047059 0-24.094118-12.047059-24.094118-30.117647s12.047059-30.117647 30.117647-30.117647h180.705883c18.070588 0 30.117647 12.047059 30.117647 30.117647s-12.047059 30.117647-30.117647 30.117647H204.8z m0-174.682353c-12.047059 0-24.094118-12.047059-24.094118-30.117647s12.047059-24.094118 24.094118-24.094118h608.376471c18.070588 0 30.117647 12.047059 30.117647 24.094118s-12.047059 30.117647-30.117647 30.117647H204.8z" p-id="9986"></path></svg>