<?xml version="1.0" standalone="no"?><!DOCTYPE svg PUBLIC "-//W3C//DTD SVG 1.1//EN" "http://www.w3.org/Graphics/SVG/1.1/DTD/svg11.dtd"><svg class="icon" width="200px" height="200.00px" viewBox="0 0 1024 1024" version="1.1" xmlns="http://www.w3.org/2000/svg"><path  d="M512 0C229.248 0 0 229.248 0 512s229.248 512 512 512C794.752 1024 1024 794.784 1024 512S794.752 0 512 0zM683.136 477.888l-44.672 44.672 23.68 0c9.6 0 17.408 7.808 17.408 17.44s-7.808 17.44-17.408 17.44l-41.472 0 0 14.016 41.472 0c9.6 0 17.408 7.808 17.408 17.44s-7.808 17.44-17.408 17.44l-41.472 0 0 30.304c0 9.632-7.808 17.44-17.44 17.44s-17.472-7.808-17.472-17.44l0-30.304L544.32 606.336c-9.632 0-17.44-7.808-17.44-17.44s7.808-17.44 17.44-17.44l41.44 0L585.76 557.44 544.32 557.44c-9.632 0-17.44-7.84-17.44-17.44s7.808-17.44 17.44-17.44l23.648 0-44.672-44.672c-6.816-6.816-6.816-17.856 0-24.672 6.816-6.816 17.856-6.816 24.672 0l55.296 55.264 55.264-55.264c6.848-6.816 17.856-6.816 24.672 0C689.952 460.032 689.952 471.072 683.136 477.888zM338.016 364.064c-9.632 0-17.472-7.808-17.472-17.44s7.84-17.408 17.472-17.408l239.424 0c9.632 0 17.472 7.808 17.472 17.408s-7.84 17.44-17.472 17.44L338.016 364.064zM506.816 407.584c0 9.632-7.808 17.44-17.472 17.44l-151.328 0c-9.632 0-17.44-7.808-17.44-17.44s7.808-17.44 17.44-17.44l151.328 0C499.008 390.144 506.816 397.984 506.816 407.584zM750.336 762.976 750.336 762.976c-9.664 0-17.44-7.776-17.504-17.344l-0.16-36.352L732.672 303.776c0-6.944-5.664-12.608-12.672-12.608L303.808 291.232c-6.976 0-12.64 5.632-12.64 12.608l0 408.544 31.104-29.024c6.688-6.24 17.088-6.24 23.776 0l48.672 45.44 48.672-45.44c6.72-6.24 17.12-6.24 23.808 0l48.672 45.44 48.672-45.44c6.688-6.24 17.088-6.24 23.776 0l58.048 54.208c7.04 6.56 7.424 17.6 0.832 24.64-3.424 3.712-8.096 5.568-12.736 5.568-4.256 0-8.544-1.568-11.904-4.704l-46.112-43.072-46.144 43.072c-3.232 3.04-7.488 4.704-11.904 4.704l-5.024 0c-4.416 0-8.672-1.696-11.904-4.704l-46.144-43.104-46.144 43.104c-3.232 3.04-7.456 4.704-11.872 4.704l-5.024 0c-4.448 0-8.672-1.696-11.904-4.704l-46.144-43.072L288 763.008c-3.232 3.04-7.456 4.704-11.904 4.704L273.728 767.712c-9.664 0-17.472-7.808-17.472-17.472L256.256 303.808c0-26.176 21.312-47.456 47.52-47.456L720 256.288c26.208 0 47.488 21.312 47.488 47.456l0.192 441.696C767.776 755.072 760 762.912 750.336 762.976z" /></svg>