<?xml version="1.0" standalone="no"?><!DOCTYPE svg PUBLIC "-//W3C//DTD SVG 1.1//EN" "http://www.w3.org/Graphics/SVG/1.1/DTD/svg11.dtd"><svg class="icon" width="200px" height="200.00px" viewBox="0 0 1024 1024" version="1.1" xmlns="http://www.w3.org/2000/svg"><path  d="M867.2 508.8V153.6c0-44.8-35.2-80-80-80H233.6C192 73.6 156.8 108.8 156.8 153.6v355.2L512 646.4l355.2-137.6z m-438.4-256h316.8v80h-316.8V252.8z m-60.8 233.6H288v-80h80v80z m0-156.8H288V252.8h80v76.8z m60.8 80h316.8v80h-316.8v-80zM921.6 553.6l-400 156.8h-16L102.4 553.6c-22.4-6.4-41.6 9.6-41.6 32v329.6c0 19.2 16 35.2 35.2 35.2h832c19.2 0 35.2-16 35.2-35.2V585.6c0-22.4-19.2-38.4-41.6-32z" /></svg>