<?xml version="1.0" standalone="no"?><!DOCTYPE svg PUBLIC "-//W3C//DTD SVG 1.1//EN" "http://www.w3.org/Graphics/SVG/1.1/DTD/svg11.dtd"><svg t="1552282367464" class="icon" style="" viewBox="0 0 1024 1024" version="1.1" xmlns="http://www.w3.org/2000/svg" p-id="10903" xmlns:xlink="http://www.w3.org/1999/xlink" width="200" height="200"><defs><style type="text/css"></style></defs><path d="M377.395838 268.509407c-74.242911 0-134.603651 60.400648-134.603651 134.656863 0 74.189699 60.360739 134.551462 134.603651 134.551462 74.189699 0 134.603651-60.361763 134.603651-134.551462C511.999488 328.910055 451.58656 268.509407 377.395838 268.509407zM377.395838 483.875452c-44.535309 0-80.762395-36.20048-80.762395-80.709183 0-44.560892 36.227086-80.814584 80.762395-80.814584 44.535309 0 80.762395 36.253692 80.762395 80.814584C458.159256 447.673949 421.931147 483.875452 377.395838 483.875452zM422.772304 590.244039l65.724911 21.753443 23.844058 145.45172 53.132104-8.729825-29.129434-177.599907-96.66662-31.982412L422.772304 590.244039zM189.291692 748.718353l53.132104 8.729825 23.871687-145.45172 65.698305-21.753443-16.903995-51.106981-96.642061 31.982412L189.291692 748.718353zM619.682 322.351686l0 53.841256 107.683535 0 0-53.841256L619.682 322.351686zM619.682 483.875452l215.367069 0 0-53.841256L619.682 430.034197 619.682 483.875452zM619.682 591.558987l215.367069 0 0-53.841256L619.682 537.717731 619.682 591.558987zM619.682 699.242522l215.367069 0 0-53.841256L619.682 645.401266 619.682 699.242522zM377.395838 860.766288l269.208325 0 0-53.841256L377.395838 806.925033 377.395838 860.766288zM81.267397 160.825872l0 699.940416 242.287185 0 0-53.841256L135.108652 806.925033 135.108652 214.668151l753.781672 0 0 592.257905L700.445418 806.926056l0 53.841256 242.287185 0L942.732603 160.825872 81.267397 160.825872z" p-id="10904"></path></svg>