<?xml version="1.0" standalone="no"?><!DOCTYPE svg PUBLIC "-//W3C//DTD SVG 1.1//EN" "http://www.w3.org/Graphics/SVG/1.1/DTD/svg11.dtd"><svg class="icon" width="200px" height="200.00px" viewBox="0 0 1024 1024" version="1.1" xmlns="http://www.w3.org/2000/svg"><path  d="M672.10752 643.584c-22.3744 0-39.4752 17.11616-39.4752 39.4752 0 22.3744 17.1008 39.4752 39.4752 39.4752 22.35904 0 39.4752-17.1008 39.4752-39.4752 0-22.35904-17.11104-39.4752-39.4752-39.4752zM619.4688 314.61888c0-7.89504-5.25824-13.1584-13.1584-13.1584H251.02848c-7.89504 0-13.1584 5.26336-13.1584 13.1584v223.6928h381.60384v-223.6928zM237.86496 656.74752c0 7.89504 5.26336 13.15328 13.1584 13.15328h40.79104c6.5792-30.26944 32.896-52.62848 64.48128-52.62848 31.58016 0 57.89696 22.35904 64.47616 52.62848h186.84928c6.58432-30.26944 32.90112-52.62848 64.4864-52.62848 31.58016 0 57.89696 22.35904 64.47104 52.62848h67.11296c7.89504 0 13.15328-5.25824 13.15328-13.15328v-92.11904H237.86496v92.11904zM356.29568 643.584c-22.36928 0-39.4752 17.11616-39.4752 39.4752 0 22.3744 17.10592 39.4752 39.4752 39.4752s39.4752-17.1008 39.4752-39.4752c0-22.35904-17.10592-39.4752-39.4752-39.4752zM806.32832 463.31392l-97.3824-75.00288c-6.58432-5.26336-14.47936-7.89504-23.68512-7.89504h-39.4752v157.9008h171.0592V484.36736c0.00512-7.89504-3.93728-15.79008-10.51648-21.05344zM512.6144 23.04c-270.75072 0-490.24 219.48928-490.24 490.24S241.86368 1003.52 512.6144 1003.52c270.75584 0 490.24-219.48928 490.24-490.24S783.37024 23.04 512.6144 23.04z m330.55744 633.70752c0 22.35904-17.10592 39.4752-39.4752 39.4752h-67.11296c-6.57408 30.2592-32.89088 52.6336-64.47104 52.6336-31.58528 0-57.90208-22.3744-64.4864-52.6336H420.77696c-6.5792 30.2592-32.896 52.6336-64.47616 52.6336s-57.90208-22.3744-64.48128-52.6336h-40.79104c-22.3744 0-39.4752-17.11616-39.4752-39.4752V314.61888c0-22.3744 17.10592-39.4752 39.4752-39.4752h355.28192c22.3744 0 39.48032 17.10592 39.48032 39.4752v39.4752h51.31264c7.89504 0 17.10592 2.63168 23.69024 7.89504l111.8464 85.53472c6.5792 5.26336 10.53184 13.1584 10.53184 21.05344v188.17024z" /></svg>