<?xml version="1.0" standalone="no"?><!DOCTYPE svg PUBLIC "-//W3C//DTD SVG 1.1//EN" "http://www.w3.org/Graphics/SVG/1.1/DTD/svg11.dtd"><svg class="icon" width="200px" height="200.00px" viewBox="0 0 1024 1024" version="1.1" xmlns="http://www.w3.org/2000/svg"><path  d="M719.22688 379.50976H304.77824c-6.72256 0-11.20256 4.48-11.20256 11.20256V446.72h436.84864V390.7072c0-6.71744-4.48-11.19744-11.19744-11.19744zM293.57568 704.33792c0 6.72256 4.48 11.20768 11.20256 11.20768h414.44864c6.72256 0 11.20256-4.48512 11.20256-11.20768V469.12H293.57568v235.21792z m190.42304-190.41792h67.20512c6.72256 0 11.20256 4.48 11.20256 11.20256 0 6.72256-4.47488 11.20256-11.20256 11.20256H483.99872c-6.72256 0-11.20256-4.47488-11.20256-11.20256 0-6.72256 4.48-11.20256 11.20256-11.20256zM512.6144 23.04c-270.75072 0-490.24 219.48928-490.24 490.24S241.86368 1003.52 512.6144 1003.52c270.75584 0 490.24-219.48928 490.24-490.24S783.37024 23.04 512.6144 23.04zM405.59104 285.41952c0-22.4 19.04128-40.32512 41.44128-40.32512h141.13792c22.4 0 41.44128 17.92 41.44128 40.32512v38.08256c0 6.72256-4.48 11.20256-11.20256 11.20256s-11.20256-4.48-11.20256-11.20256v-38.08256c0-10.08128-8.95488-17.92-19.03616-17.92H447.03744c-10.08128 0-19.04128 7.84384-19.04128 17.92v38.08256c0 6.72256-4.48 11.20256-11.20256 11.20256-6.72256 0-11.20256-4.48-11.20256-11.20256v-38.08256z m347.24352 418.9184c0 19.0464-14.57152 33.60256-33.60768 33.60256H304.77824c-19.04128 0-33.60256-14.56128-33.60256-33.60256V390.7072c0-19.04128 14.56128-33.60256 33.60256-33.60256h414.44864c19.04128 0 33.60768 14.56128 33.60768 33.60256v313.63072z" /></svg>