<?xml version="1.0" standalone="no"?><!DOCTYPE svg PUBLIC "-//W3C//DTD SVG 1.1//EN" "http://www.w3.org/Graphics/SVG/1.1/DTD/svg11.dtd"><svg t="1540954176551" class="icon" style="" viewBox="0 0 1024 1024" version="1.1" xmlns="http://www.w3.org/2000/svg" p-id="11039" xmlns:xlink="http://www.w3.org/1999/xlink" width="200" height="200"><defs><style type="text/css"></style></defs><path d="M868.584653 161.863891c-197.249603-197.23154-515.901641-197.23154-713.115117 0C-41.870383 359.131558-42.82773 678.795131 154.494126 876.062798c197.195414 197.249603 517.852461 197.249603 715.102064 0C1066.863856 678.795131 1065.85232 359.131558 868.584653 161.863891L868.584653 161.863891zM698.935544 491.100935l0 99.76278-136.665796 0 0 40.082131 136.665796 0 0 98.299665-136.665796 0 0 106.446146-109.751702 0 0-106.446146-136.123902 0L316.394144 630.945846l136.123902 0 0-40.082131-136.123902 0 0-99.76278 82.819545 0-126.171106-245.929794 124.978938 0 81.121609 168.529194c10.350185 21.711907 17.593509 34.970259 21.946728 51.461916 5.202187-17.864456 12.427448-31.195061 21.982854-51.461916l82.747292-168.529194 124.924749 0-127.760663 245.929794L698.935544 491.100935 698.935544 491.100935zM698.935544 491.100935" p-id="11040"></path></svg>