<?xml version="1.0" standalone="no"?><!DOCTYPE svg PUBLIC "-//W3C//DTD SVG 1.1//EN" "http://www.w3.org/Graphics/SVG/1.1/DTD/svg11.dtd"><svg class="icon" width="200px" height="200.00px" viewBox="0 0 1024 1024" version="1.1" xmlns="http://www.w3.org/2000/svg"><path  d="M252.8 569.6c0 16-8 14.4-8 14.4h-12.8c-9.6 0-9.6-8-9.6-11.2l-16 88 14.4 38.4h38.4l14.4-38.4-20.8-91.2z m736-406.4H35.2c-19.2 0-35.2 16-35.2 35.2v627.2c0 19.2 16 35.2 35.2 35.2h953.6c19.2 0 35.2-16 35.2-35.2V198.4c0-19.2-16-35.2-35.2-35.2zM411.2 699.2h-153.6l-14.4 38.4h-9.6l-14.4-38.4H62.4s3.2-48 12.8-57.6c9.6-9.6 20.8-28.8 75.2-36.8 54.4-8 49.6-38.4 51.2-38.4 0-11.2-1.6-27.2-1.6-27.2s-22.4-12.8-30.4-38.4c-17.6-8-14.4-12.8-16-22.4 0 0-4.8-38.4 6.4-38.4 0 0 8 0 6.4-9.6 0-14.4-1.6-40-1.6-51.2 1.6-9.6 4.8-36.8 25.6-40 19.2-3.2 11.2-1.6 17.6-3.2 6.4-1.6 4.8-4.8 16-4.8l25.6-4.8c12.8 0 19.2 19.2 25.6 20.8 6.4 1.6 6.4-3.2 19.2 0 19.2 3.2 17.6 32 17.6 41.6 1.6 9.6 1.6 35.2 0 44.8-1.6 9.6 3.2 8 3.2 8 14.4 0 6.4 38.4 6.4 38.4-1.6 9.6-3.2 11.2-16 20.8-8 25.6-30.4 40-30.4 40v24c0 1.6-3.2 32 48 40 54.4 8 65.6 27.2 75.2 36.8 12.8 9.6 12.8 57.6 12.8 57.6z m118.4 73.6c0 9.6-8 17.6-17.6 17.6-9.6 0-17.6-8-17.6-17.6V251.2c0-9.6 8-17.6 17.6-17.6 9.6 0 17.6 8 17.6 17.6v521.6z m392-35.2H638.4c-9.6 0-17.6-28.8-17.6-38.4 0-9.6 8-38.4 17.6-38.4h283.2c9.6 0 17.6 28.8 17.6 38.4 0 9.6-8 38.4-17.6 38.4z m0-164.8H638.4c-9.6 0-17.6-28.8-17.6-38.4 0-9.6 8-38.4 17.6-38.4h283.2c9.6 0 17.6 28.8 17.6 38.4 0 11.2-8 38.4-17.6 38.4z m0-163.2H638.4c-9.6 0-17.6-28.8-17.6-38.4 0-9.6 8-38.4 17.6-38.4h283.2c9.6 0 17.6 28.8 17.6 38.4 0 9.6-8 38.4-17.6 38.4z"  /></svg>