<?xml version="1.0" standalone="no"?><!DOCTYPE svg PUBLIC "-//W3C//DTD SVG 1.1//EN" "http://www.w3.org/Graphics/SVG/1.1/DTD/svg11.dtd"><svg class="icon" width="200px" height="200.00px" viewBox="0 0 1024 1024" version="1.1" xmlns="http://www.w3.org/2000/svg"><path  d="M293.78814 89.519849c18.285458 13.071713 38.240953 30.199812 53.588499 52.622498 15.420201 22.37766 43.8763 51.352575 43.8763 51.352575l231.988631 0c0 0 24.487717-25.155936 39.429011-45.073568 14.71105-19.872606 27.270087-38.832424 55.092759-56.601112 23.301705-14.669094 35.30304-51.39146 5.489014-63.199391-25.922393-10.219759-36.484959 10.894118-66.460668 11.449773-29.574572 0.478907-33.710776-24.414039-62.969147-35.340903-29.254278-11.083429-44.989657-1.347694-62.485123 15.346523-17.32969 16.810874-24.00881 17.607006-24.00881 17.607006S486.658845 25.554002 475.214189 12.800537c-11.29423-12.802584-40.863686-17.45658-60.263525-5.288446-24.648376 15.703657-30.058596 27.627221-50.561559 31.914874-23.301705 4.808516-60.107983-23.525809-80.458473-6.915503C263.660982 49.007157 275.501658 76.199473 293.78814 89.519849zM767.778454 396.019498c-86.342484-72.505337-132.768862-141.348262-132.768862-141.348262L382.195656 254.671236c0 0-48.496527 72.061222-125.928061 139.199319-88.887446 77.266781-160.90876 200.850447-133.799332 348.947413 24.086581 131.73737 149.457963 281.18203 387.086035 281.18203 230.156913 0 365.15249-123.691113 390.90399-274.816042C931.944397 564.633753 841.231373 457.704396 767.778454 396.019498zM682.30271 810.185285c-7.972579 8.231475-18.334577 12.764721-29.179576 12.764721l-0.417509-0.002047c-4.90573-0.027629-16.763802-0.042979-35.176151-0.042979-19.850094 0-42.960441 0.017396-57.495482 0.029676 0.089028 7.601118 0.176009 16.638959 0.176009 22.988574 0 22.544459-19.707854 46.681182-49.047066 46.682205l-0.713244-0.005117c-30.345122-0.400113-49.690726-17.896602-51.737338-46.802956l-0.016373-0.267083c-0.289596-5.575995-0.384763-14.768355-0.409322-22.580275l-94.189196 0c-10.552333 0-20.774139-4.582365-28.780487-12.901845-9.407254-9.774621-14.94948-23.675212-14.46648-36.279275 0.868787-23.39278 21.078061-43.927465 43.246966-43.927465l94.436836 0 0.10847-45.840024c-25.664519 0.183172-77.956489 0.545422-90.095971 0.545422-23.546276 0-42.060955-17.012466-43.067888-39.571251l-0.010233-0.277316c-0.36225-14.405081 7.795547-33.914414 18.97619-45.378513 7.266497-7.450692 15.601326-11.390421 24.101931-11.390421l90.602507 0 0.047072-6.857175c-29.779234-31.498388-81.874729-86.460164-89.093131-93.542466-17.865903-17.780968-25.892717-47.006593-6.804986-68.600401 7.488555-8.514931 17.774829-13.030781 29.723975-13.030781 18.557658 0 36.427654 10.803044 46.091758 20.052708 11.282974 10.816346 52.92335 53.591569 72.062246 73.296353 21.785166-20.146852 71.670319-66.152652 84.512812-76.861552 10.492982-8.688893 23.118534-13.456476 35.589566-13.456476 13.68979 0 25.913183 5.695722 34.426067 16.040325 11.380188 13.613042 10.907421 26.559912 8.502651 35.027771-2.859118 10.073426-9.92914 20.019962-22.249747 31.302937-16.748453 15.134699-75.544557 74.865081-91.560322 91.170442l0 4.254907 86.636173 0 0.201591 0.00614c30.760584 0.87902 49.546439 32.901341 48.966225 54.56064-0.930185 26.548656-18.887162 42.330084-48.037063 42.332131l-0.77055-0.004093-86.546122 0.23536-0.342808 45.150316 84.47495 0c36.726459 0 50.538023 23.172769 51.218522 44.85765C696.625927 787.176245 691.431625 800.756542 682.30271 810.185285z" /></svg>