<?xml version="1.0" standalone="no"?><!DOCTYPE svg PUBLIC "-//W3C//DTD SVG 1.1//EN" "http://www.w3.org/Graphics/SVG/1.1/DTD/svg11.dtd"><svg class="icon" width="200px" height="200.00px" viewBox="0 0 1024 1024" version="1.1" xmlns="http://www.w3.org/2000/svg"><path  d="M422.263721 870.943069 422.263721 691.472558l448.673719 0 0 179.470511L422.263721 870.943069zM422.263721 422.269349l448.673719 0L870.93744 601.737814 422.263721 601.737814 422.263721 422.269349zM422.263721 153.056931l448.673719 0 0 179.477674L422.263721 332.534606 422.263721 153.056931zM153.060513 691.472558l179.469488 0 0 179.470511L153.060513 870.943069 153.060513 691.472558zM153.060513 422.269349l179.469488 0L332.530001 601.737814 153.060513 601.737814 153.060513 422.269349zM153.060513 153.056931l179.469488 0 0 179.477674L153.060513 332.534606 153.060513 153.056931z" /></svg>