<?xml version="1.0" standalone="no"?><!DOCTYPE svg PUBLIC "-//W3C//DTD SVG 1.1//EN" "http://www.w3.org/Graphics/SVG/1.1/DTD/svg11.dtd"><svg t="1552282312640" class="icon" style="" viewBox="0 0 1024 1024" version="1.1" xmlns="http://www.w3.org/2000/svg" p-id="8214" xmlns:xlink="http://www.w3.org/1999/xlink" width="200" height="200"><defs><style type="text/css"></style></defs><path d="M917.58383 203.886597 106.415147 203.886597c-23.51046 0-42.575678 19.065218-42.575678 42.588981l0 531.047822c0 23.51046 19.065218 42.588981 42.575678 42.588981l811.16766 0c23.51046 0 42.574654-19.079544 42.574654-42.588981L960.157461 246.476601C960.158485 222.951815 941.093267 203.886597 917.58383 203.886597zM932.149571 780.833795c0 8.04114-1.312902 11.269671-9.341762 11.269671l-811.154357 0c-8.042163 0-19.804045-3.227508-19.804045-11.269671L91.849406 427.959955l840.300164 0L932.149571 780.833795zM932.149571 399.957181 91.849406 399.957181l0-98.035804 840.300164 0L932.149571 399.957181zM932.149571 273.91144 91.849406 273.91144l0-24.125467c0-8.035 11.761881-17.888416 19.804045-17.888416l811.154357 0c8.02886 0 9.341762 9.854439 9.341762 17.888416L932.149571 273.91144zM153.094282 736.083591l56.019875 0c7.741311 0 14.004969-6.263657 14.004969-14.004969s-6.263657-14.005992-14.004969-14.005992l-56.019875 0c-7.740288 0-14.004969 6.264681-14.004969 14.005992S145.352971 736.083591 153.094282 736.083591zM237.124094 736.083591l406.145114 0c7.740288 0 14.004969-6.263657 14.004969-14.004969s-6.263657-14.005992-14.004969-14.005992L237.124094 708.072631c-7.741311 0-14.004969 6.264681-14.004969 14.005992S229.382782 736.083591 237.124094 736.083591z" p-id="8215"></path></svg>