<?xml version="1.0" standalone="no"?><!DOCTYPE svg PUBLIC "-//W3C//DTD SVG 1.1//EN" "http://www.w3.org/Graphics/SVG/1.1/DTD/svg11.dtd"><svg class="icon" width="200px" height="200.00px" viewBox="0 0 1024 1024" version="1.1" xmlns="http://www.w3.org/2000/svg"><path  d="M512 1024C229.2736 1024 0 794.7264 0 512S229.2736 0 512 0s512 229.2736 512 512-229.2736 512-512 512z m293.5808-624.0256c-0.2048-1.7408-1.2288-6.2464-6.7584-11.264-3.8912-3.4816-8.4992-7.5776-13.4144-11.776-13.6192-11.9808-28.9792-25.6-34.7136-31.232-2.3552-2.3552-6.144-3.7888-9.8304-3.7888-2.3552 0-5.8368 0.7168-8.9088 3.7888-2.2528 2.3552-3.3792 5.0176-3.2768 7.9872 0.1024 3.3792 1.7408 6.9632 4.3008 9.3184 2.1504 1.9456 5.12 4.608 8.4992 7.5776 7.168 6.2464 16.0768 14.1312 21.9136 20.48l0.9216 1.024-0.9216 1.1264c-4.096 5.0176-9.728 10.1376-15.0528 15.0528-4.1984 3.7888-8.192 7.4752-11.264 10.9568-0.512 0.512-0.4096 1.024-0.4096 1.536v0.1024c0 1.9456 0.1024 3.6864 0.1024 5.2224 0 1.9456 0.1024 3.4816 0.1024 4.5056 0 0.1024 0 0.1024 0.1024 0.2048 0.2048 0.3072 0.8192 0.4096 1.1264 0.4096h37.376c2.9696 0 4.4032 2.4576 4.7104 3.7888V678.912c0 17.2032-11.4688 19.0464-16.384 19.0464-8.2944 0-17.1008-5.0176-17.1008-19.0464V478.6176c0-17.3056-1.7408-23.9616-20.5824-24.9856-2.4576-0.1024-16.9984-0.1024-42.0864-0.1024h-1.6384V248.32c0-16.4864-13.312-29.7984-29.5936-29.7984h-344.064c-16.384 0-29.5936 13.4144-29.5936 29.7984v542.72h-46.8992V819.2h497.2544v-28.16h-46.8992V478.9248h28.8768c6.9632 0 9.3184 5.632 9.6256 8.704v193.1264c0 44.2368 35.6352 46.4896 42.8032 46.4896 12.5952 0 41.8816-4.5056 41.8816-45.8752V399.9744zM306.9952 246.6816H654.336v544.3584H306.9952V246.6816z m18.944 195.2768c0 7.7824 6.2464 14.1312 14.0288 14.1312h281.4976c7.68 0 14.0288-6.3488 14.0288-14.1312V284.672c0-7.7824-6.2464-14.1312-14.0288-14.1312H339.968c-7.68 0-14.0288 6.3488-14.0288 14.1312v157.2864z m281.4976-14.0288H353.9968V298.8032h253.44v129.1264z"  /></svg>