<?xml version="1.0" standalone="no"?><!DOCTYPE svg PUBLIC "-//W3C//DTD SVG 1.1//EN" "http://www.w3.org/Graphics/SVG/1.1/DTD/svg11.dtd"><svg class="icon" width="200px" height="200.00px" viewBox="0 0 1024 1024" version="1.1" xmlns="http://www.w3.org/2000/svg"><path  d="M640.512 205.91a23.04 23.04 0 0 1-16.427-6.614 56.448 56.448 0 0 1-11.733-15.957 80.256 80.256 0 0 1-7.083-19.286 73.472 73.472 0 0 1-2.346-16.512V30.763h1.834a55.467 55.467 0 0 1 15.574 2.346c5.333 1.579 11.52 4.523 18.73 8.96 7.168 4.438 16 10.838 26.326 19.328s23.424 19.584 39.082 33.408c16.896 15.062 30.336 27.904 40.022 38.571 9.77 10.667 17.237 19.627 22.656 26.837 5.333 7.254 8.576 13.398 9.813 18.39 1.237 5.034 1.835 9.386 1.92 13.184v14.165l-138.368-0.043z m119.253 331.007c31.744 0 61.398 5.846 89.088 17.664a222.293 222.293 0 0 1 72.576 48.683 228.395 228.395 0 0 1 48.896 72.576c11.563 27.605 17.494 57.387 17.494 89.216 0 31.787-5.931 61.525-17.494 89.173a228.565 228.565 0 0 1-48.896 72.619 225.28 225.28 0 0 1-72.576 48.768 225.707 225.707 0 0 1-89.088 17.664 226.645 226.645 0 0 1-160.725-66.39 233.387 233.387 0 0 1-49.152-72.575 219.093 219.093 0 0 1-18.261-89.174c0-31.786 6.101-61.61 18.261-89.258a234.368 234.368 0 0 1 49.152-72.576 226.09 226.09 0 0 1 72.661-48.683 221.952 221.952 0 0 1 88.064-17.707z m107.563 262.059c5.675 0 10.752-3.115 15.104-9.472a37.547 37.547 0 0 0 6.57-22.485 38.272 38.272 0 0 0-6.57-22.571c-4.352-6.272-9.43-9.43-15.104-9.43h-89.515v-82.773c0-5.12-2.602-9.472-8.021-13.312-5.333-3.84-12.672-5.674-22.101-5.674-9.344 0-16.427 1.834-21.248 5.674a16.64 16.64 0 0 0-6.998 13.312v103.552a57.6 57.6 0 0 0-1.834 11.264c0 8.79 2.176 16.299 6.57 22.486 4.352 6.314 9.344 9.472 15.104 9.472h128.043v-0.043z m-385.963-61.184v0.128H248.79a57.173 57.173 0 0 1-41.856-17.408 57.301 57.301 0 0 1-17.365-41.941c0-16.214 5.76-30.08 17.365-41.472 11.606-11.264 25.6-16.896 41.856-16.896h273.963a267.733 267.733 0 0 1 94.25-88.576c38.827-22.016 81.835-32.939 128.897-32.939h16.896c5.76 0 11.008 0.597 16 1.92V266.155h-137.43a84.48 84.48 0 0 1-44.33-11.307 99.115 99.115 0 0 1-30.934-29.184 126.379 126.379 0 0 1-17.92-38.101 146.517 146.517 0 0 1-5.76-39.126V30.763H181.888c-14.421 0-28.288 3.925-41.387 11.776-13.226 7.85-24.874 17.749-34.901 29.696a170.197 170.197 0 0 0-24.49 39.04c-6.23 14.165-9.387 27.818-9.387 40.96V794.41c0 15.616 4.096 30.677 12.245 45.226 8.192 14.379 18.39 27.307 30.677 38.528s25.472 20.352 39.552 27.307c14.038 6.827 27.136 10.325 39.126 10.325h333.226a292.267 292.267 0 0 1-33.834-70.485 257.45 257.45 0 0 1-12.288-80.085V751.06a92.075 92.075 0 0 1 0.938-13.269zM248.79 383.872H601.9c16.256-0.043 30.08 5.803 41.429 17.365 11.264 11.563 16.896 25.6 16.896 41.856s-5.675 30.123-16.896 41.43-25.088 16.981-41.515 16.981H248.79c-16.256 0-30.25-5.717-41.856-16.939-11.605-11.306-17.408-25.088-17.408-41.472s5.76-30.293 17.408-41.856c11.52-11.562 25.6-17.365 41.856-17.365z" /></svg>