<?xml version="1.0" standalone="no"?><!DOCTYPE svg PUBLIC "-//W3C//DTD SVG 1.1//EN" "http://www.w3.org/Graphics/SVG/1.1/DTD/svg11.dtd"><svg t="1540965154222" class="icon" style="" viewBox="0 0 1024 1024" version="1.1" xmlns="http://www.w3.org/2000/svg" p-id="1774" xmlns:xlink="http://www.w3.org/1999/xlink" width="200" height="200"><defs><style type="text/css"></style></defs><path d="M806.84675 188.211593l0-48.16293c0-47.421033-29.91738-75.745125-80.040964-75.745125s-80.053244 28.324092-80.053244 75.745125l0 48.16293-54.223972 0 0-48.16293c0-47.421033-29.918403-75.745125-80.041988-75.745125-50.098002 0-80.040964 28.324092-80.040964 75.745125l0 48.16293-54.213739 0 0-48.16293c0-47.421033-29.91738-75.745125-80.040964-75.745125s-80.040964 28.324092-80.040964 75.745125l0 48.16293-91.895967 0 0 771.484869 771.491009 0L897.744993 188.211593 806.84675 188.211593zM689.608605 140.048663c0-23.393803 10.735505-32.889061 37.19718-32.889061 26.437116 0 37.172621 9.494235 37.172621 32.889061l0 128.825041c0 23.393803-10.735505 32.889061-37.172621 32.889061-26.460652 0-37.19718-9.494235-37.19718-32.889061L689.608605 140.048663zM475.313961 140.048663c0-23.393803 10.734482-32.889061 37.171598-32.889061 26.460652 0 37.184901 9.494235 37.184901 32.889061l0 128.825041c0 23.393803-10.723226 32.889061-37.184901 32.889061-26.437116 0-37.171598-9.494235-37.171598-32.889061L475.313961 140.048663zM261.019317 140.048663c0-23.393803 10.710946-32.889061 37.172621-32.889061s37.172621 9.494235 37.172621 32.889061l0 128.825041c0 23.393803-10.710946 32.889061-37.172621 32.889061s-37.172621-9.494235-37.172621-32.889061L261.019317 140.048663zM833.454758 895.406227 190.545242 895.406227 190.545242 359.64915l642.909515 0L833.454758 895.406227z" p-id="1775"></path><path d="M400.287197 783.376711c7.449669 7.474228 22.177092 13.583366 32.742728 13.583366l22.370497 0c10.541077 0 25.293059-6.110161 32.767288-13.583366l258.989589-259.603573c7.448646-7.460925 7.42511-19.669992-0.072655-27.118638l-47.761794-47.396473c-7.474228-7.448646-19.71911-7.411807-27.167756 0.061398l-213.565027 214.075657c-7.473205 7.461949-19.668968 7.485485-27.142174 0.013303l-77.92272-77.765131c-7.473205-7.460925-19.693528-7.460925-27.191292 0.023536l-47.980781 47.993061c-7.448646 7.473205-7.473205 19.693528-0.023536 27.166733L400.287197 783.376711z" p-id="1776"></path></svg>