<?xml version="1.0" standalone="no"?><!DOCTYPE svg PUBLIC "-//W3C//DTD SVG 1.1//EN" "http://www.w3.org/Graphics/SVG/1.1/DTD/svg11.dtd"><svg t="1540965258527" class="icon" style="" viewBox="0 0 1024 1024" version="1.1" xmlns="http://www.w3.org/2000/svg" p-id="1995" xmlns:xlink="http://www.w3.org/1999/xlink" width="200" height="200"><defs><style type="text/css"></style></defs><path d="M872.96 512c-6.826667 0-15.786667-2.133333-22.613333-2.133333v-129.92A333.866667 333.866667 0 0 0 512 49.493333 334.08 334.08 0 0 0 173.653333 379.946667v129.92c-6.826667 0-15.786667 2.133333-22.613333 2.133333a89.386667 89.386667 0 0 1-90.24-88.106667 87.893333 87.893333 0 0 1 69.973333-85.333333 384 384 0 0 1 762.453334 0 87.893333 87.893333 0 0 1 69.973333 85.333333A89.386667 89.386667 0 0 1 872.96 512zM128 386.56a42.666667 42.666667 0 0 0 0 74.88z m766.933333 0v74.88a42.666667 42.666667 0 0 0 0-74.88z m-584.106666 202.666667l-21.333334-19.84a154.88 154.88 0 0 1-18.133333-21.333334c-4.48-8.746667-11.306667-15.36-15.786667-24.32a80.426667 80.426667 0 0 1-11.306666-24.32 2.133333 2.133333 0 0 0-2.346667-2.133333 337.28 337.28 0 0 1-18.133333-50.56c0-2.133333 0-4.48-2.346667-4.48-2.346667-6.613333-2.346667-15.36-4.48-21.333333v-6.613334a257.706667 257.706667 0 0 1 29.226667-151.893333A298.666667 298.666667 0 0 1 512 93.653333a289.28 289.28 0 0 1 293.333333 286.293334 208.64 208.64 0 0 1-2.346666 37.546666 76.586667 76.586667 0 0 1-4.48 21.333334c0 2.133333-2.346667 4.48-2.346667 6.613333a179.2 179.2 0 0 1-18.133333 48.426667c0 2.133333-2.346667 2.133333-2.346667 4.48-4.48 6.613333-6.826667 15.36-11.306667 21.333333v2.133333a149.333333 149.333333 0 0 1-15.786666 24.32c-6.826667 6.613333-11.306667 15.36-18.133334 21.333334l-21.333333 19.84a410.88 410.88 0 0 1 187.306667 226.773333 311.04 311.04 0 0 1 21.333333 141.013333 67.84 67.84 0 0 1-67.626667 59.52l-676.693333 2.133334A66.133333 66.133333 0 0 1 106.666667 960v-27.306667a389.546667 389.546667 0 0 1 205.226666-343.466666zM512 137.6a244.48 244.48 0 0 0-248.106667 242.346667A244.48 244.48 0 0 0 512 622.08a244.48 244.48 0 0 0 248.106667-242.133333A244.48 244.48 0 0 0 512 137.6zM151.04 954.666667a21.333333 21.333333 0 0 0 22.613333 19.84h672.213334a26.24 26.24 0 0 0 24.746666-21.333334A316.586667 316.586667 0 0 0 853.333333 832a380.16 380.16 0 0 0-182.613333-211.413333 248.746667 248.746667 0 0 1-33.92 17.706666 220.16 220.16 0 0 1-40.533333 15.36 172.586667 172.586667 0 0 1-36.053334 8.746667 13.866667 13.866667 0 0 0-8.96 2.133333 211.2 211.2 0 0 1-38.4 2.133334 284.373333 284.373333 0 0 1-45.866666-5.333334h-4.48a241.066667 241.066667 0 0 1-38.4-8.746666 302.506667 302.506667 0 0 1-76.8-33.92 347.733333 347.733333 0 0 0-196.266667 312.746666z m0 0" fill="" p-id="1996"></path></svg>