<?xml version="1.0" standalone="no"?><!DOCTYPE svg PUBLIC "-//W3C//DTD SVG 1.1//EN" "http://www.w3.org/Graphics/SVG/1.1/DTD/svg11.dtd"><svg t="1540966513151" class="icon" style="" viewBox="0 0 1024 1024" version="1.1" xmlns="http://www.w3.org/2000/svg" p-id="11148" xmlns:xlink="http://www.w3.org/1999/xlink" width="200" height="200"><defs><style type="text/css"></style></defs><path d="M512.032 991.424c-264.352 0-479.424-215.104-479.424-479.392 0-264.352 215.072-479.424 479.424-479.424 264.32 0 479.328 215.072 479.328 479.424s-215.008 479.392-479.328 479.392z m0-917.12c-241.376 0-437.728 196.352-437.728 437.728 0 241.344 196.352 437.728 437.728 437.728 241.312 0 437.728-196.384 437.728-437.728 0-241.408-196.416-437.728-437.728-437.728z" p-id="11149"></path><path d="M685.696 603.072a17.088 17.088 0 0 1-16.608-13.184c-16.992-69.664-50.848-154.624-67.104-195.424a539.968 539.968 0 0 1-6.144-15.616 17.152 17.152 0 0 1 31.872-12.544l6.016 15.456c16.608 41.6 51.008 128.032 68.576 200.192a17.216 17.216 0 0 1-16.608 21.12zM506.336 832c-24.352 0-66.272-30.432-78.56-39.744-20.256-15.424-55.648-45.568-65.088-74.56-1.632-4.992-3.808-11.808 8.832-73.312 8.672-41.12 18.08-82.112 28.352-122.88a3016.512 3016.512 0 0 1 32.32-120.704c5.12-17.472 9.472-31.36 13.088-41.504 5.76-16.192 9.152-22.272 14.624-26.016a16.96 16.96 0 0 1 9.696-3.008h73.472a16.96 16.96 0 0 1 9.568 2.944c5.44 3.584 8.672 9.44 14.432 25.984 3.488 10.048 7.872 23.968 12.96 41.504 9.44 32.224 21.12 75.296 32.832 121.376 11.616 45.824 22.176 89.568 29.44 123.136 13.376 61.312 11.616 67.008 10.176 72.064-7.488 25.312-47.616 58.432-64.416 71.456-16.736 13.088-58.112 43.264-81.728 43.264z m-110.656-123.808c5.312 14.016 25.536 35.808 52.256 56.192 30.048 22.944 52.736 32.928 58.336 33.184 6.432-0.384 30.304-12.192 61.568-36.64 32.288-25.184 47.872-44.32 51.328-52.256-0.672-13.376-14.048-78.112-39.04-176.128-22.208-87.68-39.808-147.456-47.456-167.84h-52.864c-7.84 20-25.408 79.808-47.168 167.296-24.544 98.304-37.12 163.328-36.96 176.192z" p-id="11150"></path><path d="M506.432 366.912c-14.656 0-28.288-0.832-37.248-2.4-7.744-1.28-14.496-6.688-24.064-19.168a324.128 324.128 0 0 1-20.576-30.784c-16-26.816-29.024-54.304-34.688-73.44-3.648-12.512-7.264-30.368 4.48-41.248 5.184-4.864 14.816-10.304 45.728-13.92a600.864 600.864 0 0 1 64.928-3.264c24.064 0 47.328 1.216 65.664 3.264 31.392 3.712 40.608 9.088 45.856 14.528 11.744 12 7.36 31.488 2.304 47.264-6.304 19.552-18.752 45.888-33.28 70.272-6.784 11.328-13.28 21.12-19.008 28.448-8.928 11.52-15.712 16.672-23.168 17.984-12.224 1.728-24.576 2.56-36.928 2.464z m-28.512-35.904c7.232 0.928 17.536 1.472 28.544 1.472 10.88 0 21.152-0.544 28.352-1.472 5.76-5.696 19.488-25.44 33.216-51.936 14.496-27.84 20.48-46.56 21.6-54.912-11.072-3.328-40.512-7.136-84.512-7.136-43.552 0-72.8 3.808-84.192 7.136 1.504 8.64 8.064 27.264 22.784 54.752 15.52 28.96 28.992 47.04 34.208 52.096z" p-id="11151"></path></svg>