<?xml version="1.0" standalone="no"?><!DOCTYPE svg PUBLIC "-//W3C//DTD SVG 1.1//EN" "http://www.w3.org/Graphics/SVG/1.1/DTD/svg11.dtd"><svg t="1552282080224" class="icon" style="" viewBox="0 0 1024 1024" version="1.1" xmlns="http://www.w3.org/2000/svg" p-id="4958" xmlns:xlink="http://www.w3.org/1999/xlink" width="200" height="200"><defs><style type="text/css"></style></defs><path d="M638.722092 841.062844q-84.798994 27.631133-170.074387 20.008751t-159.117214-44.781491-130.533283-100.996555-84.322595-148.636439-20.008751-170.074387 44.781491-159.593612 101.472954-131.009682 149.112838-84.322595 170.074387-20.008751 159.117214 45.25789 130.533283 101.472954 84.322595 148.636439 20.008751 170.074387-44.781491 159.117214-101.472954 130.533283-149.112838 84.322595zM835.951213 320.835308q-22.867144-68.601433-68.601433-120.528907t-105.284144-81.940601-128.627688-36.206312-137.679266 16.67396-120.528907 68.601433-81.940601 105.284144-36.682711 128.627688 16.197561 137.679266 68.601433 120.528907 105.760543 81.940601 129.104086 36.206312 137.679266-16.67396 120.528907-68.601433 81.940601-105.284144 36.206312-128.627688-16.67396-137.679266zM602.51578 730.538313q-61.93185 20.008751-123.863699 14.768364t-116.241318-32.395121-95.756167-73.841821-61.455451-108.618936-14.768364-124.340098 32.395121-116.717717 74.31822-95.756167 109.095335-61.455451 123.863699-14.291965 116.241318 32.87152 95.756167 73.841821 61.455451 108.618936 14.768364 124.340098-32.395121 116.241318-74.31822 95.279769-109.095335 61.455451zM504.377619 373.23918q-24.77274 0-41.446699 16.67396t-16.67396 41.446699 16.67396 41.923098 41.446699 17.150358 41.923098-17.150358 17.150358-41.923098-17.150358-41.446699-41.923098-16.67396zM283.328555 277.959412l135.297271 78.12941q4.763988-2.858393 9.527977-6.669584 4.763988-2.858393 9.051578-6.669584t9.051578-6.669584q11.433572-6.669584 21.914347-9.527977 5.716786-1.905595 11.433572-2.858393l0-156.258821q-16.197561 0.952798-33.347919 4.763988-15.244763 3.811191-34.300717 10.004376t-40.970301 18.579555q-24.77274 14.291965-41.446699 28.107532t-27.154734 24.296341q-11.433572 12.38637-19.055954 24.77274zM259.508613 543.789966l136.250069-78.12941q-1.905595-5.716786-2.858393-11.433572-0.952798-4.763988-1.429197-10.480775t-0.476399-11.433572q0-13.339168 2.858393-23.819942 0.952798-5.716786 2.858393-11.433572l-134.344474-78.12941q-6.669584 13.339168-12.38637 30.489526-4.763988 14.291965-9.051578 34.777116t-4.28759 45.25789q-0.952798 28.583931 2.858393 50.021879t8.575179 35.729913q4.763988 17.150358 11.433572 28.583931zM478.652081 697.190394l0.952798-157.211618q-5.716786-0.952798-11.433572-3.811191-10.480775-2.858393-20.008751-9.527977-5.716786-2.858393-10.480775-6.669584t-8.575179-7.622381-8.575179-7.622381l-134.344474 77.176613q8.575179 13.339168 20.008751 26.678335 10.480775 11.433572 25.725538 24.77274t37.15911 26.678335q23.819942 14.291965 44.305092 21.914347t34.777116 11.433572q17.150358 3.811191 30.489526 3.811191zM724.473884 586.665862l-135.297271-78.12941q-4.763988 3.811191-8.575179 7.622381-3.811191 2.858393-8.575179 6.193185t-9.527977 6.193185q-5.716786 3.811191-11.909971 5.716786t-10.957173 3.811191q-5.716786 1.905595-10.480775 2.858393l0 156.258821q15.244763-0.952798 32.395121-4.763988 15.244763-2.858393 34.777116-9.527977t41.446699-19.055954q24.77274-13.339168 40.970301-27.154734t26.678335-25.249139q11.433572-12.38637 19.055954-24.77274zM748.293826 318.929712l-135.297271 78.12941 1.905595 11.433572q0.952798 4.763988 1.429197 10.957173t0.476399 10.957173q0 6.669584-0.952798 13.339168t-1.905595 11.433572q-1.905595 5.716786-2.858393 11.433572l134.344474 77.176613q6.669584-13.339168 12.38637-30.489526 4.763988-14.291965 9.051578-34.777116t4.28759-45.25789q0-27.631133-3.334792-49.54548t-8.09878-36.206312q-4.763988-17.150358-11.433572-28.583931zM530.103156 165.529285l0 157.211618 11.433572 3.811191q4.763988 1.905595 10.004376 4.28759t10.004376 5.240387q4.763988 3.811191 10.004376 7.145983t9.051578 7.145983l8.575179 8.575179 134.344474-78.12941q-8.575179-12.38637-20.008751-25.725538-10.480775-11.433572-25.725538-25.249139t-37.15911-27.154734q-24.77274-14.291965-45.25789-21.437948t-34.777116-10.957173q-17.150358-3.811191-30.489526-4.763988z" p-id="4959"></path></svg>