<?xml version="1.0" standalone="no"?><!DOCTYPE svg PUBLIC "-//W3C//DTD SVG 1.1//EN" "http://www.w3.org/Graphics/SVG/1.1/DTD/svg11.dtd"><svg class="icon" width="200px" height="200.00px" viewBox="0 0 1024 1024" version="1.1" xmlns="http://www.w3.org/2000/svg"><path  d="M520.057 617.736l44.991 45.656-28.887 30.046s-21.103 23.115 6.389 52.586l226.35 234.03s21.66 20.227 45.547 2.888l113.315-114.417s19.996-27.732-6.672-53.16L696.694 584.226s-24.444-24.849-51.658-3.467l-29.438 31.2-47.21-48.54-48.331 54.316zM488.95 483.1L246.22 234.045v-76.858L102.914 68.775 32 140.428l86.468 143.313 76.092 0.573 239.4 245.015 54.99-46.23v0.001zM97.36 902.045s0-38.14 38.324-38.14c0 0 34.439 1.158 35.549 38.14 0 0-1.11 34.668-36.936 36.981l-31.937 32.94s46.659 45.075 99.426 0l432.692-482.504s47.216 32.931 118.314 32.356c0 0 86.84 3.468 154.97-58.171 0 0 132.943-108.445 64.808-278.14l-154.792 155.63-131.091-134.832 154.79-154.093S742.982-7.886 609.673 79.18c0 0-68.88 50.077-89.62 140.224 0 0-31.099 107.095 38.518 203.407L71.994 838.1s-30.363 30.814-15.553 76.271l40.919-12.325z m0 0s2.958 36.213 36.939 36.981l-31.938 32.94s-42-37.515-45.914-57.596l40.915-12.325h-0.002z" /></svg>