<?xml version="1.0" standalone="no"?><!DOCTYPE svg PUBLIC "-//W3C//DTD SVG 1.1//EN" "http://www.w3.org/Graphics/SVG/1.1/DTD/svg11.dtd"><svg t="1540967396708" class="icon" style="" viewBox="0 0 1024 1024" version="1.1" xmlns="http://www.w3.org/2000/svg" p-id="6145" xmlns:xlink="http://www.w3.org/1999/xlink" width="200" height="200"><defs><style type="text/css"></style></defs><path d="M44.775424 888.49408V77.2608c0-21.342208 17.287168-38.631424 38.629376-38.631424H817.37728c21.342208 0 38.631424 17.287168 38.631424 38.631424v482.87744h38.629376V77.2608C894.63808 34.594816 860.043264 0 817.37728 0H83.4048C40.738816 0 6.144 34.594816 6.144 77.2608v811.23328c0 42.668032 34.592768 77.2608 77.2608 77.2608h482.87744v-38.631424H83.4048c-21.344256 0.002048-38.629376-17.28512-38.629376-38.629376z m753.287168-289.724416c-117.34016 0-212.467712 95.127552-212.467712 212.465664s95.127552 212.465664 212.467712 212.465664 212.465664-95.127552 212.465664-212.465664-95.125504-212.465664-212.465664-212.465664z m144.30208 143.163392l-163.887104 163.887104-0.17408-0.19456-0.038912 0.038912-109.266944-109.266944c-7.550976-7.553024-7.550976-19.777536 0-27.312128 7.553024-7.550976 19.779584-7.550976 27.312128 0l82.126848 82.128896 136.615936-136.615936c7.550976-7.553024 19.777536-7.553024 27.31008 0 7.53664 7.555072 7.555072 19.781632 0.002048 27.334656zM604.911616 193.150976l-154.5216 188.862464-154.5216-188.862464h-38.631424l173.836288 212.465664h-154.5216c-10.661888 0-19.316736 8.6528-19.316736 19.316736 0 10.661888 8.654848 19.314688 19.316736 19.314688h154.5216v115.890176h-154.5216c-10.661888 0-19.316736 8.6528-19.316736 19.314688 0 10.661888 8.654848 19.314688 19.316736 19.314688h154.5216v193.150976c0 10.661888 8.6528 19.314688 19.314688 19.314688 10.661888 0 19.314688-8.6528 19.314688-19.314688v-193.150976h154.5216c10.661888 0 19.314688-8.6528 19.314688-19.314688 0-10.661888-8.6528-19.314688-19.314688-19.314688h-154.5216v-115.890176h154.5216c10.661888 0 19.314688-8.6528 19.314688-19.314688 0-10.663936-8.6528-19.316736-19.314688-19.316736h-154.5216L643.54304 193.150976h-38.631424z" p-id="6146"></path></svg>