<?xml version="1.0" standalone="no"?><!DOCTYPE svg PUBLIC "-//W3C//DTD SVG 1.1//EN" "http://www.w3.org/Graphics/SVG/1.1/DTD/svg11.dtd"><svg t="1540967362489" class="icon" style="" viewBox="0 0 1024 1024" version="1.1" xmlns="http://www.w3.org/2000/svg" p-id="6033" xmlns:xlink="http://www.w3.org/1999/xlink" width="200" height="200"><defs><style type="text/css"></style></defs><path d="M243.712 118.784c-18.944 0-36.352 8.192-48.64 22.016s-18.944 31.232-17.92 49.664l43.52 542.72c2.048 25.088 17.92 45.568 39.424 55.296l224.768 111.104 2.048 1.024c8.192 3.072 16.384 5.12 26.112 5.12 9.216 0 18.944-2.048 27.136-5.12l224.768-111.104c22.016-10.24 37.376-31.232 38.4-55.296l43.52-542.72c1.024-17.92-5.12-36.352-17.92-49.664-12.288-13.312-30.208-22.016-48.64-22.016H243.712v-1.024z m550.912 66.048l-43.52 542.72c0 5.12-4.096 9.216-8.192 11.264L518.144 849.92c-3.072 1.024-7.168 1.024-11.264 0L283.648 738.816l-2.048-1.024c-5.12-2.048-8.192-6.144-9.216-11.264l-43.008-541.696c0-5.12 2.048-8.192 3.072-10.24 2.048-2.048 5.12-5.12 11.264-5.12h536.576c6.144 0 9.216 3.072 11.264 5.12 1.024 2.048 4.096 5.12 3.072 10.24z" p-id="6034"></path><path d="M713.728 229.888H513.024V504.32H302.08l13.312 163.328c1.024 11.264 8.192 20.992 18.944 25.088l168.448 82.944c4.096 1.024 7.168 2.048 11.264 2.048V504.32h210.944l19.968-242.176c0-16.896-13.824-32.256-31.232-32.256z" p-id="6035"></path></svg>