<?xml version="1.0" standalone="no"?><!DOCTYPE svg PUBLIC "-//W3C//DTD SVG 1.1//EN" "http://www.w3.org/Graphics/SVG/1.1/DTD/svg11.dtd"><svg class="icon" width="200px" height="200.00px" viewBox="0 0 1024 1024" version="1.1" xmlns="http://www.w3.org/2000/svg"><path  d="M413.518035 609.218182v-38.264489c0-2.27174-1.883907-4.134157-4.166903-4.134157H345.144808c-2.282996 0-4.145413 1.862417-4.145414 4.134157v38.264489c0 2.27174 1.862417 4.155646 4.145414 4.155647h64.206324c2.282996 0 4.166903-1.883907 4.166903-4.155647zM451.216635 591.07701h121.231085v23.271006h-121.231085zM363.529527 650.929166h-45.556569a4.301979 4.301979 0 0 0-4.298909 4.288676v20.799722a4.304026 4.304026 0 0 0 4.298909 4.298909h45.556569a4.300956 4.300956 0 0 0 4.288676-4.298909v-20.799722a4.299933 4.299933 0 0 0-4.288676-4.288676zM359.462908 502.414691h304.763099c8.089235 0 14.70491-6.605442 14.70491-14.70491v-88.363514c0-8.089235-6.615675-14.694677-14.70491-14.694677H359.461885c-8.101515 0-14.716166 6.605442-14.716167 14.694677v88.363514c0.001023 8.099469 6.615675 14.70491 14.71719 14.70491zM451.216635 541.875424h121.231085v23.283286h-121.231085zM286.61374 492.286006h19.923772l0.044002-93.749174h-19.967774zM512 0.440022c-282.526655 0-511.559978 229.033323-511.559978 511.559978s229.033323 511.559978 511.559978 511.559978 511.559978-229.033323 511.559978-511.559978S794.526655 0.440022 512 0.440022z m275.087219 496.433466c0 10.293437-8.389064 18.683525-18.673292 18.683524H716.963115l-0.022513 109.817128h5.929036c11.302417 0 20.544919 9.218966 20.544919 20.534686v42.275849c0 11.292184-9.241478 20.543895-20.544919 20.543895h-1.50733v61.292971c0 7.889691-6.427386 14.317077-14.3181 14.317077h-43.017746c-7.889691 0-14.32731-6.427386-14.32731-14.317077v-42.973743H379.941312v42.973743c0 7.889691-6.438643 14.317077-14.317077 14.317077h-43.041282c-7.868201 0-14.3181-6.427386-14.318101-14.317077v-61.292971h-7.458878c-11.291161 0-20.544919-9.251711-20.544919-20.543895v-42.275849c0-11.314697 9.252735-20.534685 20.544919-20.534686h5.929036l-0.066515-109.817128h-51.096749c-10.29446 0-18.661012-8.389064-18.661011-18.683524V393.914558c0-10.293437 8.366551-18.661012 18.661011-18.661012h50.986232l-0.078795-92.6307c0-23.626094 19.338441-42.962487 42.974767-42.962488h324.577377c23.62507 0 42.973744 19.336394 42.973744 42.962488l-0.022513 92.6307h51.428299c10.284227 0 18.673292 8.366551 18.673292 18.661012v102.95893zM716.963115 492.286006h20.423145v-93.749174h-20.401656zM397.206534 676.991752H626.460892v-23.271007H397.206534zM705.692421 650.929166h-45.566802a4.298909 4.298909 0 0 0-4.288676 4.288676v20.799722a4.301979 4.301979 0 0 0 4.288676 4.298909h45.566802c2.349511 0 4.287653-1.927909 4.287653-4.298909v-20.799722c0.001023-2.359744-1.938142-4.288676-4.287653-4.288676zM682.688497 609.218182v-38.264489c0-2.27174-1.88493-4.134157-4.166903-4.134157H614.31527c-2.282996 0-4.145413 1.862417-4.145413 4.134157v38.264489c0 2.27174 1.862417 4.155646 4.145413 4.155647h64.206324c2.281973 0 4.166903-1.883907 4.166903-4.155647z" /></svg>