<?xml version="1.0" standalone="no"?><!DOCTYPE svg PUBLIC "-//W3C//DTD SVG 1.1//EN" "http://www.w3.org/Graphics/SVG/1.1/DTD/svg11.dtd"><svg class="icon" width="200px" height="200.00px" viewBox="0 0 1024 1024" version="1.1" xmlns="http://www.w3.org/2000/svg"><path  d="M989.312632 263.768525h-95.390261V91.776994c0-44.081863-36.132675-79.491884-79.491884-79.491885H212.460127c-44.081863 0-79.491884 36.132675-79.491884 79.491885v171.991531H38.300635c-18.788991 0-34.687368 15.175723-34.687368 34.687368v190.780522c0 18.788991 15.175723 34.687368 34.687368 34.687368h94.667608v203.788285h-10.839803c-20.956951 0-38.300635 17.343684-38.300635 38.300635v78.046577c0 20.956951 17.343684 38.300635 38.300635 38.300635h13.730417v113.456599c0 14.45307 12.285109 26.738179 26.738179 26.738179h79.491884c14.45307 0 26.738179-11.562456 26.73818-26.738179v-79.491885h500.076217v79.491885c0 14.45307 12.285109 26.738179 26.738179 26.738179h79.491884c14.45307 0 26.738179-11.562456 26.73818-26.738179v-113.456599h2.890614c20.956951 0 38.300635-17.343684 38.300635-38.300635V766.012703c0-20.956951-17.343684-38.300635-38.300635-38.300635h-10.839803V523.923783h95.390261c18.788991 0 34.687368-15.898377 34.687368-34.687368V298.455893c0-19.511644-15.175723-34.687368-34.687368-34.687368z m-856.344389 216.796048h-36.855328v-173.436838h36.855328v173.436838z m70.820042-171.991531c0-15.175723 12.285109-27.460833 27.460833-27.460833h565.115032c15.175723 0 27.460833 12.285109 27.460832 27.460833v164.042343c0 15.175723-12.285109 27.460833-27.460832 27.460832H231.249118c-15.175723 0-27.460833-12.285109-27.460833-27.460832V308.573042z m197.284404 307.127734v-43.359209h224.745236v43.359209H401.072689z m224.745236 48.417784v43.35921H401.072689v-43.35921h224.745236z m-379.393084 157.538462c0 4.335921-3.613267 7.949188-7.949188 7.949188H153.925194c-4.335921 0-7.949188-3.613267-7.949188-7.949188v-38.300635c0-4.335921 3.613267-7.949188 7.949188-7.949189H238.475653c4.335921 0 7.949188 3.613267 7.949188 7.949189v38.300635z m-41.913902-116.347213c-4.335921 0-7.949188-3.613267-7.949189-7.949188v-70.820042c0-4.335921 3.613267-7.949188 7.949189-7.949189h119.237826c4.335921 0 7.949188 3.613267 7.949188 7.949189v70.820042c0 4.335921-3.613267 7.949188-7.949188 7.949188H204.510939z m521.755822 117.79252H301.346507v-43.35921h424.920254v43.35921z m-22.402259-117.79252c-4.335921 0-7.949188-3.613267-7.949188-7.949188v-70.820042c0-4.335921 3.613267-7.949188 7.949188-7.949189h119.237827c4.335921 0 7.949188 3.613267 7.949188 7.949189v70.820042c0 4.335921-3.613267 7.949188-7.949188 7.949188H703.864502z m177.050106 116.347213c0 4.335921-3.613267 7.949188-7.949188 7.949188h-84.550459c-4.335921 0-7.949188-3.613267-7.949188-7.949188v-38.300635c0-4.335921 3.613267-7.949188 7.949188-7.949189h84.550459c4.335921 0 7.949188 3.613267 7.949188 7.949189v38.300635z m51.308398-341.092449h-37.577981V306.405081h37.577981v174.159492z" /></svg>