<?xml version="1.0" standalone="no"?><!DOCTYPE svg PUBLIC "-//W3C//DTD SVG 1.1//EN" "http://www.w3.org/Graphics/SVG/1.1/DTD/svg11.dtd"><svg t="1540968181851" class="icon" style="" viewBox="0 0 1024 1024" version="1.1" xmlns="http://www.w3.org/2000/svg" p-id="7503" xmlns:xlink="http://www.w3.org/1999/xlink" width="200" height="200"><defs><style type="text/css"></style></defs><path d="M298.339246 733.189331a214.22459 214.22459 0 0 0 43.002436-26.620556 45.837762 45.837762 0 0 0 17.011953-36.386676 77.18386 77.18386 0 0 0 0-19.059688 276.916787 276.916787 0 0 0-39.537039-21.895013l-45.837761-21.264941a245.728207 245.728207 0 0 1-34.023906-21.264941 31.503616 31.503616 0 0 1-14.334145-26.620556 89.155234 89.155234 0 0 1 13.546555-49.618196l28.66829-44.105062a478.067376 478.067376 0 0 1-26.620555-86.477427 637.475674 637.475674 0 0 1-10.868748-126.014465 631.332469 631.332469 0 0 1 6.930796-87.737571 118.768633 118.768633 0 0 0-61.432052-13.704073 78.759041 78.759041 0 0 0-47.255424 15.751808 114.673163 114.673163 0 0 0-33.551352 41.112219 230.133917 230.133917 0 0 0-19.68976 59.856871 353.78561 353.78561 0 0 0-6.930795 70.5681A238.482375 238.482375 0 0 0 78.759041 422.721193a336.143585 336.143585 0 0 0 27.09311 56.233955l27.250628 42.529882a73.245908 73.245908 0 0 1 12.28641 40.954701 42.844918 42.844918 0 0 1-22.525086 36.386677 456.802435 456.802435 0 0 1-49.775713 26.463037 428.291663 428.291663 0 0 0-49.933232 28.983327A45.837762 45.837762 0 0 0 0 692.23463a88.997716 88.997716 0 0 0 10.868748 41.742291 112.940464 112.940464 0 0 0 31.503616 37.174268 180.043167 180.043167 0 0 0 52.611039 26.620555 234.229387 234.229387 0 0 0 72.930871 9.766121h19.217206a194.53483 194.53483 0 0 1 55.288847-47.255424z m470.979062 97.188656a447.036314 447.036314 0 0 0-63.007232-33.393833A649.132012 649.132012 0 0 1 645.824133 764.220393a252.02893 252.02893 0 0 1-47.255425-35.599086 57.809136 57.809136 0 0 1-21.107423-44.892653 170.592082 170.592082 0 0 1 9.608603-57.809136A292.668595 292.668595 0 0 1 614.320516 577.561467l31.503617-51.350895a467.671183 467.671183 0 0 0 30.716025-60.801979 443.25588 443.25588 0 0 0 23.942749-79.704149 529.418271 529.418271 0 0 0 9.451085-109.317548 879.738483 879.738483 0 0 0-5.355615-95.613475 238.639893 238.639893 0 0 0-27.408146-89.627789 169.489455 169.489455 0 0 0-68.205329-66.787666A228.873772 228.873772 0 0 0 490.03875 0.572736a139.876056 139.876056 0 0 0-131.055043 75.923715 430.18188 430.18188 0 0 0-42.214846 207.293795 499.647353 499.647353 0 0 0 9.451085 106.167186 493.976702 493.976702 0 0 0 24.572821 81.27933 421.990939 421.990939 0 0 0 31.503616 60.801979l31.503616 52.296003a428.291663 428.291663 0 0 1 24.572821 47.255425 128.0622 128.0622 0 0 1 9.451085 51.66593 63.007232 63.007232 0 0 1-19.059688 47.255425 215.957289 215.957289 0 0 1-47.255425 35.756604 588.330033 588.330033 0 0 1-62.219642 31.503616 542.492271 542.492271 0 0 0-62.062124 32.606243 203.198325 203.198325 0 0 0-47.255424 39.37952 76.081233 76.081233 0 0 0-19.217206 51.665931 52.926075 52.926075 0 0 0 19.847278 37.174267 174.372516 174.372516 0 0 0 57.966654 33.393833 473.499352 473.499352 0 0 0 94.510849 23.627712 901.633496 901.633496 0 0 0 130.267453 8.348459 932.50704 932.50704 0 0 0 126.014465-8.348459 631.647505 631.647505 0 0 0 108.529958-24.415302 337.40373 337.40373 0 0 0 75.766197-33.393833c19.059688-12.128892 28.668291-25.045375 28.668291-37.961858a73.560944 73.560944 0 0 0-19.217206-51.508412 219.265169 219.265169 0 0 0-45.050171-37.961858zM1012.211189 663.251303a135.46555 135.46555 0 0 0-29.298363-21.895013A332.993223 332.993223 0 0 0 945.108487 622.296602a409.547011 409.547011 0 0 1-38.59193-17.326989 146.491815 146.491815 0 0 1-29.455881-19.847278A31.503616 31.503616 0 0 1 866.349446 560.86455a74.191016 74.191016 0 0 1 14.964218-47.255424L913.604871 470.449172a270.458545 270.458545 0 0 0 32.76376-55.446365A208.081385 208.081385 0 0 0 960.860295 329.312971a385.919299 385.919299 0 0 0-5.355615-57.021545 182.24842 182.24842 0 0 0-19.217206-58.439208 123.809212 123.809212 0 0 0-43.632508-44.735135A142.711381 142.711381 0 0 0 819.094022 152.420166a80.334221 80.334221 0 0 0-48.515569 21.264941 112.152874 112.152874 0 0 0 3.465398 33.393833v32.606243a722.37792 722.37792 0 0 1-10.868748 132.94526 537.609211 537.609211 0 0 1-27.408146 97.031138c11.813856 18.272097 22.99764 34.181424 33.551351 47.255425a71.828245 71.828245 0 0 1 15.751808 44.735135 42.057328 42.057328 0 0 1-21.264941 35.756604 370.167491 370.167491 0 0 1-47.255424 25.832965 353.470574 353.470574 0 0 0-48.358051 26.620556 53.241111 53.241111 0 0 0-26.620556 33.866388 48.830605 48.830605 0 0 0 25.360411 35.599086 304.955005 304.955005 0 0 0 49.775714 22.052531l62.062124 22.052532a240.215074 240.215074 0 0 1 61.432052 34.811496 370.325009 370.325009 0 0 0 68.362847-8.348459 214.382108 214.382108 0 0 0 58.596726-20.47735 126.014465 126.014465 0 0 0 40.954701-33.236315 73.560944 73.560944 0 0 0 15.751808-43.947545 41.112219 41.112219 0 0 0-11.656338-28.983327z" p-id="7504"></path></svg>