<?xml version="1.0" standalone="no"?><!DOCTYPE svg PUBLIC "-//W3C//DTD SVG 1.1//EN" "http://www.w3.org/Graphics/SVG/1.1/DTD/svg11.dtd"><svg class="icon" width="200px" height="200.00px" viewBox="0 0 1024 1024" version="1.1" xmlns="http://www.w3.org/2000/svg"><path  d="M786.49344 890.16832q-5.12 37.45792-14.40256 45.66528-5.1456 4.096-26.23488 9.216t-51.44064 9.7536q-30.34112 4.608-66.8672 8.704T553.472 970.752q-37.5552 3.072-73.04192 5.12c-22.9632 1.32608-43.12064 1.9968-60.5952 2.048s-37.48352-0.70656-60.35456-2.048q-35.3536-2.048-72.76032-5.12t-73.7792-7.168q-36.3776-4.096-66.6112-8.704t-51.23584-9.7536q-20.992-5.12-26.112-9.216-9.216-8.192-14.336-45.66528t3.072-98.00704q5.12-33.8688 27.136-51.82464A167.65952 167.65952 0 0 1 136.6016 712.192q29.696-10.24 61.99808-18.98496a209.69472 209.69472 0 0 0 56.87296-24.1152 158.17728 158.17728 0 0 0 29.696-23.0912 64.21504 64.21504 0 0 0 14.336-22.0672 68.608 68.608 0 0 0 4.096-23.6032q0-12.288-1.024-26.68032a51.97824 51.97824 0 0 0-14.848-33.8688q-12.8-12.288-27.136-24.6272a51.07712 51.07712 0 0 1-14.336-18.47296 224.8448 224.8448 0 0 1-10.24-23.6032 170.63424 170.63424 0 0 1-8.192-29.76256 47.24736 47.24736 0 0 1-13.312-6.144 68.52096 68.52096 0 0 1-11.264-12.3136 83.51744 83.51744 0 0 1-11.264-24.63232 66.60096 66.60096 0 0 1-3.584-28.73344 77.824 77.824 0 0 1 5.632-22.5792 60.83584 60.83584 0 0 1 11.264-19.49696 597.66272 597.66272 0 0 1 4.096-69.7856 567.3472 567.3472 0 0 1 12.8-63.62624 175.97952 175.97952 0 0 1 28.16-60.54912 203.85792 203.85792 0 0 1 39.43936-42.1632 184.06912 184.06912 0 0 1 43.55072-25.65632 203.0592 203.0592 0 0 1 45.09696-12.8512A275.26144 275.26144 0 0 1 419.84 51.2512a277.39648 277.39648 0 0 1 41.55904 3.5584 204.4672 204.4672 0 0 1 45.26592 12.8256 184.9856 184.9856 0 0 1 43.7248 25.65632 204.16512 204.16512 0 0 1 39.60832 42.07616 175.616 175.616 0 0 1 28.288 60.54912 565.14048 565.14048 0 0 1 12.86144 63.62624 595.12832 595.12832 0 0 1 4.096 69.7856 60.76416 60.76416 0 0 1 11.3152 19.49696 77.568 77.568 0 0 1 5.6576 22.5792 66.34496 66.34496 0 0 1-3.584 28.73344 83.49184 83.49184 0 0 1-11.3152 24.63232 68.63872 68.63872 0 0 1-11.32032 12.3136 47.44704 47.44704 0 0 1-13.37344 6.144 169.64608 169.64608 0 0 1-8.22784 29.76256 225.37216 225.37216 0 0 1-10.28608 23.6032 51.16928 51.16928 0 0 1-14.40256 18.47296q-14.40768 12.288-27.264 24.6272a51.87584 51.87584 0 0 0-14.91968 33.8688q-1.024 14.37184-1.024 26.68032a68.34688 68.34688 0 0 0 4.096 23.6032 64.24576 64.24576 0 0 0 14.40256 22.0672 158.7968 158.7968 0 0 0 29.83424 23.0912 210.944 210.944 0 0 0 57.09824 24.1152q32.39936 8.704 62.23872 18.98496a168.4992 168.4992 0 0 1 51.95264 28.22144q22.1184 17.95584 27.264 51.82464 8.25344 60.55936 3.10784 98.01728z m-64.83456-450.31424c-17.69984 0-31.67744-9.30816-31.67744-27.9296S703.95904 384 721.65888 384h224.57344c17.70496 0 30.75072 9.30816 30.75072 27.92448s-14.90944 27.9296-32.6144 27.9296h-222.72z m47.52384 127.53408c-17.70496 0-31.68256-9.30816-31.68256-27.92448s13.9776-27.9296 31.68256-27.9296h177.98144c17.70496 0 29.81888 9.30816 29.81888 27.9296s-13.04576 27.92448-30.75072 27.92448h-177.0496z m58.72128 121.02144c-17.70496 0-31.68256-9.31328-31.68256-27.9296s13.9776-27.9296 31.68256-27.9296H947.2c17.70496 0 30.75072 9.31328 30.75072 27.9296s-13.9776 27.9296-31.68256 27.9296H827.904z"  /></svg>