<?xml version="1.0" standalone="no"?><!DOCTYPE svg PUBLIC "-//W3C//DTD SVG 1.1//EN" "http://www.w3.org/Graphics/SVG/1.1/DTD/svg11.dtd"><svg class="icon" width="200px" height="200.00px" viewBox="0 0 1024 1024" version="1.1" xmlns="http://www.w3.org/2000/svg"><path  d="M868 125.6 777.6 125.6l0 67.2 67.2 0c12 0 44.8 32.8 44.8 44.8L889.6 328 125.6 328 125.6 237.6c0-12 32.8-44.8 44.8-44.8l67.2 0 0-67.2L148 125.6c-35.2 0-88 27.2-89.6 89.6l0 652.8c0 35.2 27.2 99.2 89.6 89.6l720 0c35.2 0 89.6-30.4 89.6-89.6L957.6 215.2C957.6 180 946.4 126.4 868 125.6zM890.4 844.8c0 12-32.8 44.8-44.8 44.8L170.4 889.6c-12 0-44.8-32.8-44.8-44.8l-3.2-454.4 771.2 0L890.4 844.8zM620.8 124.8 395.2 124.8l0 68 224.8 0L620 124.8zM316.8 260c18.4 0 33.6-15.2 33.6-33.6L350.4 91.2c0-18.4-15.2-33.6-33.6-33.6-18.4 0-33.6 15.2-33.6 33.6l0 135.2C283.2 244.8 298.4 260 316.8 260zM270.4 800l64.8 0c17.6 0 32.8-14.4 32.8-31.2l0 0c0-17.6-14.4-31.2-32.8-31.2l-64.8 0c-17.6 0-32.8 14.4-32.8 31.2l0 0C238.4 786.4 252.8 800 270.4 800zM487.2 800 552 800c17.6 0 32.8-14.4 32.8-31.2l0 0c0-17.6-14.4-31.2-32.8-31.2l-64.8 0c-17.6 0-32.8 14.4-32.8 31.2l0 0C454.4 786.4 468.8 800 487.2 800zM703.2 800 768 800c17.6 0 32.8-14.4 32.8-31.2l0 0c0-17.6-14.4-31.2-32.8-31.2l-64.8 0c-17.6 0-32.8 14.4-32.8 31.2l0 0C670.4 786.4 684.8 800 703.2 800zM270.4 674.4l64.8 0c17.6 0 32.8-14.4 32.8-31.2l0 0c0-17.6-14.4-31.2-32.8-31.2l-64.8 0c-17.6 0-32.8 14.4-32.8 31.2l0 0C238.4 660 252.8 674.4 270.4 674.4zM487.2 674.4 552 674.4c17.6 0 32.8-14.4 32.8-31.2l0 0c0-17.6-14.4-31.2-32.8-31.2l-64.8 0c-17.6 0-32.8 14.4-32.8 31.2l0 0C454.4 660 468.8 674.4 487.2 674.4zM703.2 674.4 768 674.4c17.6 0 32.8-14.4 32.8-31.2l0 0c0-17.6-14.4-31.2-32.8-31.2l-64.8 0c-17.6 0-32.8 14.4-32.8 31.2l0 0C670.4 660 684.8 674.4 703.2 674.4zM270.4 548l64.8 0c17.6 0 32.8-14.4 32.8-31.2l0 0c0-17.6-14.4-31.2-32.8-31.2l-64.8 0c-17.6 0-32.8 14.4-32.8 31.2l0 0C238.4 533.6 252.8 548 270.4 548zM487.2 548 552 548c17.6 0 32.8-14.4 32.8-31.2l0 0c0-17.6-14.4-31.2-32.8-31.2l-64.8 0c-17.6 0-32.8 14.4-32.8 31.2l0 0C454.4 533.6 468.8 548 487.2 548zM703.2 548 768 548c17.6 0 32.8-14.4 32.8-31.2l0 0c0-17.6-14.4-31.2-32.8-31.2l-64.8 0c-17.6 0-32.8 14.4-32.8 31.2l0 0C670.4 533.6 684.8 548 703.2 548zM699.2 260c18.4 0 33.6-15.2 33.6-33.6L732.8 91.2c0-18.4-15.2-33.6-33.6-33.6-18.4 0-33.6 15.2-33.6 33.6l0 135.2C664.8 244.8 680.8 260 699.2 260z" /></svg>