<?xml version="1.0" standalone="no"?><!DOCTYPE svg PUBLIC "-//W3C//DTD SVG 1.1//EN" "http://www.w3.org/Graphics/SVG/1.1/DTD/svg11.dtd"><svg t="1552283992821" class="icon" style="" viewBox="0 0 1024 1024" version="1.1" xmlns="http://www.w3.org/2000/svg" p-id="19924" xmlns:xlink="http://www.w3.org/1999/xlink" width="200" height="200"><defs><style type="text/css"></style></defs><path d="M220.336 947.328C134.128 947.328 64 876.432 64 789.312V273.344c0-87.136 70.128-158.016 156.336-158.016H803.68c86.192 0 156.32 70.88 156.32 158.016v311.984h64V273.344c0-122.416-98.832-222.016-220.32-222.016H220.336C98.848 51.328 0 150.928 0 273.344v515.968c0 122.416 98.848 222.016 220.336 222.016" p-id="19925"></path><path d="M473.328 697.328a29.984 29.984 0 0 1-30 30H262a29.984 29.984 0 1 1 0-59.984h181.344c16.56 0 29.984 13.424 29.984 29.984zM608 529.664A30.336 30.336 0 0 1 577.664 560H262.336a30.336 30.336 0 1 1 0-60.672h315.328c16.752 0 30.336 13.584 30.336 30.336z m154.672-164.992c0 16.576-13.44 30-30 30H262a29.984 29.984 0 1 1 0-60h470.672c16.56 0 30 13.424 30 30zM424 118.672a39.344 39.344 0 0 1-78.656 0V48A39.328 39.328 0 0 1 424 48v70.672z m241.344-0.016a39.344 39.344 0 0 1-78.672 0V48a39.36 39.36 0 0 1 78.672 0v70.656zM685.28 681.28l-300.64 330.08H1024L685.28 681.28z m-16 70.88c0-7.84 8.16-14.08 18.08-14.08s17.92 6.24 17.92 14.08V916c0 7.68-8 14.08-17.92 14.08s-18.08-6.384-18.08-14.08V752.16z m18.08 237.92c-13.28 0-24-10.72-24-24s10.72-24 24-24 24 10.72 24 24-10.72 24-24 24z" p-id="19926"></path></svg>