<?xml version="1.0" standalone="no"?><!DOCTYPE svg PUBLIC "-//W3C//DTD SVG 1.1//EN" "http://www.w3.org/Graphics/SVG/1.1/DTD/svg11.dtd"><svg t="1540966397495" class="icon" style="" viewBox="0 0 1024 1024" version="1.1" xmlns="http://www.w3.org/2000/svg" p-id="5779" xmlns:xlink="http://www.w3.org/1999/xlink" width="200" height="200"><defs><style type="text/css"></style></defs><path d="M513.29036271 60.81644183c245.09004048 0 444.93268889 199.84264839 444.93268889 444.93268887s-199.84264839 444.93268889-444.93268889 444.93268888-444.93268889-199.84264839-444.93268888-444.93268888 199.84264839-444.93268889 444.93268888-444.93268887m0-7.54123203c-249.61477969 0-452.47392089 202.85914119-452.47392088 452.4739209s202.85914119 452.47392089 452.47392088 452.4739209 452.47392089-202.85914119 452.4739209-452.4739209-202.85914119-452.47392089-452.4739209-452.4739209z" p-id="5780"></path><path d="M336.07141037 682.96808306v-98.0360162c0-41.47677609 26.39431205-67.87108813 67.87108813-67.87108814h211.15449642s67.87108813-3.770616 67.87108814 67.87108814v98.0360162h-346.89667269z m230.00757644-143.28340828L452.9605066 656.57377099l39.21440648 3.77061602 111.6102338-117.64321944-37.70616007-3.01649279z m49.01800811-203.61326441s-6.78710881 2.2623696-18.85308004 4.52473921c8.29535522 12.82009443 12.82009443 27.90255844 12.82009444 46.00151529 0 55.0509937-44.49326889 100.29838578-99.54426262 100.2983858-55.0509937 0-99.5442626-44.49326889-99.54426259-100.2983858 0-18.09895683 4.52473921-33.18142087 12.82009443-46.00151529-12.06597121-2.2623696-18.85308003-3.770616-18.85308004-3.77061601-10.55772482 0-18.85308003-8.29535522-18.85308004-18.85308004s8.29535522-18.85308003 18.85308004-18.85308004h211.15449642c10.55772482 0 18.85308003 8.29535522 18.85308003 18.85308004 0 9.80360162-8.29535522 18.09895683-18.85308003 18.09895684z" p-id="5781"></path></svg>