<?xml version="1.0" standalone="no"?><!DOCTYPE svg PUBLIC "-//W3C//DTD SVG 1.1//EN" "http://www.w3.org/Graphics/SVG/1.1/DTD/svg11.dtd"><svg class="icon" width="200px" height="200.00px" viewBox="0 0 1024 1024" version="1.1" xmlns="http://www.w3.org/2000/svg"><path  d="M512.002047 458.056414c100.749612 0 182.720531-87.773066 182.720531-195.658192S612.750635 66.741054 512.002047 66.741054c-100.733239 0-182.720531 87.771019-182.720532 195.657168s81.968873 195.658192 182.720532 195.658192z m-21.164019 285.587364l168.403454-239.137449c-36.607756-9.471722-87.188758-19.188015-146.507771-19.188015-4.021593 0-107.380636-8.201799-214.761272 41.001833 0 0-13.628392 1.364067-40.339754 42.643216-40.878013 66.508763-103.563704 163.460886-122.093732 195.71652-12.947893 21.185508-45.650713 63.828724-24.393574 108.519576 23.362081 44.550659 43.331901 78.322833 51.098795 84.057441h100.976786c-1.954515-76.517721 69.101821-202.222701 227.617068-213.613122z m398.267702 22.128996c-31.071669-53.305043-100.203166-161.595398-105.743346-171.32397-7.267521-12.737092-29.978778-61.570287-72.494081-74.690096-4.559852-1.401929-10.420327-3.298116-17.466813-5.485945L532.044522 743.410464c154.106844 9.302877 230.330876 129.416512 230.330875 213.706243l92.390224 0.141216s9.787924 0.981351 58.049091-86.517469c17.98563-45.923936-1.597381-65.834404-23.708982-104.96768zM511.911996 800.214191c-106.339934 0-192.547341 68.958558-192.547341 157.044755H704.458313c0-88.088244-86.202291-157.044756-192.546317-157.044755z" /></svg>