<?xml version="1.0" standalone="no"?><!DOCTYPE svg PUBLIC "-//W3C//DTD SVG 1.1//EN" "http://www.w3.org/Graphics/SVG/1.1/DTD/svg11.dtd"><svg class="icon" width="200px" height="200.00px" viewBox="0 0 1024 1024" version="1.1" xmlns="http://www.w3.org/2000/svg"><path  d="M949.453782 273.421405c0-65.89947-53.415409-119.31488-119.314879-119.31488H193.861097C127.961627 154.106525 74.648546 207.521935 74.648546 273.421405v477.15719c0 65.89947 53.415409 119.31488 119.31488 119.31488h636.277805c65.89947 0 119.31488-53.415409 119.31488-119.31488v-139.166583h-318.241231c-54.950335 0-99.463176-44.512841-99.463176-99.463176s44.512841-99.463176 99.463176-99.463176h318.138902V273.421405zM611.463176 512.051164c0 32.949735 26.707705 59.65744 59.65744 59.65744s59.65744-26.707705 59.657439-59.65744-26.707705-59.65744-59.657439-59.65744c-32.949735 0-59.65744 26.707705-59.65744 59.65744" /></svg>