<?xml version="1.0" standalone="no"?><!DOCTYPE svg PUBLIC "-//W3C//DTD SVG 1.1//EN" "http://www.w3.org/Graphics/SVG/1.1/DTD/svg11.dtd"><svg t="1540964703623" class="icon" style="" viewBox="0 0 1024 1024" version="1.1" xmlns="http://www.w3.org/2000/svg" p-id="2007" xmlns:xlink="http://www.w3.org/1999/xlink" width="200" height="200"><defs><style type="text/css"></style></defs><path d="M684.1 340.7H341.9c-12.5 0-22.9-10.2-22.9-22.9 0-12.5 10.3-22.9 22.9-22.9h342.2c12.5 0 22.9 10.3 22.9 22.9s-10.3 22.9-22.9 22.9z m0 391.2H341.9c-12.5 0-22.9-10.3-22.9-22.9s10.3-22.9 22.9-22.9h342.2c12.5 0 22.9 10.2 22.9 22.9s-10.3 22.9-22.9 22.9z m0-194.8H341.9c-12.5 0-22.9-10.3-22.9-22.9s10.3-22.9 22.9-22.9h342.2c12.5 0 22.9 10.3 22.9 22.9 0 12.6-10.3 22.9-22.9 22.9z" p-id="2008"></path><path d="M803.4 98.2h-76.8c-12.6 0-22.9 10.2-22.9 22.9S714 144 726.6 144h70.8c22 0 39.8 17.8 39.8 39.8v658.4c0 22-17.8 39.8-39.8 39.8H228.5c-22 0-39.8-17.8-39.8-39.8V183.8c0-22 17.8-39.8 39.8-39.8h71.1c12.6 0 22.9-10.2 22.9-22.9s-10.2-22.9-22.9-22.9h-77.1c-44 0-79.6 35.6-79.6 79.6v670.4c0 44 35.6 79.6 79.6 79.6h580.9c44 0 79.6-35.6 79.6-79.6V177.8c0-44-35.6-79.6-79.6-79.6z" p-id="2009"></path><path d="M638.3 144H391.7c-12.6 0-22.9-10.2-22.9-22.9s10.2-22.9 22.9-22.9h246.7c12.6 0 22.9 10.2 22.9 22.9S651 144 638.3 144z" p-id="2010"></path></svg>