<?xml version="1.0" standalone="no"?><!DOCTYPE svg PUBLIC "-//W3C//DTD SVG 1.1//EN" "http://www.w3.org/Graphics/SVG/1.1/DTD/svg11.dtd"><svg t="1540964452535" class="icon" style="" viewBox="0 0 1024 1024" version="1.1" xmlns="http://www.w3.org/2000/svg" p-id="1530" xmlns:xlink="http://www.w3.org/1999/xlink" width="200" height="200"><defs><style type="text/css"></style></defs><path d="M734.954899 318.506998h-445.909798c-6.37014 0-12.74028 0-12.74028 6.37014v25.48056c0 6.37014 6.37014 6.37014 6.37014 6.37014h452.279938c6.37014 0 6.37014-6.37014 6.37014-6.37014v-25.48056c6.37014-6.37014 0-6.37014-6.37014-6.37014zM734.954899 465.020218h-445.909798c-6.37014 0-6.37014 6.37014-6.37014 6.37014v25.48056c-6.37014 6.37014 0 12.74028 6.37014 12.74028h452.279938c6.37014 0 6.37014-6.37014 6.37014-6.37014v-31.8507s-6.37014-6.37014-12.74028-6.37014zM734.954899 611.533437h-445.909798c-6.37014 0-6.37014 6.37014-6.37014 6.37014v25.48056c0 6.37014 6.37014 6.37014 6.37014 6.37014h452.279938c6.37014 0 6.37014-6.37014 6.37014-6.37014v-19.11042c0-6.37014-6.37014-12.74028-12.74028-12.74028z"  p-id="1531"></path><path d="M830.506998 108.292379h-127.402799v44.59098h108.29238c6.37014 0 19.11042 6.37014 19.110419 19.11042v732.566097c0 6.37014 0 12.74028-6.37014 12.74028l-38.220839 38.220839h-12.74028l-76.44168-89.181959c-6.37014-6.37014-6.37014-6.37014-12.74028 0L607.5521 955.520995h-12.74028l-76.44168-89.181959c-6.37014-6.37014-6.37014-6.37014-12.74028 0L429.18818 955.520995h-12.74028l-76.441679-89.181959c-6.37014-6.37014-6.37014-6.37014-12.74028 0L244.454121 955.520995h-12.74028l-38.220839-44.590979V165.623639c0-6.37014 6.37014-19.11042 19.110419-19.11042H320.895801v-38.22084H193.493002c-25.48056 0-44.59098 19.11042-44.59098 38.22084v758.046657c0 6.37014 0 19.11042 6.37014 19.110419L238.083981 1019.222395h12.74028l76.44168-89.18196h12.74028L416.4479 1019.222395h12.74028l76.44168-89.18196h12.74028L594.81182 1019.222395h12.74028l76.441679-89.18196h12.74028l76.44168 89.18196c6.37014 6.37014 6.37014 6.37014 12.74028 0l76.441679-89.18196c6.37014-6.37014 6.37014-12.74028 6.37014-19.110419v-764.416797c6.37014-19.11042-12.74028-38.22084-38.22084-38.22084z"  p-id="1532"></path><path d="M505.62986 31.8507c12.74028 0 25.48056 6.37014 25.48056 19.11042 12.74028 25.48056 31.8507 44.59098 63.7014 44.59098h31.850699v57.331259H397.337481v-57.331259h19.110419c25.48056 0 50.96112-19.11042 63.7014-44.59098 0-6.37014 12.74028-19.11042 25.48056-19.11042m0-31.8507c-25.48056 0-50.96112 19.11042-57.33126 38.22084-6.37014 12.74028-19.11042 25.48056-31.8507 25.48056h-19.110419c-19.11042 0-31.8507 12.74028-31.8507 31.8507v70.071539c0 12.74028 12.74028 25.48056 25.48056 25.48056H639.402799c12.74028 0 25.48056-12.74028 25.48056-25.48056V95.5521c0-19.11042-12.74028-31.8507-31.8507-31.8507h-38.220839c-12.74028 0-25.48056-12.74028-25.48056-25.48056-12.74028-19.11042-38.22084-38.22084-63.7014-38.22084z"  p-id="1533"></path></svg>