<?xml version="1.0" standalone="no"?><!DOCTYPE svg PUBLIC "-//W3C//DTD SVG 1.1//EN" "http://www.w3.org/Graphics/SVG/1.1/DTD/svg11.dtd"><svg t="1552283969653" class="icon" style="" viewBox="0 0 1026 1024" version="1.1" xmlns="http://www.w3.org/2000/svg" p-id="19688" xmlns:xlink="http://www.w3.org/1999/xlink" width="200.390625" height="200"><defs><style type="text/css"></style></defs><path d="M238.656 106.752H61.568c-34.016 0-61.568 25.824-61.568 57.472v695.52c0 31.648 27.552 57.472 61.568 57.472h903.104c34.016 0 61.568-25.824 61.568-57.472V164.224c0-31.648-27.52-57.472-61.568-57.472H238.656z m237.504 0H313.728h162.432z m237.536 0h-162.432 162.432z m87.36 52.192h177.696v706.048H47.52V158.944H801.056z m-248.096 0h169.536-169.536z m-248 0h169.472-169.472z m344.192 209.344c0 12.896 12.32 23.456 27.616 23.456h223.968c15.264 0 27.52-10.56 27.52-23.456 0-12.864-12.288-23.424-27.52-23.424h-223.968c-15.296 0-27.616 10.56-27.616 23.424m11.744 115.552c0 12.928 8.8 23.488 19.936 23.488h161.28c11.136 0 19.904-10.56 19.904-23.488 0-12.896-8.768-23.456-19.904-23.456h-161.28c-11.104 0.576-19.936 10.56-19.936 23.456m-11.744 113.76c0 12.864 12.32 23.424 27.616 23.424h223.968c15.264 0 27.52-10.56 27.52-23.424 0-12.896-12.288-23.424-27.52-23.424h-223.968c-15.296 0.544-27.616 10.496-27.616 23.424m-35.744 90.912L366.528 260.416a23.168 23.168 0 0 0-40.48 0L79.136 688.512c-8.768 15.808 2.368 35.2 19.936 35.2h493.792c18.208-0.576 29.312-19.968 20.544-35.2m-82.688-17.024H161.248c-13.472 0-21.664-14.688-15.232-26.432l185.312-319.584a17.12 17.12 0 0 1 29.92 0l184.704 319.584c6.464 11.744-1.728 26.432-15.232 26.432m-210.528-141.92v-143.68c0-14.048 11.136-25.216 25.216-25.216s25.216 11.168 25.216 25.216v144.256c0 14.08-11.136 25.184-25.216 25.184s-25.216-11.68-25.216-25.76m59.2 80.896a34.016 34.016 0 1 1-68.032 0 34.016 34.016 0 0 1 68.032 0" p-id="19689"></path></svg>