<?xml version="1.0" standalone="no"?><!DOCTYPE svg PUBLIC "-//W3C//DTD SVG 1.1//EN" "http://www.w3.org/Graphics/SVG/1.1/DTD/svg11.dtd"><svg class="icon" width="200px" height="200.00px" viewBox="0 0 1024 1024" version="1.1" xmlns="http://www.w3.org/2000/svg"><path  d="M512 356.547048c-181.394286 0-356.937143-36.035048-447.634286-91.867429l-39.984762-24.380952v194.608762c0 52.516571 84.845714 89.429333 135.070477 106.642285a1290.142476 1290.142476 0 0 0 705.097142 0c50.712381-17.212952 135.070476-54.125714 135.070477-106.642285V240.298667l-39.984762 24.380952C869.424762 320.512 693.394286 356.547048 512 356.547048z m0 417.596952c-181.394286 0-356.937143-36.035048-447.634286-91.867429l-39.984762-24.380952V867.961905c0 52.516571 84.845714 89.429333 135.070477 106.642285a1291.410286 1291.410286 0 0 0 705.097142 0C915.260952 957.244952 999.619048 920.380952 999.619048 867.961905v-210.066286l-39.984762 24.380952c-90.209524 55.832381-266.24 91.867429-447.634286 91.867429z m0 0v-139.068952c-181.394286 0-356.937143-36.08381-447.634286-91.916191l-39.984762-24.380952v55.296c0 52.565333 84.845714 89.429333 135.070477 106.691047a1291.410286 1291.410286 0 0 0 705.097142 0c50.712381-17.359238 135.070476-54.272 135.070477-106.691047v-55.296l-39.984762 24.380952c-90.209524 55.734857-266.24 91.91619-447.634286 91.916191zM512 0C242.834286 0 24.380952 70.509714 24.380952 157.549714S242.834286 315.001905 512 315.001905s487.619048-70.460952 487.619048-157.452191S781.165714 0 512 0zM380.342857 243.419429a1039.945143 1039.945143 0 0 1-104.350476-17.212953A372.540952 372.540952 0 0 1 121.904762 162.816l413.500952-44.860952z m0 0" /></svg>