<?xml version="1.0" standalone="no"?><!DOCTYPE svg PUBLIC "-//W3C//DTD SVG 1.1//EN" "http://www.w3.org/Graphics/SVG/1.1/DTD/svg11.dtd"><svg class="icon" width="200px" height="200.00px" viewBox="0 0 1024 1024" version="1.1" xmlns="http://www.w3.org/2000/svg"><path  d="M591.639317 571.608609c52.386114 18.577101 142.231375-76.341712 194.522321-138.191362 52.31039-61.944817 50.148144-97.032964 35.505656-119.755478-14.585183-22.703071-22.949688 0-22.949689 0s18.832927-106.213044-31.446199-170.168657c-84.249823-107.446128-256.713756-103.861486-321.522808-3.603061-64.695464 100.295264-31.883151 173.771719-31.883151 173.771718s-25.111934-41.21468-37.610596 0c-12.593829 41.290405 8.3072 57.81066 52.31039 109.352547 43.869137 51.608402 110.822015 130.016169 163.074076 148.594293z m145.569399 23.385617l-78.616522 180.363857-27.539216-79.660294s2.105964-14.736633 14.813381-41.954531c12.840446-27.359115 14.889105-39.972387-10.584056-56.662511-25.51-16.823154-59.459207-6.353708-70.100568 20.938892-10.620895 27.236318 19.11843 41.945321 19.118429 58.749032 0 16.804734-21.223371 94.396927-21.22337 94.396927s2.105964 20.958334-25.433252-37.762046c-27.652803-58.682517-57.393151-144.790664-57.393152-144.790664-150.632719 53.173037-227.25891 157.992337-227.25891 316.856532 0 62.362326 690.594561 86.810135 703.719486-33.647331 12.55392-116.152417-195.528232-331.868433-219.50225-276.827863z m-328.426031-23.784706V446.106244S262.492878 310.703391 238.348991 287.222607c-7.586792 7.302313-174.512592 156.892283-174.512592 158.883637v459.684494c0 14.167674 15.495926 25.851784 34.443463 25.851784 36.985356 0 69.873394 2.959402 98.341773 0.644683 29.607318-2.275833-4.418636-113.420189 64.904218-229.420133 64.240093-107.569948 147.256832-99.394754 147.256832-131.657552z m-268.150226-91.342358c0-50.925856 41.897226-92.329848 93.52507-92.329848 51.684126 0 93.657077 41.403992 93.657077 92.329848 0 50.991348-41.97295 92.348268-93.657077 92.348268-51.627844 0-93.52507-41.35692-93.52507-92.348268z"  /></svg>