<?xml version="1.0" standalone="no"?><!DOCTYPE svg PUBLIC "-//W3C//DTD SVG 1.1//EN" "http://www.w3.org/Graphics/SVG/1.1/DTD/svg11.dtd"><svg class="icon" width="200px" height="111.97px" viewBox="0 0 1829 1024" version="1.1" xmlns="http://www.w3.org/2000/svg"><path  d="M925.818 63.999c-251.782 0-456.486 204.543-456.486 456.325 0 250.818 204.704 455.361 456.486 455.361 250.657 0 455.361-204.543 455.361-455.361 0-251.782-204.704-456.325-455.361-456.325zM988.161 301.32v-15.425l0.964-0.964v-6.748l0.964-1.928v-4.82l0.964-0.964v-3.856l0.964-0.964v-1.767l0.964-1.928v-0.964l0.964-0.964v-1.928l0.964-0.964v-2.892l0.964-0.964v-1.928h0.964v-0.964l0.964-1.928v-0.964l0.964-0.964v-0.964l0.964-0.964v-1.928l0.964-0.964v-0.964l1.928-1.928 0.964-1.928v-0.964l0.964-1.928 0.964-0.964 0.964-1.928 1.928-1.928v-0.964l0.964-0.964v-0.964h0.964l0.964-1.928 0.161-0.161c79.054 23.138 145.092 77.286 184.137 148.466l-0.803 0.643-11.569 11.569h-0.964v0.964l-1.928 0.964-3.856 3.856h-0.964l-0.964 0.964h-0.803v0.964h-0.964l-0.964 0.964h-1.125l-0.803 0.964-1.125 0.964-0.803 0.964h-1.928l-1.928 1.928-1.928 0.964h-0.964l-0.964 0.964-1.928 0.964h-0.964l-0.964 0.964-1.928 0.964h-0.964l-1.928 0.964h-0.964l-0.964 0.964h-1.928l-0.964 0.964h-1.928l-0.964 0.964h-1.928l-0.964 0.964h-1.928l-0.964 0.803h-1.928l-0.964 0.964h-2.892l-1.928 0.964h-2.892c-64.271 11.569-125.811-31.654-137.38-96.085v-2.732h-0.964v-8.677h-0.964v-1.928zM925.818 452.197c37.438 0 67.163 30.689 67.163 68.127 0 36.474-29.725 67.324-67.163 67.324s-68.288-30.85-68.288-67.324c0-37.438 30.85-68.127 68.288-68.127zM763.373 681.805l-0.964 1.928v0.964l-0.964 0.964v0.964l-0.964 0.964v0.964l-0.964 0.964v0.964l-0.964 2.732-0.964 0.964-0.964 1.928-0.964 0.964v1.928l-1.928 1.928v0.964l-0.964 0.964v0.964l-1.928 1.928-0.964 1.928v0.964h-0.964l-0.964 1.928-0.803 0.964-0.964 0.964v0.964l-3.856 3.856v0.964l-3.856 3.856v0.964l-1.928 0.964-3.856 3.856v0.964l-1.928 0.964-1.928 1.928h-0.964l-3.856 3.856-2.892 1.767-0.964 0.964h-0.964l-1.928 1.928h-0.964l-2.732 2.732c-57.362-54.47-93.997-130.631-96.085-214.987h0.803l1.928-0.964h0.964l1.928-0.964h2.892l0.964-0.964h4.82l0.964-0.964h5.784l0.964-0.964h24.905l1.928 0.964h3.856l1.928 0.964h3.856l1.928 0.964h2.892l0.964 0.964h1.928l2.892 0.964 0.964 0.964h1.928l0.964 0.964h1.928c61.379 22.013 93.193 90.301 71.020 151.841zM725.935 428.095h-11.569l-2.892-0.964h-3.856l-1.928-0.964h-2.892l-1.928-0.964h-2.732l-1.125-0.964h-2.732l-0.964-0.964h-1.928l-0.964-0.964h-1.928l-1.928-0.964h-0.964l-1.928-0.964h-0.964v-0.964h-2.892l-1.928-1.928h-1.928l-0.964-0.964-1.928-0.964h-0.964l-1.928-0.964v-0.964h-0.964l-1.928-0.964-1.928-1.928h-1.928l-0.964-0.964-1.928-0.964-0.964-0.803-0.803-0.964-1.125-0.964h-0.803l-1.125-0.964-0.803-0.964-2.089-0.964-1.928-1.928-1.767-0.964v-0.964h-0.964l-1.928-1.928v-0.964l-1.928-0.964-0.321-0.321c33.26-74.715 95.443-133.845 172.247-163.088v0.964l0.964 0.964h0.964v0.964l0.964 1.928 3.856 3.856v0.964h0.964v1.928h0.964v0.964l1.928 1.928 0.964 1.928v0.964l0.964 0.964v0.964l1.928 1.928v0.964l0.964 1.928 0.964 0.964v0.964h0.964v1.928l0.964 0.964v0.964l0.964 1.928v0.964l0.964 1.767 0.964 0.964v1.928l0.964 0.964v0.964l0.803 1.928v0.964l1.125 1.928v1.928l0.803 1.928v2.892h1.125v3.856l0.803 1.928v4.82l1.125 0.964v7.713l0.803 1.928v5.784c0 65.235-53.666 118.098-119.062 118.098zM1053.557 797.975v1.767c-38.884 17.996-82.267 28.119-127.739 28.119-37.117 0-72.626-6.588-105.405-18.639l0.643-0.643v-5.784l0.964-0.964v-3.856l0.964-0.964v-2.892l0.964-0.964v-1.928l0.964-0.964v-1.767l0.964-0.964v-0.964l0.964-1.928v-0.964l0.964-1.928v-0.964l0.964-0.964v-1.928l0.964-0.964 0.964-1.928v-0.964l0.964-0.964 0.964-1.928v-0.964l0.964-1.928 1.928-1.928v-1.928l0.964-0.964 1.928-2.892 0.803-0.964 1.125-0.964 0.803-2.892 1.125-0.964 0.803-0.964 1.125-1.928 0.803-0.964 1.928-1.928c42.419-49.971 117.295-56.559 167.266-14.3l0.964 0.964 0.964 0.803h0.964l7.713 7.713v0.964l1.767 0.964v0.964h1.125l0.803 1.928 1.125 0.964 1.928 1.928 0.964 1.928 0.803 0.964 0.964 0.964v0.964l1.928 1.928 0.964 1.928 0.964 0.964 0.964 1.928 1.928 1.928v1.928l0.964 0.964v0.964l0.964 0.964v0.964l1.928 1.928v1.928l0.964 0.964 0.964 2.892 0.964 1.928v0.964h0.964v1.928l0.964 1.928v0.964l0.964 1.928v0.803l0.964 1.928v1.928l0.964 0.964v1.928l0.964 0.964v0.964zM1154.945 724.706l-1.446-0.643-0.964-0.964h-0.964v-0.964l-2.892-0.964-0.964-0.964h-1.928l-3.856-3.856h-0.964l-1.928-0.964-1.928-1.928h-0.964l-5.784-5.784h-0.964l-0.803-0.964-1.125-0.964-0.803-0.964-1.125-0.964-0.803-0.964-1.125-0.964-0.803-0.964-0.964-0.964v-0.964l-1.928-0.964v-0.964l-3.856-3.856-0.964-1.767-2.892-2.892-0.964-1.928-1.928-1.928-0.964-1.928v-0.964l-0.964-0.964-1.928-2.892c-32.618-56.719-13.497-128.703 43.222-161.481l1.928-0.964 0.964-0.964 1.928-0.964h0.964l1.928-1.928h1.928l0.964-0.964 1.928-0.964h0.964l1.928-0.964 0.964-0.964h0.964l4.66-0.803v-0.964h1.125l1.928-0.964h2.732v-0.964h3.856l0.964-0.964h3.856v-0.964h4.82l0.964-0.964h5.784l2.892-0.964h17.353l4.66 0.964h2.892l2.892 0.964h3.856l0.964 0.964h0.482c0.321 5.624 0.482 11.408 0.482 17.193 0 78.25-29.725 150.073-78.25 204.382z" /></svg>