<?xml version="1.0" standalone="no"?><!DOCTYPE svg PUBLIC "-//W3C//DTD SVG 1.1//EN" "http://www.w3.org/Graphics/SVG/1.1/DTD/svg11.dtd"><svg t="1540968411468" class="icon" style="" viewBox="0 0 1024 1024" version="1.1" xmlns="http://www.w3.org/2000/svg" p-id="9258" xmlns:xlink="http://www.w3.org/1999/xlink" width="200" height="200"><defs><style type="text/css"></style></defs><path d="M787.2 725.2c-2.8-0.1-5.6-0.1-8.5-0.1-22.9 0-45.6-0.1-68.5 0.1-4.9 0-6.4-1.6-6.2-6.8 0.3-16.8 0.6-33.7 0.1-50.4-0.1-7 2-8.6 8.3-8.6 26.4 0.2 52.6 0 79-0.7 14.5-0.4 23.3-11.3 22.7-26.4-0.7-19-15.2-33.7-33.3-33.7-23.3 0-46.6 0.1-69.9 0-2.4 0-6.6 1.2-6.5-2.2 0.1-8.5-3.1-17.2 4.2-25.1 25.4-26.8 50.1-54.3 75.1-81.6 3.2-3.6 6.5-7.3 9-11.4 9.5-15 2.7-32.8-14.1-36.9-11.9-3-21.3 2.2-29.5 10.4-23.3 23-46.6 46-69.6 69.4-4 4-5.6 3.6-9.2-0.5-19.5-22.1-39.4-43.9-59-65.9-7.5-8.3-16.1-14.2-27-16.5-11.9-2.4-21.6 3.6-25.1 15.7-4.2 14.5 2.1 26 11 36.2 21.2 24.5 42.2 49.4 64.1 73.1 8 8.8 11.6 17.7 10.4 29.5-0.4 5.2-1.6 6.7-6.5 6.7-24.7-0.3-49.4 0.1-74.1-0.3-7.9-0.1-13.4 3-18.1 9.2-3.5 4.7-5.9 10.1-7.8 15.7-6.2 21.2 3.8 39.9 25.2 39.9 25.8 0 49.8-4.1 74.8-4.4 4-0.1 6.8 0 6.6 5.6-0.3 18.2-0.3 36.6-0.1 54.9 0 4.3-1.4 5.5-5.4 5.5-13.7-0.3-27.2-0.1-40.9-0.1h-38.5c-15.8 0.1-27.8 12.3-27.7 28.2 0.1 16.9 12.1 29.5 28.1 29.5 25.8 0 51.8 0 77.6-0.1 4.5 0 6.2 1.2 6.1 6.2-0.1 9.2 0 18.4 0.7 27.4 1.4 18.2 13.3 28.8 30.9 28.3 15.8-0.4 27.9-13.5 28.2-30.8 0.1-7.7 0.4-15.4-0.4-23-0.7-7 1.4-8.5 7.6-8.3 25.7 0.3 51.2 0 76.9 0.1 8.5 0 15.1-3.1 20-10.2 6.9-9.9 8.5-20.8 3.8-32.2-4.6-11.1-13.8-14.9-24.5-15.4zM451.7 370.7H274.3c-18.6 0-33.7 13.7-33.7 30.6 0 16.8 15.1 30.5 33.7 30.5h177.4c18.6 0 33.7-13.7 33.7-30.5-0.1-16.8-15.1-30.6-33.7-30.6z m0 122.8H274.3c-18.6 0-33.7 13.7-33.7 30.6 0 16.8 15.1 30.5 33.7 30.5h177.4c18.6 0 33.7-13.7 33.7-30.5-0.1-16.8-15.1-30.6-33.7-30.6z m312.3-215c0-16.8-15.1-30.6-33.7-30.6h-456c-18.6 0-33.6 13.7-33.6 30.6 0 16.8 15.1 30.5 33.6 30.5h456c18.5 0 33.7-13.7 33.7-30.5zM826.5 64H197.5c-54.6 0-88.7 45.3-88.7 101.8v704.8c0 56.2 43.8 89.4 99 89.4h608.5c55.2 0 99-33.2 99-89.4V165.8C915.2 109.3 881.1 64 826.5 64z m8.3 775.2c0 10.3-19.7 41.3-40.7 39.3H229.9c-21 2-40.7-29-40.7-39.3v-379l0.3-0.1V188.5c0-0.3 0-0.5 0.1-0.8 6.9-18.2 2.9-36.9 38.6-42.2 1.2-0.4 2.3-0.6 3.4-0.8h0.1c17.8-0.1 149.2-0.6 280.4-0.9 131.2 0.3 262.7 0.8 280.4 0.9h0.1c1.1 0.1 2.3 0.4 3.4 0.8 17.3 9.2 31.6 24.1 38.6 42.2 0 0.3 0.1 0.6 0.1 0.8v271.6l0.3 0.1v379z"  p-id="9259"></path></svg>