<?xml version="1.0" standalone="no"?><!DOCTYPE svg PUBLIC "-//W3C//DTD SVG 1.1//EN" "http://www.w3.org/Graphics/SVG/1.1/DTD/svg11.dtd"><svg t="1540968298817" class="icon" style="" viewBox="0 0 1024 1024" version="1.1" xmlns="http://www.w3.org/2000/svg" p-id="8475" xmlns:xlink="http://www.w3.org/1999/xlink" width="200" height="200"><defs><style type="text/css"></style></defs><path d="M222.6 223.9c0.9 1.8 2.1 3.4 3.5 4.7s3 1.9 4.8 1.9h40.6v-4.1c0-1.1-0.2-2.4-0.6-3.9s-1.3-3.3-2.9-5.4c-1.6-2.1-3.8-4.7-6.6-7.9-2.9-3.1-6.8-6.9-11.7-11.3-4.6-4-8.4-7.3-11.5-9.8-3-2.5-5.6-4.4-7.7-5.7-2.1-1.3-4-2.2-5.5-2.6-1.6-0.5-3.1-0.7-4.6-0.7h-0.6v34.3c0 1.3 0.2 2.9 0.7 4.8 0.5 2 1.2 3.9 2.1 5.7zM271.9 684c-44.4 0-80.5 36.1-80.5 80.5s36.1 80.5 80.5 80.5 80.5-36.1 80.5-80.5-36.1-80.5-80.5-80.5z m0 119.1c-21.3 0-38.5-17.3-38.5-38.5s17.3-38.5 38.5-38.5 38.5 17.3 38.5 38.5-17.3 38.5-38.5 38.5zM806.8 681.5c-44.4 0-80.5 36.1-80.5 80.5s36.1 80.5 80.5 80.5 80.6-36.1 80.6-80.5c-0.1-44.4-36.3-80.5-80.6-80.5z m0 119c-21.2 0-38.5-17.3-38.5-38.5s17.3-38.5 38.5-38.5 38.5 17.3 38.5 38.5c0 21.3-17.3 38.5-38.5 38.5z"  p-id="8476"></path><path d="M956.4 668.7h-98.2c-1.7 0-3.2 1.1-3.7 2.8-0.5 1.6 0.3 3.3 1.6 4.3 29.5 18.1 47.2 49.5 47.2 83.9 0 3.6-0.3 7.5-0.7 11.9-0.2 1.1 0.2 2.1 0.9 3 0.7 0.8 1.8 1.3 2.8 1.3h50.1c2.1 0 3.8-1.7 3.8-3.8v-99.4c0-2.3-1.7-4-3.8-4zM224.1 675.8c1.4-0.9 2.1-2.7 1.7-4.3-0.5-1.6-2-2.8-3.7-2.8h-121c-2.1 0-3.8 1.7-3.8 3.8v49.7c0 2.1 1.7 3.8 3.8 3.8h79.2c1.5 0 2.9-0.9 3.5-2.4 7.8-19.7 22.1-36.7 40.3-47.8zM710.2 759.7c0-33 16.8-63.1 45.1-80.6 2.3-1.3 3.8-3.8 3.8-6.6 0-4.2-3.4-7.6-7.6-7.6H328.7c-3.4 0-6.4 2.3-7.3 5.5-0.9 3.3 0.5 6.8 3.3 8.5 28.4 17.5 45.4 47.6 45.4 80.7 0 3.5-0.2 7.2-0.7 11.4-0.3 2.2 0.4 4.3 1.8 5.9 1.5 1.6 3.5 2.6 5.7 2.6h326.5c2.2 0 4.2-0.9 5.7-2.6 1.4-1.6 2.1-3.8 1.8-5.9-0.5-4.2-0.7-7.9-0.7-11.3zM834.2 366.6H695c-25.3 0-41.6 12.7-41.6 32.2v245.3c0 2.1 1.6 3.8 3.8 3.8h299.3c2.1 0 3.8-1.7 3.8-3.8v-72c-0.1-40.1-68.9-205.5-126.1-205.5zM714.8 561.7V425.3h104.9c30.9 0 73.1 85.1 75.1 136.4h-180zM177.9 534.1c-26 0-50.9-4.6-74-12.9v123c0 2 1.7 3.8 3.8 3.8h520c2.1 0 3.8-1.7 3.8-3.8V310.7c0-2.1-1.7-3.8-3.9-3.8H394.8c0.2 3.3 0.2 6.7 0.2 10.1 0 119.9-97.2 217.1-217.1 217.1z" p-id="8477"></path><path d="M239.4 338.9c-7.4 3.1-13.8 7.5-19.3 13s-9.9 12-13.1 19.3c-3.2 7.4-4.8 15.3-4.8 23.8s1.6 16.4 4.8 23.8 7.6 13.8 13.1 19.3 12 9.9 19.3 13c7.4 3.1 15.2 4.7 23.5 4.7 8.5 0 16.4-1.6 23.8-4.7s13.8-7.5 19.3-13 9.9-12 13-19.3c3.1-7.4 4.7-15.3 4.7-23.8s-1.5-16.5-4.7-23.8c-3.1-7.4-7.5-13.8-13-19.3s-12-9.9-19.3-13c-7.4-3.1-15.3-4.7-23.8-4.7-8.3 0-16.1 1.6-23.5 4.7z m32 22.6v24.3h26.2c1.7 0 3.1 0.9 4.4 2.8 1.3 1.8 1.9 4.1 1.9 6.6s-0.7 4.8-2 6.6-2.8 2.8-4.4 2.8h-37.6c-1.7 0-3.1-0.9-4.4-2.8-1.3-1.8-1.9-4-1.9-6.6 0-0.7 0.2-1.8 0.6-3.3v-30.4c0-1.5 0.7-2.8 2.1-3.9 1.4-1.1 3.5-1.7 6.2-1.7 2.8 0 4.9 0.6 6.5 1.7 1.6 1.1 2.4 2.4 2.4 3.9z" fill="#666666" p-id="8478"></path><path d="M197.4 438.8c-4.2-6.4-7.6-13.4-9.9-20.7-2.4-7.3-3.6-15.2-3.6-23.4v-4.1c0-1.3 0.1-2.6 0.3-3.9H116c-4.8 0-8.9-1.7-12.3-5.1s-5.1-7.5-5.1-12.3 1.7-8.8 5.1-12.2c3.4-3.3 7.5-5 12.3-5h80.4c7-10.9 16.2-19.5 27.6-26 11.4-6.4 24-9.7 37.8-9.7h5c1.7 0 3.2 0.2 4.7 0.6v-68.8h-40.3c-5 0-9.3-1.1-13-3.3s-6.7-5.1-9.1-8.6c-2.4-3.5-4.1-7.2-5.3-11.2-1.1-4-1.7-7.8-1.7-11.5v-34.5H96.3c-4.2 0-8.3 1.2-12.2 3.5-3.9 2.3-7.3 5.2-10.2 8.7-2.9 3.5-5.3 7.3-7.2 11.5-1.8 4.1-2.8 8.1-2.8 12v188.4c0 4.6 1.2 9 3.6 13.3 2.4 4.2 5.4 8 9 11.3s7.5 6 11.6 8 8 3 11.5 3h97.8z m-93.7-150.9c3.4-3.4 7.5-5.1 12.3-5.1h103.6c4.8 0 8.8 1.7 12.2 5.1 3.3 3.4 5 7.5 5 12.3s-1.7 8.8-5 12.2c-3.3 3.3-7.4 5-12.2 5H116c-4.8 0-8.9-1.7-12.3-5s-5.1-7.4-5.1-12.2c0-4.8 1.7-8.9 5.1-12.3z"  p-id="8479"></path></svg>