<?xml version="1.0" standalone="no"?><!DOCTYPE svg PUBLIC "-//W3C//DTD SVG 1.1//EN" "http://www.w3.org/Graphics/SVG/1.1/DTD/svg11.dtd"><svg class="icon" width="200px" height="199.80px" viewBox="0 0 1025 1024" version="1.1" xmlns="http://www.w3.org/2000/svg"><path  d="M785.4 609.9H683.2v65.3h102.2c16 0 29.6 12.6 29.6 27.6V582.4c0 14.9-13.5 27.5-29.6 27.5zM795.8 39.6H57.3c-10.5 0-19.1 8.6-19.1 19.1V872c0 10.5 8.6 19.1 19.1 19.1h738.5c10.5 0 19.1-8.6 19.1-19.1V702.8c0 14.9-13.5 27.6-29.6 27.6H683.2v73.2c0 14.9-13.5 27.6-29.6 27.6-16 0-29.6-12.6-29.6-27.6v-73.2H521.9c-16 0-29.6-12.6-29.6-27.6 0-14.9 13.5-27.6 29.6-27.6h102.2v-65.3H521.9c-16 0-29.6-12.6-29.6-27.6 0-14.9 13.5-27.6 29.6-27.6h49l-17.7-37c-6.8-14.1 0-29.9 15.2-36.2 15.2-6.3 32.1 0 38.8 14.2l27.9 59h50.7l27.9-59c6.7-14.2 23.6-20.4 38.8-14.2 15.2 6.3 21.9 22 15.2 36.2l-17.7 37h35.5c16 0 29.6 12.6 29.6 27.6V58.8c-0.1-10.5-8.7-19.2-19.3-19.2zM180 503.8c-9.2 5.3-20.5 5.3-29.7 0s-14.8-14.9-14.8-25.4c0-10.4 5.6-20.2 14.8-25.4 9.2-5.3 20.5-5.3 29.7 0 9.2 5.2 14.8 14.9 14.8 25.4 0.1 10.4-5.5 20.2-14.8 25.4z m89 3.8c-16.4 0-29.7-13.2-29.7-29.3 0-16.3 13.3-29.3 29.7-29.3s29.7 13.2 29.7 29.3c0 16.2-13.3 29.3-29.7 29.3z m372.8-150.1H161.2c-14.8 0-27.4-12.3-27.4-27s12.5-27 27.4-27h480.5c14.8 0 27.4 12.3 27.4 27s-12.5 27-27.3 27z m0-121.9H161.2c-14.8 0-27.4-12.3-27.4-27s12.5-27 27.4-27h480.5c14.8 0 27.4 12.3 27.4 27s-12.5 27-27.3 27zM656.8 286.5c-203.4 0-368.3 164.9-368.3 368.3S453.4 1023 656.8 1023 1025 858.1 1025 654.7 860.1 286.5 656.8 286.5z m128.6 388.7c16 0 29.6 12.6 29.6 27.6 0 14.9-13.5 27.6-29.6 27.6H683.2v73.2c0 14.9-13.5 27.6-29.6 27.6-16 0-29.6-12.6-29.6-27.6v-73.2H521.9c-16 0-29.6-12.6-29.6-27.6 0-14.9 13.5-27.6 29.6-27.6h102.2v-65.3H521.9c-16 0-29.6-12.6-29.6-27.6 0-14.9 13.5-27.6 29.6-27.6h49l-17.7-37c-6.8-14.1 0-29.9 15.2-36.2 15.2-6.3 32.1 0 38.8 14.2l27.9 59h50.7l27.9-59c6.7-14.2 23.6-20.4 38.8-14.2 15.2 6.3 21.9 22 15.2 36.2l-17.7 37h35.5c16 0 29.6 12.6 29.6 27.6 0 14.9-13.5 27.6-29.6 27.6H683.2v65.3h102.2z" /></svg>