<?xml version="1.0" standalone="no"?><!DOCTYPE svg PUBLIC "-//W3C//DTD SVG 1.1//EN" "http://www.w3.org/Graphics/SVG/1.1/DTD/svg11.dtd"><svg t="1540963889516" class="icon" style="" viewBox="0 0 1024 1024" version="1.1" xmlns="http://www.w3.org/2000/svg" p-id="1936" xmlns:xlink="http://www.w3.org/1999/xlink" width="200" height="200"><defs><style type="text/css"></style></defs><path d="M512.001 954.78c-244.529 0-448.662-50.729-499.262-118.49C4.869 846.835 0.413 857.745 0.413 868.984c0 83.485 229.044 151.16 511.588 151.16 282.54 0 511.586-67.675 511.586-151.16 0-11.239-4.452-22.144-12.325-32.694-50.601 67.762-254.739 118.49-499.261 118.49zM512.001 376.657c282.54 0 511.586-83.459 511.586-186.402 0-102.946-229.046-186.399-511.586-186.399C229.457 3.855 0.413 87.309 0.413 190.258c0 102.952 229.044 186.399 511.588 186.399zM286.12 523.371v-65.329c-137.092-20.014-239.578-57.583-273.381-102.84C4.869 365.748 0.413 376.657 0.413 387.897c0 59.493 116.609 110.811 285.707 135.474zM737.879 458.042v65.329c169.097-24.663 285.708-75.988 285.708-135.474 0-11.24-4.452-22.156-12.325-32.695-33.799 45.257-136.298 82.826-273.383 102.84zM737.879 619.948v65.322c169.097-24.669 285.708-75.982 285.708-135.48 0-11.233-4.452-22.149-12.325-32.688-33.799 45.257-136.298 82.819-273.383 102.846zM286.12 685.271v-65.322c-137.093-20.028-239.578-57.59-273.381-102.847C4.869 527.641 0.413 538.557 0.413 549.79c0 59.498 116.609 110.812 285.707 135.481z" p-id="1937"></path><path d="M286.12 846.146v-65.328C149.027 760.796 46.542 723.234 12.739 677.983 4.869 688.515 0.413 699.43 0.413 710.665c0 59.492 116.609 110.818 285.707 135.481zM737.879 780.817v65.328c169.097-24.662 285.708-75.988 285.708-135.48 0-11.234-4.452-22.149-12.325-32.682-33.799 45.251-136.298 82.813-273.383 102.834zM469.541 835.629v-69.585h-83.053c-17.957 0-26.936-8.207-26.936-24.691 1.473-13.468 10.451-21.675 26.936-24.691h83.053v-38.159h-83.053c-17.957 0-26.936-8.207-26.936-24.691 1.473-13.468 10.451-21.675 26.936-24.691h47.139l-71.83-101.01c-7.506-5.963-10.486-14.205-8.979-24.691 1.473-25.428 15.713-39.632 42.648-42.648 13.469 1.508 24.691 7.505 33.67 17.957l83.053 118.968 83.053-118.968c7.471-10.452 18.694-16.449 33.67-17.957 25.428 3.016 39.633 17.221 42.648 42.648 0 10.486-3.016 18.729-8.979 24.691l-71.828 101.01h47.137c14.941 3.017 23.92 11.224 26.937 24.691-1.509 16.484-10.487 24.691-26.937 24.691h-83.053v38.159h83.053c14.941 3.017 23.92 11.224 26.937 24.691-1.509 16.484-10.487 24.691-26.937 24.691h-83.053v69.585c-1.508 25.463-15.712 38.159-42.648 38.159-28.443 0-42.648-12.696-42.648-38.159z" p-id="1938"></path></svg>