<?xml version="1.0" standalone="no"?><!DOCTYPE svg PUBLIC "-//W3C//DTD SVG 1.1//EN" "http://www.w3.org/Graphics/SVG/1.1/DTD/svg11.dtd"><svg class="icon" width="200px" height="199.61px" viewBox="0 0 1026 1024" version="1.1" xmlns="http://www.w3.org/2000/svg"><path  d="M513.154032 3.831873C229.746794 3.831873 0 232.205206 0 513.916952 0 795.627683 229.746794 1024 513.154032 1024c283.407238 0 513.154032-228.372317 513.154031-510.083048-0.001016-281.711746-229.746794-510.085079-513.154031-510.085079z m146.323301 848.559746c-126.670222 4.399746-142.794159 4.399746-142.794158 4.399746s-16.065016 0-142.722032-4.399746c-269.35873-9.458794-120.958984-401.039238-47.161905-472.152381 33.648762-32.373841 112.943746-77.687873 119.189333-102.338032 0.292571-1.093079 0.403302-2.008381 0.585143-3.012063-6.700698-0.729397-11.868444-4.837587-11.868444-9.911873 0-5.078349 5.167746-9.168254 11.868444-9.897651-5.367873-22.148063-29.558857-39.034921-59.011047-101.879873 57.933206-28.992 54.740317 33.815365 100.600889 24.192 61.930667-30.618413 60.344889-49.936254 141.648254-24.958984-20.45054 68.960508-41.045333 80.847238-42.871873 102.501587h0.729396c7.670857 0 13.912381 4.489143 13.912381 10.041905 0 5.074286-5.148444 9.219048-11.900952 9.911873a137.549206 137.549206 0 0 0 2.008381 6.189714c7.210667 23.480889 83.584 69.016381 114.932825 99.160381 73.816381 71.114159 222.200889 462.695619-47.144635 472.153397zM640.580063 477.697016c-23.724698-1.061587-53.918476 35.045587-90.557968 108.344889-8.641016 18.344635-16.170667 32.342349-22.63873 42.044952-8.642032-12.936127-17.787937-32.872635-27.491555-59.831873-8.641016-26.934857-17.257651-49.574603-25.87327-67.918222-9.702603-16.170667-22.108444-24.256-37.193143-24.256-40.983365-2.147556-64.683683 8.641016-71.152762 32.342349-7.555048 16.170667 10.233905 49.068698 53.364825 98.642286 11.850159 14.024127 20.465778 23.725714 25.87327 29.107809h-9.702603c-8.641016 3.23454-17.257651 4.320508-25.87327 3.23454h-8.085333c-20.491175-2.147556-30.725079 0.555683-30.72508 8.085333-1.086984 1.085968-1.086984 2.173968 0 3.23454l1.61727 3.23454 6.468064 3.235555c8.615619 2.172952 22.083048 2.703238 40.427682 1.61727h42.043937c4.296127 7.555048 7.529651 15.109079 9.702603 22.63873h-14.554413c-11.875556-1.061587-28.576508-2.678857-50.130285-4.850793-9.702603 0-19.960889-1.061587-30.72508-3.23454-1.086984 0-2.172952 0.555683-3.234539 1.61727-1.086984 1.085968-1.61727 1.085968-1.61727 0l-1.61727 8.085333c-1.086984 10.788571 23.170032 16.170667 72.769016 16.170667h29.107809c-1.086984 61.450159 17.232254 90.557968 54.982095 87.323428 35.576889 1.061587 52.277841-16.170667 50.131302-51.746539-2.172952-8.615619-2.172952-20.465778 0-35.576889 0-1.060571 0.52927-2.147556 1.61727-3.23454h9.702603a58.199365 58.199365 0 0 0 19.405206 0c5.381079-1.060571 9.702603-1.61727 12.936127-1.61727s10.233905 0.556698 21.021461 1.61727c29.108825 3.23454 47.427048 2.703238 54.982095-1.61727l1.61727-6.468063-4.850794-8.085334c-6.468063-2.147556-12.406857-3.23454-17.787936-3.234539-8.643048 0-20.49219 1.085968-35.576889 3.234539a315.034413 315.034413 0 0 1-45.277461 0h-11.319873c1.061587-5.382095 3.23454-11.319873 6.468064-17.787936l12.936127 1.61727h30.724063c30.168381 0 48.514032-1.061587 54.982096-3.23454l4.850793-4.851809-3.234539-6.468064c-3.23454-1.060571-7.023746-2.147556-11.319873-3.23454h-79.238096c16.170667-26.934857 45.27746-56.598349 87.323429-88.939682 13.997714-10.76419 21.551746-17.788952 22.63873-21.022476-7.552-39.873016-30.19073-59.279238-67.915175-58.217651z" /></svg>