<?xml version="1.0" standalone="no"?><!DOCTYPE svg PUBLIC "-//W3C//DTD SVG 1.1//EN" "http://www.w3.org/Graphics/SVG/1.1/DTD/svg11.dtd"><svg t="1540966603560" class="icon" style="" viewBox="0 0 1024 1024" version="1.1" xmlns="http://www.w3.org/2000/svg" p-id="1748" xmlns:xlink="http://www.w3.org/1999/xlink" width="200" height="200"><defs><style type="text/css"></style></defs><path d="M864.050718 927.681774c-63.070442 53.347999-157.11549 85.290242-279.375588 95.34547-5.677824 0.486378-11.350529 0.650211-16.864521 0.819163h-12.645831c-14.110085 0.153593-31.77841 0.153593-47.839128 0.153593-15.077722 0-26.428251-0.153593-34.369013-0.322545-133.933173-3.082101-237.060692-32.751166-306.781715-88.044678-65.021074-51.725032-97.936073-124.364324-97.936073-216.141314v-18.164943c0-194.085346 121.7686-365.638586 290.081027-432.927718-5.027614-5.513992-9.727562-11.350529-14.268798-17.023234-25.77804-33.078831-51.074822-77.34436-64.698529-112.691249l-0.163832-0.486378c-3.732312-10.21394-7.78205-34.369013-5.995251-46.533586C279.188717 54.044288 304.649331 28.424961 345.187667 19.506322c14.596463-3.240814 91.618277-19.455125 168.312425-19.455124 69.55719 0 142.682859 11.509242 172.357044 19.618957 51.5612 14.273918 63.080681 50.757396 65.184907 71.349109 1.459134 13.618587-1.628087 32.592453-7.951002 48.320386-11.350529 28.21505-36.155813 73.453335-65.829998 110.909569a375.391747 375.391747 0 0 1-16.378143 19.132579c62.916849 24.810404 120.642251 63.56194 168.798804 115.11802 81.240504 86.749376 125.99241 198.309156 125.992411 313.75996v18.159823c0.148473 88.531056-30.6623 159.706093-91.623397 211.262173zM672.387023 147.11658c7.628457-14.268798 15.087961-33.729042 13.951372-41.34726-3.732312-24.646571-30.483108-28.21505-60.648791-35.510722-20.105335-4.863781-73.77076-9.246304-120.954557-9.246304-52.047578 0-106.532166 9.246304-116.582274 10.869271-27.56484 4.536116-47.025084 12.481998-51.730152 31.78353-3.404647 13.454755 12.650951 45.402117 12.650951 45.402117 9.241184 19.78279 25.455495 44.101695 40.533216 62.589183 12.973496 16.050478 29.346519 40.374503 41.99747 40.374504l156.301446 2.43701c4.546355 0 17.197306-6.00037 42.00259-37.620067 19.455125-24.974236 33.56521-52.866741 42.478729-69.731262z m215.654935 539.787549c0-95.504182-37.937493-187.439885-106.685759-259.275372-68.753386-71.671655-160.202711-114.472929-257.493693-120.314586h-29.346519c-197.33128 10.705438-358.015249 182.258678-358.01525 382.344394v15.072602c0 75.726512 27.887385 135.883805 83.017065 178.526366 58.861991 45.724662 146.256458 70.21252 259.756631 72.639292 6.809294 0.153593 16.378143 0.153593 29.187806 0.153593 13.623707 0 28.537596-0.153593 40.538336-0.153593h10.695199c4.705068 0 9.573969-0.158713 14.273917-0.650211 103.450065-8.109715 183.067602-34.691559 236.569195-78.634542 51.55608-42.642561 77.825618-101.34072 77.825618-174.799174v-14.913888h-0.322546z m-230.727537-4.21357a25.675645 25.675645 0 0 1 25.619327 25.624447 25.670525 25.670525 0 0 1-25.619327 25.609087H546.404852v110.914689a25.675645 25.675645 0 0 1-25.619327 25.619327 25.680764 25.680764 0 0 1-25.619327-25.619327v-110.914689H384.261748a25.665405 25.665405 0 0 1-25.619327-25.609087 25.675645 25.675645 0 0 1 25.619327-25.624447h110.90445v-68.261888H384.261748c-14.110085 0-25.619327-11.509242-25.619327-25.619327s11.514362-25.619327 25.619327-25.619328h90.962947L400.793484 488.758806a26.627922 26.627922 0 0 1 0-37.620067 26.627922 26.627922 0 0 1 37.620067 0l82.371974 82.371973 82.371973-82.371973c10.372653-10.372653 27.237174-10.372653 37.620067 0s10.377773 27.237174 0 37.620067l-74.426091 74.43121h90.968067c14.104965 0 25.619327 11.509242 25.619327 25.619328s-11.514362 25.619327-25.619327 25.619327H546.404852v68.261888h110.909569z" p-id="1749"></path></svg>