<?xml version="1.0" standalone="no"?><!DOCTYPE svg PUBLIC "-//W3C//DTD SVG 1.1//EN" "http://www.w3.org/Graphics/SVG/1.1/DTD/svg11.dtd"><svg class="icon" width="200px" height="200.00px" viewBox="0 0 1024 1024" version="1.1" xmlns="http://www.w3.org/2000/svg"><path  d="M587.36 760.32A121.28 121.28 0 0 1 708 640h239.04V120.32A120.64 120.64 0 0 0 826.72 0H194.08A120.64 120.64 0 0 0 73.76 120.32v783.36A120.64 120.64 0 0 0 194.08 1024h393.28z m-253.12-480h352a30.08 30.08 0 0 1 0 60.16h-352a30.08 30.08 0 0 1 0-60.16z m-30.08 131.84a32 32 0 0 1 30.08-30.08h352a30.08 30.08 0 1 1 0 60.16h-352a32 32 0 0 1-30.08-30.08z"  /><path  d="M707.68 1016a70.4 70.4 0 0 1-70.08-70.4v-172.48A70.4 70.4 0 0 1 707.68 704h172.48a70.4 70.4 0 0 1 70.08 70.08z"  /></svg>