<?xml version="1.0" standalone="no"?><!DOCTYPE svg PUBLIC "-//W3C//DTD SVG 1.1//EN" "http://www.w3.org/Graphics/SVG/1.1/DTD/svg11.dtd"><svg t="1552282603089" class="icon" style="" viewBox="0 0 1024 1024" version="1.1" xmlns="http://www.w3.org/2000/svg" p-id="13813" xmlns:xlink="http://www.w3.org/1999/xlink" width="200" height="200"><defs><style type="text/css"></style></defs><path d="M857.653 683.998c-6.895-4.92-16.455-3.32-21.38 3.56l-66.95 93.73-66.95-93.72c-4.925-6.89-14.49-8.49-21.38-3.57-6.885 4.92-8.48 14.495-3.565 21.38l58.2 81.475-37.78 0c-8.47 0-15.33 6.86-15.33 15.32 0 8.47 6.86 15.33 15.33 15.33l56.15 0 0 17.035-56.15 0c-8.47 0-15.33 6.87-15.33 15.33 0 8.465 6.86 15.33 15.33 15.33l56.15 0 0 37.76c0 8.46 6.855 15.325 15.325 15.325 8.465 0 15.325-6.865 15.325-15.325l0-37.76 56.15 0c8.465 0 15.325-6.865 15.325-15.325 0-8.465-6.855-15.335-15.325-15.335l-56.15 0 0-17.035 56.15 0c8.47 0 15.325-6.86 15.325-15.33 0-8.46-6.855-15.32-15.325-15.32l-37.78 0 58.2-81.475C866.133 698.493 864.538 688.918 857.653 683.998L857.653 683.998zM534.549 854.918c-13.39-13.09-28.39-21.865-46.285-22.185-0.322-0.005-0.655-0.01-0.977-0.01-38.437 0-65.385 38.975-91.442 76.66-9.475 13.695-19.272 27.87-28.355 38.165-8.362 9.48-11.985 13.265-14.94 13.13-1.953-0.1-6.068-4.025-13.382-13.245-8.005-10.095-16.15-23.125-24.77-36.915-23.73-37.985-48.26-77.24-86.465-77.785l-0.518 0c-12.86 0-25.867 6.525-46.367 23.285-11.94 9.75-26.822 23.37-44.227 40.48-9.247 9.095-18.522 18.49-27.282 27.53L109.539 73.295c0-2.48 2.015-4.502 4.5-4.502l747.421 0c2.475 0 4.49 2.022 4.49 4.502l0 510.709c21.315 9.905 40.915 22.88 58.23 38.35L924.18 73.295c-0.005-34.59-28.14-62.732-62.72-62.732L114.035 10.563c-34.587 0-62.727 28.142-62.727 62.732l0 916.643c0 17.705 14.405 32.105 32.105 32.105 8.935 0 17.532-3.785 23.65-10.44 10.285-11.245 37.172-40.355 64.64-67.705 33.782-33.64 52.47-51.365 57.307-51.24 4.052 0.1 6.03 5.22 11.242 11.8 8.005 10.09 16.147 23.12 24.767 36.905 23.63 37.815 48.06 76.92 86.05 77.795 0.41 0.005 0.8 0.035 1.212 0.005 38.445-0.005 65.39-38.98 91.45-76.665 9.477-13.7 19.265-27.86 28.355-38.155 8.522-9.675 13.185-13.435 15.035-13.175 3.043 0.43 6.077 3.73 13.707 13.025 8.22 10 16.605 22.99 25.48 36.74 23.615 36.58 48.04 74.405 84.83 76.6 1.105 0.065 2.23 0.1 3.34 0.1l0.015 0c12.56 0 24.16-3.9 35.185-10.445C592.608 975.153 550.089 920.273 534.549 854.918zM885.283 1022.648c21.455-0.01 38.895-17.43 38.895-38.835l0-6.755c-17.83 15.93-38.065 29.215-60.11 39.225C870.283 1020.398 877.598 1022.648 885.283 1022.648zM264.879 165.197c0-16.062-13.02-29.085-29.082-29.085s-29.085 13.022-29.085 29.085l0 526.981 4.742 0 53.425 0 288.869 0c10.905-21.48 24.99-41.07 41.61-58.17L264.879 634.008 264.879 165.197zM728.038 220.7c-10.84 0-20.28 5.93-25.285 14.72l-0.06-0.035L587.378 441.184l-142.1-28.977-0.005-0.005-0.008 0.005-0.02-0.005-0.005 0.025L293.279 521.369c-7.62 5.245-12.617 14.02-12.617 23.97 0 16.065 13.022 29.085 29.085 29.085 6.41 0 12.332-2.08 17.137-5.595l0.01 0.015 131.662-94.562 158.747 32.365 0.055 0.035 0.01-0.02 0.005 0 0.005-0.015 135.03-240.987c2.975-4.565 4.715-10.02 4.715-15.877C757.123 233.722 744.103 220.7 728.038 220.7zM765.858 578.669c-122.08 0-221.039 98.96-221.039 221.039 0 122.075 98.96 221.039 221.039 221.039 122.075 0 221.039-98.965 221.039-221.039C986.897 677.628 887.933 578.669 765.858 578.669zM765.858 984.108c-101.84 0-184.39-82.56-184.39-184.4 0-101.835 82.55-184.39 184.39-184.39s184.4 82.555 184.4 184.39C950.258 901.548 867.698 984.108 765.858 984.108z" p-id="13814"></path></svg>